<svg id="Grupo_19" data-name="Grupo 19" xmlns="http://www.w3.org/2000/svg" xmlns:xlink="http://www.w3.org/1999/xlink" width="40" height="30.836" viewBox="0 0 40 30.836">
  <defs>
    <clipPath id="clip-path">
      <rect id="Retângulo_10" data-name="Retângulo 10" width="40" height="30.836" fill="#10069f"/>
    </clipPath>
  </defs>
  <g id="Grupo_19-2" data-name="Grupo 19" clip-path="url(#clip-path)">
    <path id="Subtração_21" data-name="Subtração 21" d="M7.272,18.456H.622A.986.986,0,0,1,0,17.4C.005,13.415,0,9.368,0,5.455,0,4.022,0,2.54,0,1.061,0,.289.292,0,1.063,0H6.771a1.1,1.1,0,0,1,.82.234,1.115,1.115,0,0,1,.232.824c0,1.232,0,2.486,0,3.7v.19c0,4.082,0,8.3.008,12.454a1.383,1.383,0,0,1-.12.621.98.98,0,0,1-.439.434Zm-3.33-1.569h0c.7,0,1.341,0,1.968.013h.02a.362.362,0,0,0,.267-.07.414.414,0,0,0,.069-.3c-.009-1.872-.008-3.775-.008-5.616v0c0-.523,0-1.115,0-1.694,0-.522,0-1.053,0-1.566V7.568c0-1.851,0-3.766.006-5.657A.4.4,0,0,0,6.2,1.626a.343.343,0,0,0-.252-.068H5.932c-.661.008-1.337.012-2.009.012s-1.343,0-2.018-.012H1.889a.349.349,0,0,0-.256.069.383.383,0,0,0-.069.282c.008,4.812.008,9.746,0,14.664a.353.353,0,0,0,.065.261.327.327,0,0,0,.242.064h.013C2.634,16.89,3.307,16.887,3.943,16.887Z" transform="translate(10.724 12.38)" fill="#10069f" stroke="rgba(0,0,0,0)" stroke-width="1"/>
    <path id="Subtração_22" data-name="Subtração 22" d="M6.548,13.766c-.113,0-.228,0-.339,0h0c-.11,0-.224,0-.336,0H5.849c-.681,0-1.4,0-2.327,0H.826C.251,13.752.182,13.7,0,13.173V.575A1.006,1.006,0,0,1,1.022,0h.02C1.785.007,2.58.01,3.618.01H6.788a1.083,1.083,0,0,1,.8.23,1.083,1.083,0,0,1,.229.8c0,3.745,0,7.568,0,11.688,0,.636-.168.88-.69,1.006A4.546,4.546,0,0,1,6.548,13.766ZM1.882,1.565a.348.348,0,0,0-.256.067.372.372,0,0,0-.068.274c.01,3.312.01,6.653,0,9.93a.424.424,0,0,0,.071.3.364.364,0,0,0,.266.071h.02c.643-.009,1.309-.014,1.98-.014.65,0,1.325,0,2.007.013h.02a.368.368,0,0,0,.272-.071.4.4,0,0,0,.071-.3c-.012-1.222-.01-2.466-.008-3.668v0c0-.411,0-.836,0-1.253s0-.823,0-1.225V5.667c0-1.231,0-2.5.007-3.757A.375.375,0,0,0,6.2,1.633a.344.344,0,0,0-.255-.068H5.925c-.663.008-1.338.012-2.006.012s-1.348,0-2.02-.012Z" transform="translate(0 17.037)" fill="#10069f" stroke="rgba(0,0,0,0)" stroke-width="1"/>
    <path id="Subtração_20" data-name="Subtração 20" d="M7.154,30.766H.646a.772.772,0,0,1-.455-.244A.834.834,0,0,1,.01,30.04C0,29.918,0,29.792,0,29.671v-.014q0-.024,0-.047C0,19.662,0,9.7,0,1.136A1.248,1.248,0,0,1,.224.227,1.212,1.212,0,0,1,1.122,0H4.13L6.872,0c.562,0,.8.183.918.7,0,.045,0,.092-.006.136h0c0,.1-.009.194-.009.291,0,8.72,0,18.171,0,28.894a.7.7,0,0,0,.006.079h0c0,.012,0,.024,0,.036a.711.711,0,0,1-.628.628ZM1.924,1.556a.4.4,0,0,0-.292.077.465.465,0,0,0-.078.33c.009,3.6.009,7.244.008,10.77q0,1.324,0,2.649t0,2.66c0,3.538,0,7.2-.008,10.8a.44.44,0,0,0,.083.324.413.413,0,0,0,.305.081h.024c.611-.008,1.234-.013,1.906-.013.628,0,1.284,0,2.006.011H5.9a.413.413,0,0,0,.277-.064.375.375,0,0,0,.082-.292c-.009-8.737-.009-17.819,0-26.993a.363.363,0,0,0-.07-.265A.373.373,0,0,0,5.92,1.56H5.9c-.567.005-1.314.011-2.064.011-.686,0-1.3,0-1.887-.015Z" transform="translate(32.211 0)" fill="#10069f" stroke="rgba(0,0,0,0)" stroke-width="1"/>
    <path id="Caminho_102" data-name="Caminho 102" d="M281.228,87.812l-6.508,0a.712.712,0,0,1-.642-.674,3.648,3.648,0,0,1-.027-.466q0-11.813,0-23.626c0-.926.226-1.153,1.152-1.153h5.632c.773,0,1.031.256,1.031,1.029q0,3.716,0,7.432a.844.844,0,0,1-.4.829.729.729,0,0,1-.779-.017.917.917,0,0,1-.386-.883q0-2.875,0-5.75c0-.287-.009-.574,0-.86.008-.174-.054-.22-.223-.219q-2.112.009-4.224,0c-.182,0-.272.046-.246.24a1.49,1.49,0,0,1,0,.2q0,10.972-.007,21.944c0,.347.07.463.442.456,1.29-.025,2.581-.019,3.872,0,.3,0,.391-.069.39-.383-.013-2.842-.008-5.685-.008-8.527a1.957,1.957,0,0,1,.05-.542.762.762,0,0,1,1.5.073,2.3,2.3,0,0,1,.019.351q0,4.792,0,9.583c0,.61-.138.812-.637.967" transform="translate(-252.584 -57.047)" fill="#10069f"/>
    <path id="Caminho_103" data-name="Caminho 103" d="M355.549,206.68a.789.789,0,0,1-.755.783.78.78,0,1,1-.006-1.56.787.787,0,0,1,.761.777" transform="translate(-326.275 -189.776)" fill="#10069f"/>
  </g>
</svg>
