<svg id="Grupo_8" data-name="Grupo 8" xmlns="http://www.w3.org/2000/svg" xmlns:xlink="http://www.w3.org/1999/xlink" preserveAspectRatio="xMidYMid meet" width="40" height="39.995" viewBox="0 0 40 39.995">
  <defs>
    <clipPath id="clip-path">
      <rect id="Retângulo_2" data-name="Retângulo 2" width="40" height="39.995" fill="#10069f"/>
    </clipPath>
  </defs>
  <g id="Grupo_7" data-name="Grupo 7" clip-path="url(#clip-path)">
    <path id="Subtração_3" data-name="Subtração 3" d="M20.237,22.661H.478A1.4,1.4,0,0,1,0,21.346c.019-.49.014-.988.009-1.47h0a18.683,18.683,0,0,1,.075-2.349A7.025,7.025,0,0,1,2.066,13.5a6.989,6.989,0,0,1,3.954-2.1c.15-.022.3-.046.464-.072h0l.262-.041-.021-.028a6.709,6.709,0,0,1-.882-1.356A4.858,4.858,0,0,1,5.4,7.949v-.4c-.006-1.174-.013-2.388,0-3.582a3.98,3.98,0,0,1,.307-1.486,4.038,4.038,0,0,1,.806-1.237A3.928,3.928,0,0,1,7.7.387,3.761,3.761,0,0,1,9.168.036C9.861.011,10.6,0,11.508,0c.608,0,1.226.005,1.824.01h.008l1.214.009a.851.851,0,0,1,.628.227.864.864,0,0,1,.221.63c0,.46,0,.929,0,1.382V2.3c0,1.938.009,3.942-.022,5.913a4.041,4.041,0,0,1-.309,1.474,5.366,5.366,0,0,1-.785,1.3.8.8,0,0,1-.059.064.375.375,0,0,0-.137.247,7.258,7.258,0,0,1,2.455.652A8.685,8.685,0,0,1,18.3,13.089a6.877,6.877,0,0,1,1.293,1.439,6.783,6.783,0,0,1,.827,1.747,8.4,8.4,0,0,1,.354,2.054c.032.61.026,1.233.02,1.835v0c0,.459-.009.934,0,1.4a1.07,1.07,0,0,1-.561,1.092ZM10.1,21.1c3.055,0,6.029,0,8.84.006h0a.316.316,0,0,0,.232-.061.341.341,0,0,0,.055-.248c-.007-.393-.006-.792,0-1.178v0c0-.38,0-.773,0-1.162a5.658,5.658,0,0,0-4.675-5.507.72.72,0,0,0-.132-.013.49.49,0,0,0-.371.181c-.82.828-1.659,1.665-2.47,2.474l-.006.006-.016.016-.4.4a1.132,1.132,0,0,1-.748.427,1.118,1.118,0,0,1-.74-.421c-.884-.883-1.782-1.781-2.65-2.65L7,13.36l-.266-.266a.432.432,0,0,0-.321-.174.486.486,0,0,0-.075.006,5.744,5.744,0,0,0-4.719,5.048H3.425c.5,0,.9,0,1.275,0a.956.956,0,0,1,.644.217.788.788,0,0,1,0,1.126.975.975,0,0,1-.646.216l-.408,0H3.424c-.234,0-.425,0-.6.005H2.795a3.469,3.469,0,0,1-.38-.03,3.49,3.49,0,0,0-.379-.03.49.49,0,0,0-.4.136,1.122,1.122,0,0,0-.085.763,3.312,3.312,0,0,1,.019.444.286.286,0,0,0,.048.218.3.3,0,0,0,.229.06h0C4.77,21.1,7.471,21.1,10.1,21.1Zm-1.4-8.222.441.435.009.008.005,0c.388.383.755.745,1.119,1.111a.182.182,0,0,0,.122.069.193.193,0,0,0,.129-.075c.375-.381.745-.751,1.136-1.142l.41-.411ZM7.414,6.57c-.2,0-.323.043-.387.135a1.573,1.573,0,0,0-.085.988c.011.1.021.2.027.3A3.461,3.461,0,0,0,9.942,11.25c.132.012.265.019.4.019a3.372,3.372,0,0,0,3.4-2.6,5.874,5.874,0,0,0,.113-1.644c-.007-.274-.013-.557,0-.839a4.03,4.03,0,0,1-2.126.442h-2c-.592,0-1.072,0-1.511.005H8.2a3.607,3.607,0,0,1-.387-.03h0A3.63,3.63,0,0,0,7.414,6.57Zm3.655-5c-.464,0-1.075,0-1.687.01A2.392,2.392,0,0,0,7.414,2.6a3.278,3.278,0,0,0-.465,2.088v.078c0,.235.064.3.283.3h.023c.314-.006.657-.009,1.081-.009h2.789c.343,0,.626,0,.891,0a1.675,1.675,0,0,0,1.826-1.817c0-.183,0-.373,0-.541,0-.283,0-.575,0-.864a.3.3,0,0,0-.049-.217.264.264,0,0,0-.195-.055H13.6c-.327,0-.683,0-1.119,0H11.07Z" transform="translate(0.003 17.335)" fill="#10069f" stroke="rgba(0,0,0,0)" stroke-width="1"/>
    <path id="Subtração_2" data-name="Subtração 2" d="M19.786,22.652h-.011c-.86,0-1.779-.007-2.892-.007l-2.269,0H13.68a1.346,1.346,0,0,1-.512-.079.724.724,0,0,1-.378-.35.748.748,0,0,1,0-.735.765.765,0,0,1,.275-.275.878.878,0,0,1,.416-.118c.212-.008.442-.012.722-.012l.514,0h.006l.515,0h1.643c.638,0,1.325,0,2.027,0h0c.023,0,.047,0,.071,0h0c.026,0,.052,0,.077,0a.15.15,0,0,0,.117-.038.228.228,0,0,0,.043-.17c-.015-.4-.01-.8,0-1.194h0a14.17,14.17,0,0,0-.069-2,5.708,5.708,0,0,0-4.7-4.781.462.462,0,0,0-.065,0,.43.43,0,0,0-.32.173l-.009.01-.585.585-.185.186-.093.093-2.036,2.036a1.154,1.154,0,0,1-.763.443,1.136,1.136,0,0,1-.753-.436l-.477-.476-.008-.008c-.792-.791-1.611-1.608-2.411-2.417a.479.479,0,0,0-.364-.172.752.752,0,0,0-.144.015,5.709,5.709,0,0,0-4.664,5.559c0,.341,0,.689,0,1.025h0c0,.418,0,.85-.007,1.278a.317.317,0,0,0,.056.235.33.33,0,0,0,.24.061h.01c.8,0,1.643-.007,2.652-.007l2.386,0a1.077,1.077,0,0,1,.637.17.69.69,0,0,1,.278.485.757.757,0,0,1-.159.616.926.926,0,0,1-.706.287c-.243,0-.505.006-.824.006H5.507l-.622,0H1.019a1.068,1.068,0,0,1-.785-.229,1.061,1.061,0,0,1-.23-.783c0-.307,0-.63,0-.889,0-.8-.006-1.62.011-2.43a7.04,7.04,0,0,1,.528-2.53,7.285,7.285,0,0,1,5.826-4.455c.026,0,.052,0,.079,0a.351.351,0,0,0,.272-.093,5.676,5.676,0,0,1-.735-1.043A4.876,4.876,0,0,1,5.528,9a5.418,5.418,0,0,1-.14-1.275c0-.455,0-.925,0-1.34V6.373c0-.735,0-1.495,0-2.242A4.446,4.446,0,0,1,5.7,2.477,3.874,3.874,0,0,1,7.875.312,4.438,4.438,0,0,1,9.528,0L11.64,0h2.73a1.078,1.078,0,0,1,.8.229,1.091,1.091,0,0,1,.228.806c0,.607,0,1.222-.006,1.816-.007,1.324-.014,2.693.017,4.041a7.979,7.979,0,0,1-.229,2.317A4.675,4.675,0,0,1,14.01,11.27l.148.023a8.433,8.433,0,0,1,1.8.41,8.61,8.61,0,0,1,1.807.953,6.762,6.762,0,0,1,2.376,2.914,8.543,8.543,0,0,1,.567,1.963.351.351,0,0,1,0,.057c0,.056,0,.114.074.141v4.3A.951.951,0,0,1,19.786,22.652ZM8.7,12.845l.454.453.005.005,0,0c.378.377.735.732,1.084,1.093a.218.218,0,0,0,.146.085c.057,0,.108-.047.163-.1.2-.2.4-.4.588-.591.222-.222.452-.451.675-.681a.5.5,0,0,1,.064-.052c.068-.05.139-.1.1-.21ZM7.217,6.6a.3.3,0,0,0-.227.057.283.283,0,0,0-.046.217c.015.206.015.416.015.62,0,.232,0,.472.022.706a3.448,3.448,0,0,0,2.987,3.034c.125.012.25.018.373.018h0a3.4,3.4,0,0,0,3.33-2.413,5.756,5.756,0,0,0,.165-1.812c0-.292-.008-.593.008-.9a3.887,3.887,0,0,1-2.117.477h-.086c-.617,0-1.227,0-1.691,0H7.217Zm3.795-5.047c-.646,0-1.169,0-1.646.014A2.361,2.361,0,0,0,7.153,3.033a3.029,3.029,0,0,0-.2,1.33h0c0,.117,0,.238,0,.356A.351.351,0,0,0,7,4.984a.312.312,0,0,0,.235.066h.024c.31-.007.648-.01,1.064-.01l.678,0,.678,0V5.021c.269,0,.543,0,.807.007s.538.007.808.007c.4,0,.729-.008,1.036-.024a1.587,1.587,0,0,0,1.5-1.6c.007-.256.005-.516,0-.768v0c0-.27,0-.55.006-.826a.266.266,0,0,0-.048-.2.277.277,0,0,0-.209-.054h-.621l-.973,0h0Z" transform="translate(19.215 0.004)" fill="#10069f" stroke="rgba(0,0,0,0)" stroke-width="1"/>
    <path id="Subtração_4" data-name="Subtração 4" d="M17.747,14.7H6.735a1.821,1.821,0,0,0-.552-.221,2.319,2.319,0,0,1-.447-.158,4.665,4.665,0,0,1-.98-.667,3.722,3.722,0,0,1-.7-.838,3.8,3.8,0,0,1-.422-1,4.887,4.887,0,0,1-.151-1.168c-.014-.972-.013-2.015,0-3.28a.726.726,0,0,0-.246-.575c-.481-.475-.965-.96-1.433-1.429S.868,4.417.393,3.948A.884.884,0,0,1,.068,2.912a.852.852,0,0,1,.9-.478h.04c.23,0,.473,0,.789,0h.884c.316,0,.559,0,.787,0h.017a.416.416,0,0,0,.434-.261A3.977,3.977,0,0,1,5.292.6,3.706,3.706,0,0,1,7.284.034C9.1.011,10.786,0,12.432,0c1.709,0,3.38.013,4.966.038A3.592,3.592,0,0,1,18.586.26,3.68,3.68,0,0,1,19.65.87a4.111,4.111,0,0,1,1.375,2.275.326.326,0,0,1,.006.044c0,.048.009.094.075.108v8.2a4.5,4.5,0,0,1-.3.972,3.671,3.671,0,0,1-1.175,1.482,4.571,4.571,0,0,1-.88.513,2.667,2.667,0,0,1-.672.173c-.11.018-.224.037-.335.063ZM2.639,4c.205.2.4.4.6.6l.009.009c.454.456.883.887,1.329,1.3a1.44,1.44,0,0,1,.478,1.173C5.03,8.229,5.038,9.4,5.045,10.533v.057a2.382,2.382,0,0,0,2.564,2.548h9.367a2.366,2.366,0,0,0,2.567-2.58c0-2.124,0-4.277,0-6.4a2.366,2.366,0,0,0-2.569-2.578H7.647A2.353,2.353,0,0,0,5.12,3.347a.989.989,0,0,1-.331.511A1.009,1.009,0,0,1,4.19,4L3.63,4H2.639Z" transform="translate(18.894 25.295)" fill="#10069f" stroke="rgba(0,0,0,0)" stroke-width="1"/>
    <path id="Subtração_1" data-name="Subtração 1" d="M8.874,14.7c-1.641,0-3.358-.008-5.1-.024a3.572,3.572,0,0,1-1.425-.314,4,4,0,0,1-2.01-2.016A3.622,3.622,0,0,1,.022,10.92c-.03-2.367-.03-4.771,0-7.143A3.9,3.9,0,0,1,3.81.013C4.389,0,5.009,0,5.76,0,6.273,0,6.795,0,7.3,0h0c.505,0,1.028,0,1.541,0v0h4.723a4.369,4.369,0,0,1,1.615.3,3.794,3.794,0,0,1,2.129,2.1,4.374,4.374,0,0,1,.321,1.614c.016,1.142.008,2.284,0,3.357a.653.653,0,0,0,.213.511c.474.468.953.948,1.416,1.411l.019.019c.478.478.973.973,1.468,1.462a1.3,1.3,0,0,1,.325.458.776.776,0,0,1-.384.939,1.249,1.249,0,0,1-.533.094h-.038c-.216,0-.453,0-.744,0H18.5c-.354,0-.625,0-.879-.006h-.016a.39.39,0,0,0-.4.256,3.987,3.987,0,0,1-1.406,1.6,3.829,3.829,0,0,1-2.034.561C12.183,14.693,10.537,14.7,8.874,14.7ZM9.155,1.566l-5.032,0a2.372,2.372,0,0,0-2.548,2.56c0,2.156,0,4.314,0,6.4a2.384,2.384,0,0,0,2.588,2.6H13.49a2.343,2.343,0,0,0,2.5-1.751.836.836,0,0,1,.959-.67h1.428l.039-.056.011-.016.03-.043c-.036-.025-.075-.048-.113-.071h0a1.069,1.069,0,0,1-.228-.167,9.382,9.382,0,0,0-.69-.638h0a8.97,8.97,0,0,1-.711-.661,2.638,2.638,0,0,1-.52-.771,2.644,2.644,0,0,1-.185-.924,8.939,8.939,0,0,1,.034-.979v0a9.341,9.341,0,0,0,.036-.953c-.008-.26-.006-.523,0-.778,0-.18,0-.366,0-.549a2.373,2.373,0,0,0-2.545-2.528Z" transform="translate(0 0)" fill="#10069f" stroke="rgba(0,0,0,0)" stroke-width="1"/>
    <path id="Caminho_5" data-name="Caminho 5" d="M296.2,216.349a.816.816,0,0,1-.787.76.806.806,0,0,1-.765-.817.777.777,0,0,1,1.552.057" transform="translate(-265.812 -194.463)" fill="#10069f"/>
    <path id="Caminho_15" data-name="Caminho 15" d="M74.836,361.663a.766.766,0,1,1-.738-.795.788.788,0,0,1,.738.795" transform="translate(-66.13 -325.555)" fill="#10069f"/>
    <path id="Caminho_16" data-name="Caminho 16" d="M300.92,312.627l1.961-1.982a.941.941,0,0,1,.594-.338.734.734,0,0,1,.731.345.7.7,0,0,1,.011.806,1.8,1.8,0,0,1-.246.3q-1.17,1.176-2.346,2.347a.828.828,0,0,1-1.376,0c-.436-.429-.871-.859-1.3-1.3a.779.779,0,0,1-.085-1.176.793.793,0,0,1,1.176.068c.3.29.573.6.877.923" transform="translate(-269.415 -279.939)" fill="#10069f"/>
    <path id="Caminho_17" data-name="Caminho 17" d="M76.634,30.247a2.516,2.516,0,0,1-1.617,2.172.461.461,0,0,0-.315.418.771.771,0,0,1-.78.714.794.794,0,0,1-.75-.8c-.07-.96.169-1.31,1.209-1.765a1.118,1.118,0,0,0,.69-1.148,1.144,1.144,0,0,0-2.057-.553,1.277,1.277,0,0,0-.215.616c-.064.542-.4.862-.847.814a.809.809,0,0,1-.7-.987,2.716,2.716,0,0,1,2.834-2.483,2.779,2.779,0,0,1,2.548,3" transform="translate(-64.274 -24.58)" fill="#10069f"/>
    <path id="Caminho_18" data-name="Caminho 18" d="M91.759,106.3a.806.806,0,0,1,.772.771.791.791,0,0,1-.8.781.773.773,0,0,1-.745-.785.789.789,0,0,1,.769-.767" transform="translate(-82.086 -95.898)" fill="#10069f"/>
  </g>
</svg>
