<svg id="Grupo_54" data-name="Grupo 54" xmlns="http://www.w3.org/2000/svg" xmlns:xlink="http://www.w3.org/1999/xlink" width="50" height="49.963" viewBox="0 0 50 49.963">
  <defs>
    <clipPath id="clip-path">
      <rect id="Retângulo_26" data-name="Retângulo 26" width="50" height="49.963" fill="#10069f"/>
    </clipPath>
  </defs>
  <g id="Grupo_54-2" data-name="Grupo 54" clip-path="url(#clip-path)">
    <path id="Subtração_58" data-name="Subtração 58" d="M36.064,49.963a13.773,13.773,0,0,1-2.569-.249,17.123,17.123,0,0,1-2.535-.7c-1.74-.62-3.557-1.251-5.159-1.808l-.01,0c-1.3-.452-2.647-.92-3.982-1.39a4.152,4.152,0,0,1-.95-.477,3.878,3.878,0,0,1-.747-.661,3.776,3.776,0,0,1-.845-1.691,3.69,3.69,0,0,1-.078-.91,3.642,3.642,0,0,1,.544-1.779,3.924,3.924,0,0,1,.642-.784A3.5,3.5,0,0,1,22.846,38.5a4.324,4.324,0,0,1,.846.087c.577.116,1.154.258,1.712.4h.011c.231.057.493.122.748.182l.136-.147.008-.008c-.053-.036-.111-.071-.154-.1h0a1.637,1.637,0,0,1-.311-.224c-3.983-3.975-7.957-7.949-11.814-11.811a4.455,4.455,0,0,1-.772-1.024,3.68,3.68,0,0,1-.392-1.115,3.4,3.4,0,0,1,0-1.15,3.725,3.725,0,0,1,.987-1.945,3.545,3.545,0,0,1,.759-.594,3.6,3.6,0,0,1,3.144-.227,3.741,3.741,0,0,1,1.214.791c.957.926,1.911,1.886,2.834,2.814l.017.017,0,0,.02.021c.481.484.979.985,1.476,1.48.031.032.061.065.09.1l0,0a.8.8,0,0,0,.347.268,4.741,4.741,0,0,1,.546-.989,3.564,3.564,0,0,1,.727-.744,3.384,3.384,0,0,1,.915-.488,4.191,4.191,0,0,1,1.108-.22c.28-.019.278-.175.275-.325v0a.915.915,0,0,1,0-.111,3.951,3.951,0,0,1,.276-1.1,3.532,3.532,0,0,1,.557-.92,3.465,3.465,0,0,1,.807-.7,3.769,3.769,0,0,1,1.026-.446,3.6,3.6,0,0,1,.941-.129,3.4,3.4,0,0,1,1.348.282.632.632,0,0,0,.234.066c.1,0,.17-.068.245-.249a4.079,4.079,0,0,1,.591-1.009,3.668,3.668,0,0,1,.8-.737,3.466,3.466,0,0,1,1.956-.6,3.527,3.527,0,0,1,1.363.275,3.952,3.952,0,0,1,1.256.845c1.223,1.208,2.457,2.447,3.65,3.646l0,0,.02.02.011.011c.469.471,1.052,1.057,1.617,1.623.129-.079.113-.185.1-.288a.62.62,0,0,1-.009-.091c0-1.68,0-3.435,0-5.089v-.131c0-2.889,0-6.163.01-9.3a.52.52,0,0,0-.088-.369.487.487,0,0,0-.355-.09h0c-6.92.005-13.364.008-19.7.008-7.458,0-14.714,0-21.566-.011h0c-.211,0-.328.036-.389.122a.675.675,0,0,0-.064.38c.006,6.555.006,13.218.006,19.661v.037c0,1.868,0,3.8,0,5.7a1.672,1.672,0,0,0,.39,1.228,1.648,1.648,0,0,0,1.224.4c1.6,0,3.209,0,4.431,0H14.3a1.442,1.442,0,0,1,.881.234.869.869,0,0,1,.33.682.948.948,0,0,1-.882,1.025c-.086.008-.177.011-.294.011H7.843l-4.25,0a4.291,4.291,0,0,1-1.5-.251A3.048,3.048,0,0,1,.251,36.332,4.328,4.328,0,0,1,0,34.83C0,24.824,0,14.61,0,3.6A4.327,4.327,0,0,1,.25,2.1,3.042,3.042,0,0,1,2.1.252,4.306,4.306,0,0,1,3.595,0L23.032,0,42.469,0a4.355,4.355,0,0,1,1.512.25,3.08,3.08,0,0,1,1.133.72,3.124,3.124,0,0,1,.711,1.146,4.488,4.488,0,0,1,.247,1.527v.286c0,7.161,0,14.565-.006,21.937a1.233,1.233,0,0,0,.334.872,17.794,17.794,0,0,1,1.192,1.56,15.384,15.384,0,0,1,.957,1.612,13.747,13.747,0,0,1,.719,1.662,12.835,12.835,0,0,1,.477,1.71,12.6,12.6,0,0,1,.232,1.756,13.07,13.07,0,0,1-.016,1.8,14.214,14.214,0,0,1-.268,1.842,16.17,16.17,0,0,1-.523,1.881,15.98,15.98,0,0,1-.727,1.772,14.12,14.12,0,0,1-.9,1.591,12.967,12.967,0,0,1-1.069,1.41,12.527,12.527,0,0,1-1.235,1.229,12.751,12.751,0,0,1-1.4,1.049,13.641,13.641,0,0,1-1.554.868,15.243,15.243,0,0,1-1.708.688,17.541,17.541,0,0,1-1.858.508A12.579,12.579,0,0,1,36.064,49.963Zm-13.131-9.5a1.8,1.8,0,0,0-.925.239,1.716,1.716,0,0,0-.648.686,1.734,1.734,0,0,0,.325,2.123,2.023,2.023,0,0,0,.725.436c1.19.419,2.4.84,3.574,1.247l.012,0,.032.011h0l.03.01h0c1.644.571,3.344,1.161,5.01,1.757a21.909,21.909,0,0,0,2.156.669,11.383,11.383,0,0,0,2.226.339c.188.008.377.013.563.013C42.727,48,47.992,42.491,48,35.458a11.486,11.486,0,0,0-3.485-7.883c-1.846-1.871-3.782-3.8-5.49-5.5l-.362-.361L37.42,20.47a1.924,1.924,0,0,0-1.341-.607,1.566,1.566,0,0,0-1.11.467,1.591,1.591,0,0,0-.513,1.137,1.633,1.633,0,0,0,.152.688,2.273,2.273,0,0,0,.466.658c.66.663,1.35,1.353,1.959,1.962l0,0,.043.043.011.011,1.478,1.479.035.036.009.008h0a2.8,2.8,0,0,1,.336.379.952.952,0,0,1,.17.643.932.932,0,0,1-.09.314,1,1,0,0,1-.2.276.97.97,0,0,1-1.239.1,2.483,2.483,0,0,1-.315-.285h0l-.006-.007-.059-.06-.618-.617-.019-.019c-1.443-1.441-2.934-2.93-4.4-4.4a1.613,1.613,0,0,0-1.548-.539,1.582,1.582,0,0,0-1.272,1.1,1.623,1.623,0,0,0,.45,1.761l1.176,1.176.015.015c1.056,1.056,2.5,2.5,3.848,3.851l.015.016h0a2.417,2.417,0,0,1,.355.414.921.921,0,0,1-.164,1.185.971.971,0,0,1-.671.27.925.925,0,0,1-.524-.161,2.647,2.647,0,0,1-.373-.331l-.01-.011-.011-.011-.011-.011-.019-.019-.272-.272-.027-.027C31.611,29.566,30.044,28,28.5,26.447a2.409,2.409,0,0,0-.529-.415,1.531,1.531,0,0,0-.639-.2c-.045,0-.09-.005-.134-.005a1.643,1.643,0,0,0-1.509.961,1.715,1.715,0,0,0-.145.494,1.557,1.557,0,0,0,.014.5,1.631,1.631,0,0,0,.173.478,1.957,1.957,0,0,0,.332.44c1.093,1.1,2.221,2.229,3.217,3.223h0l.157.157.012.012L30.8,33.45l.032.032.031.031a3.015,3.015,0,0,1,.291.317.975.975,0,0,1,.194.635.976.976,0,0,1-.955.925.974.974,0,0,1-.568-.19,2.774,2.774,0,0,1-.349-.316l-.024-.025-.009-.009-.037-.038-5.321-5.32-.846-.846-.348-.348-5.038-5.038-.066-.066h0l0,0-.005-.005a3.535,3.535,0,0,0-.342-.317,1.716,1.716,0,0,0-.49-.266,1.626,1.626,0,0,0-.531-.09,1.673,1.673,0,0,0-1.637,1.864,1.894,1.894,0,0,0,.648,1.151c3.911,3.906,7.879,7.875,11.717,11.713l.046.046.03.03,1.74,1.74.067.067.825.825.263.265.03.03a1.147,1.147,0,0,1,.335.58.93.93,0,0,1-.124.647.9.9,0,0,1-.825.5,1.4,1.4,0,0,1-.336-.044l-.3-.074-.043-.011h0L28.29,41.7l-1.225-.3h-.005c-1.158-.283-2.356-.576-3.56-.864A2.448,2.448,0,0,0,22.933,40.466ZM14.393,1.952H3.626a2.594,2.594,0,0,0-.758.1,1.2,1.2,0,0,0-.517.3,1.214,1.214,0,0,0-.3.521,2.652,2.652,0,0,0-.095.761c0,.281,0,.568,0,.844v.014h0c.005.657.01,1.336-.016,2a.562.562,0,0,0,.092.423c.075.077.2.109.437.109h.006c4.494-.01,9.054-.011,12.922-.011H30.426c4.17,0,8.657,0,13.218.01h0c.21,0,.323-.028.39-.1a.512.512,0,0,0,.085-.383c-.022-.663-.018-1.339-.014-1.992v0c0-.253,0-.54,0-.815,0-1.33-.447-1.779-1.772-1.779H14.393Z" transform="translate(0)" fill="#10069f" stroke="rgba(0,0,0,0)" stroke-width="1"/>
    <path id="Caminho_311" data-name="Caminho 311" d="M92.526,191.864a1.167,1.167,0,0,1,.8.363c1.163,1.166,2.333,2.324,3.49,3.5a.979.979,0,1,1-1.369,1.386q-1.774-1.756-3.529-3.531a.936.936,0,0,1-.256-1.088,1.006,1.006,0,0,1,.863-.626" transform="translate(-84.41 -176.837)" fill="#10069f"/>
    <path id="Caminho_312" data-name="Caminho 312" d="M194.425,189.5c0,.363.016.727,0,1.088a.969.969,0,0,1-.93.936.94.94,0,0,1-.982-.817,11.507,11.507,0,0,1,0-2.43.909.909,0,0,1,1.04-.792.942.942,0,0,1,.872.927c.019.362,0,.725,0,1.088" transform="translate(-177.372 -172.8)" fill="#10069f"/>
    <path id="Caminho_313" data-name="Caminho 313" d="M89.2,295.094c-.362,0-.726.016-1.087,0a.928.928,0,0,1-.921-.925.9.9,0,0,1,.85-.987,21.8,21.8,0,0,1,2.327,0,.918.918,0,0,1,.855.991.965.965,0,0,1-.936.923c-.034,0-.069,0-.1,0H89.2v0" transform="translate(-80.366 -270.189)" fill="#10069f"/>
    <path id="Caminho_314" data-name="Caminho 314" d="M223.356,466.861a.961.961,0,1,1-1.923.025.961.961,0,1,1,1.923-.025" transform="translate(-204.09 -429.408)" fill="#10069f"/>
    <path id="Caminho_317" data-name="Caminho 317" d="M254.053,46.793h-9.727a4.021,4.021,0,0,1-.571-.019.941.941,0,0,1-.8-.94.93.93,0,0,1,.785-.95,3.534,3.534,0,0,1,.57-.027h19.559c.844,0,1.262.32,1.268.959s-.42.978-1.249.978q-4.916,0-9.832,0" transform="translate(-223.923 -41.342)" fill="#10069f"/>
    <path id="Caminho_318" data-name="Caminho 318" d="M109.617,45.87a.977.977,0,0,1-1.953.01.977.977,0,0,1,1.953-.01" transform="translate(-99.231 -41.392)" fill="#10069f"/>
    <path id="Caminho_319" data-name="Caminho 319" d="M155.593,45.861a.961.961,0,1,1-.955-.945.94.94,0,0,1,.955.945" transform="translate(-141.635 -41.399)" fill="#10069f"/>
    <path id="Caminho_320" data-name="Caminho 320" d="M64.01,45.849A.964.964,0,1,1,63,44.908a.948.948,0,0,1,1.014.941" transform="translate(-57.221 -41.39)" fill="#10069f"/>
  </g>
</svg>
