<svg id="Grupo_14" data-name="Grupo 14" xmlns="http://www.w3.org/2000/svg" xmlns:xlink="http://www.w3.org/1999/xlink" width="40.013" height="40" viewBox="0 0 40.013 40">
  <defs>
    <clipPath id="clip-path">
      <rect id="Retângulo_5" data-name="Retângulo 5" width="40.013" height="40" fill="#10069f"/>
    </clipPath>
  </defs>
  <g id="Grupo_13" data-name="Grupo 13" clip-path="url(#clip-path)">
    <path id="Subtração_12" data-name="Subtração 12" d="M39.277,18.868H.514a1.04,1.04,0,0,1-.494-1.18A24.223,24.223,0,0,1,.493,15.2a21.485,21.485,0,0,1,.712-2.322,19.722,19.722,0,0,1,.951-2.159A18.768,18.768,0,0,1,4.772,6.889,19.851,19.851,0,0,1,6.436,5.216a21.7,21.7,0,0,1,1.9-1.511,24.525,24.525,0,0,1,2.137-1.35,1.232,1.232,0,0,1,.594-.182.692.692,0,0,1,.585.315.749.749,0,0,1,.129.608.893.893,0,0,1-.465.574A18.677,18.677,0,0,0,8.884,5.217a.217.217,0,0,0,.167.067.721.721,0,0,0,.084-.006h0a.689.689,0,0,1,.08-.007h3.44c.994,0,1.752,0,2.46.008a3.9,3.9,0,0,1,3.142,1.641,3.8,3.8,0,0,1,.54,1.1,3.893,3.893,0,0,1-1.508,4.339,4.007,4.007,0,0,1-2.377.7H14.7a2.431,2.431,0,0,0-1.134.222,2.125,2.125,0,0,0,.96,4.022c1.074,0,2.244,0,3.684,0h8.718c1.18,0,2.737,0,4.318.01h.017c.389,0,.648-.08.74-.476a.887.887,0,0,0-.483-1.008,1.3,1.3,0,0,0-.534-.086h-.153c-.212,0-.428.006-.636.012h0c-.209.006-.426.012-.638.012a6.263,6.263,0,0,1-.951-.062,3.655,3.655,0,0,1-2.287-1.286,3.443,3.443,0,0,1-.778-2.434,3.642,3.642,0,0,1,.345-1.321,3.482,3.482,0,0,1,.775-1.054,3.545,3.545,0,0,1,1.116-.7,3.823,3.823,0,0,1,1.369-.262c.559-.006,1.159-.008,1.887-.008l1.439,0H32.5l1.452,0h.435a5.868,5.868,0,0,0-.68-.86l-.115-.128A18.6,18.6,0,0,0,30.346,4.8a.419.419,0,0,0-.243-.093.49.49,0,0,0-.237.077l-.36.2h0c-1.131.63-2.3,1.282-3.464,1.9a2.339,2.339,0,0,1-1.085.272,2.12,2.12,0,0,1-1.362-.481,1.875,1.875,0,0,1-.456-.562,1.937,1.937,0,0,1-.216-.74,10.253,10.253,0,0,0-.855-2.941l0-.005c-.06-.149-.122-.3-.183-.455a.5.5,0,0,0-.515-.357c-.574-.033-1.076-.048-1.537-.048a15.7,15.7,0,0,0-1.855.1,1.808,1.808,0,0,1-.195.012H17.77a.8.8,0,0,1-.837-.739.785.785,0,0,1,.729-.816A21.275,21.275,0,0,1,19.907,0a19.728,19.728,0,0,1,3.97.4,21.052,21.052,0,0,1,3.016.856,19.284,19.284,0,0,1,5.322,2.978,21,21,0,0,1,4.3,4.623,19.419,19.419,0,0,1,1.539,2.717,19.637,19.637,0,0,1,1.082,2.931,21.377,21.377,0,0,1,.629,3.143,1.544,1.544,0,0,1-.041.7.96.96,0,0,1-.448.514ZM35.737,17.3c.838,0,1.481,0,2.085.009h.013c.128,0,.2-.021.242-.067s.046-.122.023-.259a18.75,18.75,0,0,0-2.441-6.569.348.348,0,0,0-.327-.217h0l-1.027,0H31.849c-.782,0-1.813,0-2.849.021a1.9,1.9,0,0,0-1.351.595A1.989,1.989,0,0,0,29.1,14.181c.194,0,.4,0,.657,0h1.3a2.743,2.743,0,0,1,1.144.244,2.327,2.327,0,0,1,.845.656,2.373,2.373,0,0,1,.471,1,2.905,2.905,0,0,1-.009,1.226h2.235ZM7.264,6.833a.6.6,0,0,0-.475.191,18.748,18.748,0,0,0-3.431,4.8A18.519,18.519,0,0,0,1.7,16.957c0,.025-.011.051-.019.078-.021.077-.042.157,0,.212s.1.064.213.064h0c1.889-.006,3.721-.007,5.264-.007H11.5l-.071-.115,0-.006c-.04-.064-.07-.111-.1-.16a3.72,3.72,0,0,1-.487-1.618A3.684,3.684,0,0,1,12,12.491a3.75,3.75,0,0,1,1.474-.847,4.255,4.255,0,0,1,1.169-.135h0c.2,0,.408-.009.611-.029a2.324,2.324,0,0,0-.217-4.641c-1.251,0-2.518,0-3.636,0h-.882c-1.036,0-2.147,0-3.254,0ZM23.541,1.924h0A11.305,11.305,0,0,1,24.18,3.5a5.642,5.642,0,0,1,.266,1.632.512.512,0,0,0,.528.471.506.506,0,0,0,.238-.058c.8-.419,1.574-.845,2.4-1.3h0l.952-.521a18.416,18.416,0,0,0-5.02-1.8Z" transform="translate(0.111 21.132)" fill="#10069f" stroke="rgba(0,0,0,0)" stroke-width="1"/>
    <path id="Subtração_11" data-name="Subtração 11" d="M8.6,16.014c-2.06,0-4.156,0-6.229,0a2.583,2.583,0,0,1-.953-.175A2.178,2.178,0,0,1,.179,14.6,2.554,2.554,0,0,1,0,13.657C0,11.108,0,8.439,0,5.5a2.622,2.622,0,0,1,.175-.962A2.153,2.153,0,0,1,1.421,3.3a2.675,2.675,0,0,1,.968-.175l.49,0,.842,0c.453,0,.823,0,1.167.01h.023a.3.3,0,0,0,.224-.062.313.313,0,0,0,.05-.241c-.01-.172-.006-.347,0-.517h0c0-.189.007-.384-.007-.575A1.562,1.562,0,0,1,6.175,0h4.845a1.566,1.566,0,0,1,1,1.736c-.014.191-.011.386-.007.574h0c0,.17.007.345,0,.517a.312.312,0,0,0,.05.241.3.3,0,0,0,.225.062h.023c.344-.007.716-.01,1.17-.01l.839,0h.013l.478,0a2.674,2.674,0,0,1,.967.175,2.154,2.154,0,0,1,1.243,1.235,2.623,2.623,0,0,1,.175.963c0,2.952,0,5.62,0,8.159a2.555,2.555,0,0,1-.176.948,2.175,2.175,0,0,1-1.238,1.231,2.591,2.591,0,0,1-.954.175C12.754,16.013,10.658,16.014,8.6,16.014ZM8.579,14.45H12l2.79,0c.556,0,.838-.268.841-.8,0-.649,0-1.31,0-1.948v-.032c0-.8,0-1.62,0-2.431a.312.312,0,0,0-.045-.213A.127.127,0,0,0,15.5,9a.653.653,0,0,0-.141.021c-1.258.29-2.589.584-4.071.9-.225.048-.333.113-.38.375a2.406,2.406,0,0,1-.8,1.433,2.243,2.243,0,0,1-.689.4,2.381,2.381,0,0,1-.818.142h0a2.367,2.367,0,0,1-.816-.143,2.251,2.251,0,0,1-.689-.4,2.315,2.315,0,0,1-.513-.624,2.56,2.56,0,0,1-.288-.809c-.043-.237-.122-.324-.341-.37-1.568-.332-2.861-.618-4.07-.9A.73.73,0,0,0,1.721,9a.146.146,0,0,0-.11.036.367.367,0,0,0-.051.249c.008.978.007,1.972.006,2.934v.008c0,.407,0,.869,0,1.314a.956.956,0,0,0,.207.707.98.98,0,0,0,.715.2H8.579Zm.017-5.7c-.389,0-.585,0-.682.1s-.1.294-.1.685c0,.042,0,.086,0,.127h0c0,.1,0,.2,0,.3a.777.777,0,0,0,.76.739H8.6a.777.777,0,0,0,.779-.742c.008-.1.006-.2,0-.3,0-.039,0-.084,0-.127,0-.389,0-.585-.1-.682S8.987,8.753,8.6,8.753ZM4.7,4.687l-2.319,0c-.5,0-.8.258-.808.7-.01.358-.008.722-.007,1.074,0,.223,0,.454,0,.682,0,.141.025.224.168.255,1.142.247,2.3.5,3.415.744l1.088.237c0-.028.006-.053.008-.077h0c.005-.048.01-.089.011-.13a1.071,1.071,0,0,1,.233-.767,1.025,1.025,0,0,1,.759-.218H8.751l1.266,0c.628,0,.92.286.919.9a.349.349,0,0,0,.052.238.144.144,0,0,0,.108.036.642.642,0,0,0,.138-.019C12.708,8,14.063,7.7,15.378,7.425c.223-.047.261-.153.257-.343-.008-.33-.006-.664-.005-.987V6.083c0-.159,0-.323,0-.484,0-.673-.242-.911-.918-.912H4.7ZM9.214,3.124c.115,0,.244.012.368.023h0c.125.011.254.023.373.023a.6.6,0,0,0,.416-.11c.167-.152.137-.434.105-.733a2.461,2.461,0,0,1-.021-.462.31.31,0,0,0-.046-.245.278.278,0,0,0-.215-.064H10.16c-.191.007-.4.011-.652.011l-.455,0-.456,0-.456,0h0l-.454,0c-.253,0-.459,0-.65-.011H7a.276.276,0,0,0-.21.062.32.32,0,0,0-.051.248,7.286,7.286,0,0,1,0,.937.335.335,0,0,0,.054.261.307.307,0,0,0,.235.068h.029c.252-.007.529-.01.872-.01H9.214Z" transform="translate(11.408 0)" fill="#10069f" stroke="rgba(0,0,0,0)" stroke-width="1"/>
    <path id="Caminho_52" data-name="Caminho 52" d="M0,157.082a1.637,1.637,0,0,1,.661-.69.776.776,0,0,1,1.021.144.754.754,0,0,1-.056,1.055,1.467,1.467,0,0,1-.672.444c-.456.105-.716-.167-.954-.485Z" transform="translate(0 -139.972)" fill="#10069f"/>
    <path id="Caminho_53" data-name="Caminho 53" d="M367.763,157.55c-.531.673-1.126.669-1.685-.01a.776.776,0,0,1,.988-1.168,1.632,1.632,0,0,1,.7.71Z" transform="translate(-327.75 -139.971)" fill="#10069f"/>
    <path id="Caminho_54" data-name="Caminho 54" d="M33.15,131.779a.771.771,0,0,1,.822.492.7.7,0,0,1-.23.873,6.564,6.564,0,0,1-1,.591.7.7,0,0,1-.874-.22.675.675,0,0,1-.08-.865,2.8,2.8,0,0,1,1.361-.871" transform="translate(-28.365 -118.041)" fill="#10069f"/>
    <path id="Caminho_55" data-name="Caminho 55" d="M330.3,131.749a2.742,2.742,0,0,1,1.371.86.679.679,0,0,1-.084.9.706.706,0,0,1-.881.2,6.8,6.8,0,0,1-.966-.573.708.708,0,0,1-.249-.869.774.774,0,0,1,.809-.511" transform="translate(-295.096 -118.014)" fill="#10069f"/>
    <path id="Caminho_56" data-name="Caminho 56" d="M72.9,115.585a1.1,1.1,0,0,1-1.17.909.778.778,0,0,1-.737-.8c0-.587.62-.853,1.133-.9a.748.748,0,0,1,.774.793" transform="translate(-63.595 -102.822)" fill="#10069f"/>
    <path id="Caminho_57" data-name="Caminho 57" d="M296.43,115.7a.766.766,0,0,1-.746.786,1.1,1.1,0,0,1-1.159-.92.746.746,0,0,1,.785-.781c.561.07,1.133.338,1.12.915" transform="translate(-263.822 -102.813)" fill="#10069f"/>
    <path id="Caminho_58" data-name="Caminho 58" d="M132.03,211.454a.78.78,0,0,1-1.559-.021.78.78,0,1,1,1.559.021" transform="translate(-116.869 -188.699)" fill="#10069f"/>
  </g>
</svg>
