<svg id="Grupo_18" data-name="Grupo 18" xmlns="http://www.w3.org/2000/svg" xmlns:xlink="http://www.w3.org/1999/xlink" width="43.386" height="40" viewBox="0 0 43.386 40">
  <defs>
    <clipPath id="clip-path">
      <rect id="Retângulo_9" data-name="Retângulo 9" width="43.386" height="40" fill="#10069f"/>
    </clipPath>
  </defs>
  <g id="Grupo_18-2" data-name="Grupo 18" clip-path="url(#clip-path)">
    <path id="Subtração_19" data-name="Subtração 19" d="M25.8,40c-1.3,0-2.65-.005-4.114-.015a2.223,2.223,0,0,1-2.189-2.2c-.017-2.779-.017-5.515,0-8.133a2.168,2.168,0,0,1,.661-1.547,2.291,2.291,0,0,1,1.575-.65c.424-.006.863-.009,1.307-.009.506,0,1.02,0,1.574.011h.017a.306.306,0,0,0,.228-.061.322.322,0,0,0,.06-.24c-.013-1.022-.013-2.076,0-3.135a.243.243,0,0,0-.3-.3h0c-2.188,0-4.4.005-6.567.005s-4.381,0-6.567-.005h0a.329.329,0,0,0-.242.062.323.323,0,0,0-.059.24c.013,1.04.013,2.095,0,3.135a.324.324,0,0,0,.06.241.3.3,0,0,0,.226.061h.017c.411-.006.847-.009,1.373-.009.421,0,.86,0,1.213,0h.168a2.645,2.645,0,0,1,.96.176,2.155,2.155,0,0,1,1.236,1.233,2.617,2.617,0,0,1,.175.959c0,2.578,0,5.2,0,7.795a2.635,2.635,0,0,1-.174.961A2.155,2.155,0,0,1,15.2,39.816a2.608,2.608,0,0,1-.958.175c-1.256,0-2.544,0-3.828,0l-3.968,0a2.648,2.648,0,0,1-.963-.174,2.191,2.191,0,0,1-.751-.485,2.168,2.168,0,0,1-.489-.746,2.6,2.6,0,0,1-.175-.956c0-2.856,0-5.42,0-7.837a2.53,2.53,0,0,1,.176-.942,2.172,2.172,0,0,1,.487-.739,2.2,2.2,0,0,1,.744-.484,2.6,2.6,0,0,1,.947-.176h0l.316,0h.018c.335,0,.715,0,1.09,0,.507,0,.928,0,1.326.012H9.2a.316.316,0,0,0,.233-.063.372.372,0,0,0,.062-.268c-.016-1.134-.016-2.145,0-3.092a.348.348,0,0,0-.062-.256.32.32,0,0,0-.241-.063h-.03c-.368.007-.758.01-1.228.01-.358,0-.717,0-1.034,0H6.583a1.057,1.057,0,0,1-.765-.284.831.831,0,0,1,.056-1.18,1.074,1.074,0,0,1,.7-.229l.419,0H7c.288,0,.614,0,.936,0,.457,0,.832,0,1.18.011h.043a.358.358,0,0,0,.269-.07.385.385,0,0,0,.07-.285c-.021-1.082-.021-2.222,0-3.389a.36.36,0,0,0-.066-.267.385.385,0,0,0-.281-.069h-.01c-1.073,0-2.209.007-3.574.007H2.7a2.7,2.7,0,0,1-1.96-.743A2.705,2.705,0,0,1,0,15.256C0,11.344,0,7.243,0,2.717A2.712,2.712,0,0,1,.744.739,2.747,2.747,0,0,1,2.734,0h15.21a2.745,2.745,0,0,1,1.99.738,2.715,2.715,0,0,1,.743,1.979c0,4.291,0,8.51,0,12.539a2.55,2.55,0,0,1-2.7,2.705H14.982c-1.318,0-2.4,0-3.406-.009H11.56a.433.433,0,0,0-.312.076.41.41,0,0,0-.072.306c.025,1.053.025,2.15,0,3.261a.488.488,0,0,0,.078.353.463.463,0,0,0,.341.087H11.6c2.895-.009,5.765-.01,8.191-.01h5.663a1.223,1.223,0,0,1,.911.243,1.259,1.259,0,0,1,.24.922c0,.253,0,.514,0,.746v.31c0,.944,0,1.919-.008,2.884a.355.355,0,0,0,.063.263.31.31,0,0,0,.231.062h.031c.3-.007.622-.011,1.023-.011l.651,0h.1l.56,0a5.192,5.192,0,0,1,1.034.083,2.03,2.03,0,0,1,.741.294,1.983,1.983,0,0,1,.547.571,4.926,4.926,0,0,1,.452.915v8.9a.35.35,0,0,0-.129.237v0a.683.683,0,0,1-.04.13,2.5,2.5,0,0,1-.812,1.025,2.124,2.124,0,0,1-1.23.376C28.531,39.994,27.178,40,25.8,40ZM8.127,29.147h-1.6c-.572,0-.765.191-.766.753,0,2.752,0,5.259,0,7.662a.767.767,0,0,0,.167.569.789.789,0,0,0,.575.166h7.663a.794.794,0,0,0,.577-.165.762.762,0,0,0,.168-.567c0-2.329,0-4.836,0-7.662,0-.564-.193-.754-.764-.755H8.127Zm17.687,0-3.9,0a.763.763,0,0,0-.567.168.792.792,0,0,0-.165.576c0,2.542,0,5.12,0,7.662a.789.789,0,0,0,.165.575.765.765,0,0,0,.568.168l3.886,0h3.776c.563,0,.754-.194.754-.766,0-.9,0-1.794,0-2.663V34.82q0-.528,0-1.056,0-.554,0-1.108v-.036c0-.9,0-1.833,0-2.75a.756.756,0,0,0-.165-.554.732.732,0,0,0-.547-.167ZM7.3,16.268H17.939a1.1,1.1,0,0,0,.8-.24,1.042,1.042,0,0,0,.246-.778c0-4.056,0-8.156,0-12.535a1.045,1.045,0,0,0-.246-.779,1.093,1.093,0,0,0-.794-.241H2.738a1.068,1.068,0,0,0-.8.245,1.112,1.112,0,0,0-.241.814c0,4.13,0,8.319,0,12.45,0,.775.293,1.063,1.082,1.063H7.3Z" transform="translate(11.354 0)" fill="#10069f" stroke="rgba(0,0,0,0)" stroke-width="1"/>
    <path id="Subtração_17" data-name="Subtração 17" d="M6.81,17.966H2.463a2.5,2.5,0,0,1-1.492-.4,2.608,2.608,0,0,1-.893-1.286.176.176,0,0,0-.05-.062C.018,16.2.008,16.194,0,16.184V7.2c.032-.067.062-.135.092-.2h0A4.122,4.122,0,0,1,.3,6.572,2.192,2.192,0,0,1,2.25,5.428c.416-.007.858-.011,1.312-.011.489,0,1,0,1.567.012h.016a.3.3,0,0,0,.223-.061.329.329,0,0,0,.061-.245c-.01-1.207-.008-2.433-.006-3.618V1.018c0-.7.309-1.014,1-1.016L8.188,0l1.834,0a1.107,1.107,0,0,1,.729.23.782.782,0,0,1,.265.619.783.783,0,0,1-.268.616,1.119,1.119,0,0,1-.73.228H9.643l-.983,0c-.489,0-.891,0-1.267-.008H7.377a.282.282,0,0,0-.208.057.305.305,0,0,0-.056.226c.011,1.062.011,2.13,0,3.175a.3.3,0,0,0,.056.225.281.281,0,0,0,.21.057h.015c.437-.006.907-.009,1.439-.009.468,0,.928,0,1.356,0a2.585,2.585,0,0,1,.945.177,2.173,2.173,0,0,1,1.23,1.223,2.529,2.529,0,0,1,.176.941c.006,2.867.006,5.443,0,7.874a2.475,2.475,0,0,1-.177.928,2.189,2.189,0,0,1-1.223,1.219,2.494,2.494,0,0,1-.93.176C9.2,17.964,8.119,17.966,6.81,17.966ZM6.281,7.118H2.45c-.563,0-.754.193-.754.765,0,.9,0,1.812,0,2.691V10.8q0,.425,0,.85t0,.87v.231c0,.9,0,1.829,0,2.752,0,.572.191.765.754.765H6.281l3.831,0a.764.764,0,0,0,.568-.168.79.79,0,0,0,.166-.576c0-2.542,0-5.12,0-7.662a.79.79,0,0,0-.165-.576.766.766,0,0,0-.568-.168Z" transform="translate(0 22.029)" fill="#10069f" stroke="rgba(0,0,0,0)" stroke-width="1"/>
    <path id="Caminho_86" data-name="Caminho 86" d="M117.944,195.764a.85.85,0,0,1-.864.846.846.846,0,1,1,.042-1.692.848.848,0,0,1,.821.846" transform="translate(-103.115 -172.887)" fill="#10069f"/>
    <path id="Caminho_91" data-name="Caminho 91" d="M145.433,107.948q2.434,0,4.867,0c.636,0,1.034.341,1.021.866-.013.51-.4.827-1.019.827q-4.91,0-9.82,0c-.637,0-1.034-.341-1.021-.867.012-.511.4-.826,1.019-.826q2.476,0,4.952,0" transform="translate(-123.699 -95.747)" fill="#10069f"/>
    <path id="Caminho_92" data-name="Caminho 92" d="M143.5,71.962c1,0,2,0,3,0,.613,0,1,.328,1,.84s-.386.852-.992.853q-3.025,0-6.05,0c-.613,0-1-.328-1-.841s.385-.851.992-.852c1.015,0,2.031,0,3.046,0" transform="translate(-123.701 -63.828)" fill="#10069f"/>
    <path id="Caminho_93" data-name="Caminho 93" d="M206.064,37.644c-.465,0-.931.008-1.4,0a.846.846,0,1,1-.006-1.69q1.417-.014,2.835,0a.845.845,0,1,1,.006,1.688c-.479.012-.959,0-1.439,0" transform="translate(-180.748 -31.882)" fill="#10069f"/>
    <path id="Caminho_94" data-name="Caminho 94" d="M142.631,35.967c.452,0,.9-.006,1.355,0a.848.848,0,1,1,.005,1.691q-1.355.012-2.709,0a.848.848,0,1,1-.005-1.691c.451-.008.9,0,1.355,0" transform="translate(-124.496 -31.9)" fill="#10069f"/>
    <path id="Caminho_95" data-name="Caminho 95" d="M231.121,72.8a.846.846,0,1,1-.845-.826.857.857,0,0,1,.845.826" transform="translate(-203.498 -63.843)" fill="#10069f"/>
    <path id="Caminho_96" data-name="Caminho 96" d="M169.288,292.541c-.634,0-1.269,0-1.9,0a.85.85,0,1,1,0-1.691q1.945-.008,3.89,0a.85.85,0,1,1,0,1.691c-.662.006-1.325,0-1.987,0" transform="translate(-147.638 -257.972)" fill="#10069f"/>
    <path id="Caminho_97" data-name="Caminho 97" d="M305.807,290.853c.634,0,1.269,0,1.9,0a.852.852,0,1,1,0,1.692q-1.924.006-3.848,0a.852.852,0,1,1,0-1.692c.648,0,1.3,0,1.945,0" transform="translate(-268.669 -257.978)" fill="#10069f"/>
    <path id="Caminho_98" data-name="Caminho 98" d="M32.838,292.541c-.634,0-1.269,0-1.9,0a.85.85,0,1,1,0-1.691q1.945-.008,3.89,0a.85.85,0,1,1,0,1.691c-.663.006-1.325,0-1.988,0" transform="translate(-26.61 -257.972)" fill="#10069f"/>
  </g>
</svg>
