<svg xmlns="http://www.w3.org/2000/svg" width="1920" height="470" viewBox="0 0 1920 470">
  <g id="Grupo_158" data-name="Grupo 158" transform="translate(-4975 -3325)">
    <rect id="Retângulo_18" data-name="Retângulo 18" width="1920" height="350" transform="translate(4975 3325)" fill="#003474"/>
    <text id="Alameda_Juruá_641_CEP:_06455-010_Alphaville_Barueri_SP_Razão_Social:_Innovation_Flytour_Gapnet_Travel_Participações_Ltda_CNPJ:_00.168.403_0001-44" data-name="Alameda Juruá, 641, CEP: 06455-010, Alphaville – Barueri/SP
Razão Social: Innovation Flytour Gapnet Travel Participações Ltda
CNPJ: 00.168.403/0001-44" transform="translate(5335 3405)" fill="#fff" font-size="16" font-family="Montserrat-Regular, Montserrat"><tspan x="0" y="15">Alameda Juruá, 641, CEP: 06455-010, Alphaville – Barueri/SP</tspan><tspan x="0" y="45">Razão Social: Innovation Flytour Gapnet Travel Participações Ltda</tspan><tspan x="0" y="75">CNPJ: 00.168.403/0001-44</tspan></text>
    <text id="Pra_empresas_Para_agências_Franquias_Blog_Contato" data-name="Pra empresas
Para agências
Franquias
Blog 
Contato" transform="translate(6114 3405)" fill="#fff" font-size="16" font-family="Montserrat-Regular, Montserrat"><tspan x="0" y="15">Pra empresas</tspan><tspan x="0" y="50">Para agências</tspan><tspan x="0" y="85">Franquias</tspan><tspan x="0" y="120">Blog </tspan><tspan x="0" y="155">Contato</tspan></text>
    <text id="Politica_de_privacidade_Termos_de_Uso" data-name="Politica de privacidade
Termos de Uso" transform="translate(6350 3405)" fill="#fff" font-size="16" font-family="Montserrat-Regular, Montserrat"><tspan x="0" y="15">Politica de privacidade</tspan><tspan x="0" y="50">Termos de Uso</tspan></text>
    <rect id="Retângulo_102" data-name="Retângulo 102" width="1920" height="120" transform="translate(4975 3675)" fill="#041e42"/>
    <g id="Grupo_156" data-name="Grupo 156" transform="translate(-1310 1214)">
      <g id="Grupo_154" data-name="Grupo 154" transform="translate(7186 2529.678)">
        <path id="Caminho_238" data-name="Caminho 238" d="M251.736,331.212a9.609,9.609,0,0,1-3.587,1.9c-2.671.766-5.527.56-8.295.557h-.408a6.826,6.826,0,0,1-5.691-3.144c-.2-.3.042-.657.44-.657l10.549.012c.687,0,1.074-.681.65-1.148h0a.879.879,0,0,0-.649-.273l-11.346-.013a6.825,6.825,0,0,1-5.691-3.144c-.2-.3.042-.657.44-.657l11.861.013c.687,0,1.074-.681.65-1.148h0a.878.878,0,0,0-.649-.273l-12.658-.014a6.826,6.826,0,0,1-5.691-3.144c-.2-.3.049-.657.44-.657l13.173.015c.687,0,1.074-.681.65-1.148h0a.878.878,0,0,0-.649-.273L221.307,318a6.826,6.826,0,0,1-5.691-3.144c-.2-.3.049-.657.44-.657l24.723,0a24.705,24.705,0,0,1,7.081.734c5.748,1.635,7.365,7.124,6.712,11.34A8.152,8.152,0,0,1,251.736,331.212Z" transform="translate(-215.546 -314.202)" fill="#f68d2e"/>
      </g>
      <g id="Grupo_155" data-name="Grupo 155" transform="translate(7235.07 2529.615)">
        <path id="Caminho_239" data-name="Caminho 239" d="M1382.351,332.544l-.132-1.24a.514.514,0,0,0-.552-.458c-.117.008-.241.013-.369.013-1.37,0-1.817-.831-1.817-2.464V313.99a.533.533,0,0,0-.613-.527l-1.944.3a.533.533,0,0,0-.453.527v14.137c0,3.045,1.282,4.787,4.231,4.787a8.6,8.6,0,0,0,1.215-.1.514.514,0,0,0,.432-.563" transform="translate(-1327.47 -313.457)" fill="#fff"/>
        <path id="Caminho_240" data-name="Caminho 240" d="M1472.982,377.27h-1.389a.794.794,0,0,0-.787.705,26.915,26.915,0,0,1-3.382,10.586,24.344,24.344,0,0,1-4-10.6.793.793,0,0,0-.785-.695h-1.429a.793.793,0,0,0-.785.9,25.739,25.739,0,0,0,5.423,12.546,7.739,7.739,0,0,1-4.379,3.126.791.791,0,0,0-.558.923l.183.865a.793.793,0,0,0,.976.6c2.621-.7,4.969-2.373,7.024-5.711a33.276,33.276,0,0,0,4.674-12.348.792.792,0,0,0-.783-.908" transform="translate(-1404.321 -371.879)" fill="#fff"/>
        <path id="Caminho_241" data-name="Caminho 241" d="M1187.807,316.609h12.261a.72.72,0,0,1,.72.72v1.239a.72.72,0,0,1-.72.72H1190.1v5.326h7.98a.72.72,0,0,1,.72.72v1.156a.72.72,0,0,1-.72.72h-7.98v7.759a.72.72,0,0,1-.72.72h-1.576a.72.72,0,0,1-.72-.72v-17.64a.72.72,0,0,1,.72-.72" transform="translate(-1154.084 -316.343)" fill="#fff"/>
        <path id="Caminho_242" data-name="Caminho 242" d="M796.415,334.682V317.475a.816.816,0,0,1,.816-.816h4.583c4.666,0,7.777,1.39,7.777,4.879a4.349,4.349,0,0,1-2.524,4.143,4.659,4.659,0,0,1,3.287,4.607c0,3.925-3.081,5.452-7.835,5.452h-5.046c-.718,0-1.057-.265-1.057-1.058m2.993-9.737h3.7c2.406,0,3.4-1.063,3.4-3.026,0-2.235-1.966-2.808-4.666-2.808h-2.436Zm0,8.341h2.905c3.052,0,4.989-.6,4.989-3.026,0-2.153-1.5-3.107-4.284-3.107h-3.61Z" transform="translate(-796.415 -316.388)" fill="#fff"/>
        <path id="Caminho_243" data-name="Caminho 243" d="M1004.557,390.381a.678.678,0,0,1-.436.784,13.167,13.167,0,0,1-4.409.717c-4.594,0-7.629-2.6-7.629-7.139,0-4.187,2.687-7.113,6.906-7.113a5.677,5.677,0,0,1,6.068,5.959c0,.285-.01.553-.025.8a1.062,1.062,0,0,1-1.062.994h-8.882c.289,2.872,2.052,4.187,4.883,4.187a11.538,11.538,0,0,0,3.526-.584.672.672,0,0,1,.859.5Zm-9.439-6.739h7.079a2.141,2.141,0,0,0,.029-.43,3.073,3.073,0,0,0-3.237-3.355c-2.254,0-3.612,1.476-3.872,3.785" transform="translate(-975.554 -372.209)" fill="#fff"/>
      </g>
    </g>
    <text id="Uma_empresa_do_ecossistema" data-name="Uma empresa do ecossistema" transform="translate(5775 3702)" fill="#fff" font-size="21" font-family="AmpleSoftPro-Regular, AmpleSoft Pro"><tspan x="-133" y="21">Uma empresa do ecossistema</tspan></text>
    <g id="Grupo_157" data-name="Grupo 157" transform="translate(30 44)">
      <g id="Instagram" transform="translate(5353.588 3466)">
        <path id="Shape" d="M9.351,18c-2.506,0-2.841-.01-3.856-.056a7.164,7.164,0,0,1-2.27-.417,4.615,4.615,0,0,1-1.656-1.039A4.4,4.4,0,0,1,.491,14.895a6.438,6.438,0,0,1-.434-2.185C.011,11.744,0,11.423,0,9S.011,6.255.056,5.289A6.391,6.391,0,0,1,.491,3.1,4.4,4.4,0,0,1,1.57,1.511,4.591,4.591,0,0,1,3.226.473,7.144,7.144,0,0,1,5.5.055C6.5.01,6.837,0,9.351,0S12.2.01,13.205.055a7.161,7.161,0,0,1,2.272.419,4.583,4.583,0,0,1,1.656,1.037,4.4,4.4,0,0,1,1.079,1.595,6.492,6.492,0,0,1,.434,2.184c.046.966.056,1.286.056,3.711s-.011,2.744-.056,3.709a6.5,6.5,0,0,1-.434,2.185,4.4,4.4,0,0,1-1.079,1.594,4.6,4.6,0,0,1-1.656,1.039,7.149,7.149,0,0,1-2.27.417C12.191,17.99,11.856,18,9.351,18ZM8.514,1.62c-1.75,0-2.076.012-2.94.05a5.356,5.356,0,0,0-1.737.31,2.914,2.914,0,0,0-1.074.674,2.777,2.777,0,0,0-.7,1.035A4.825,4.825,0,0,0,1.74,5.36C1.7,6.29,1.687,6.571,1.687,9S1.7,11.7,1.74,12.633a4.807,4.807,0,0,0,.321,1.67,2.782,2.782,0,0,0,.7,1.034,2.914,2.914,0,0,0,1.074.674,5.354,5.354,0,0,0,1.737.31c1,.043,1.3.053,3.779.053s2.774-.009,3.779-.053a5.347,5.347,0,0,0,1.737-.31,2.926,2.926,0,0,0,1.074-.673,2.778,2.778,0,0,0,.7-1.034,4.792,4.792,0,0,0,.323-1.67c.044-.957.054-1.243.054-3.636s-.009-2.678-.054-3.635a4.787,4.787,0,0,0-.323-1.671,2.779,2.779,0,0,0-.7-1.035,2.907,2.907,0,0,0-1.074-.672,5.292,5.292,0,0,0-1.737-.31c-1-.043-1.3-.053-3.779-.053H8.514Zm.839,12A4.72,4.72,0,0,1,4.549,9a4.72,4.72,0,0,1,4.8-4.622A4.72,4.72,0,0,1,14.155,9,4.72,4.72,0,0,1,9.353,13.621ZM9.353,6A3.064,3.064,0,0,0,6.235,9a3.064,3.064,0,0,0,3.118,3,3.064,3.064,0,0,0,3.117-3A3.063,3.063,0,0,0,9.353,6Zm4.992-.725A1.1,1.1,0,0,1,13.222,4.2a1.123,1.123,0,0,1,2.245,0A1.1,1.1,0,0,1,14.345,5.275Z" transform="translate(0 0)" fill="#fff"/>
      </g>
      <g id="Youtube" transform="translate(5305 3466)">
        <path id="Subtração_4" data-name="Subtração 4" d="M13.013,18c-.081,0-8.162-.006-10.168-.537a3.237,3.237,0,0,1-2.3-2.274A33.2,33.2,0,0,1,0,9,33.175,33.175,0,0,1,.544,2.811,3.236,3.236,0,0,1,2.845.537C4.85.006,12.932,0,13.013,0s8.161.006,10.166.537a3.243,3.243,0,0,1,2.3,2.274A33.189,33.189,0,0,1,26.024,9a33.219,33.219,0,0,1-.545,6.19,3.243,3.243,0,0,1-2.3,2.274C21.174,17.994,13.094,18,13.013,18ZM10.573,5.478V13.3l6.506-3.913L10.573,5.478Z" transform="translate(0 0)" fill="#fff"/>
      </g>
      <g id="Facebook" transform="translate(5401.217 3466)">
        <path id="Shape-2" data-name="Shape" d="M5.8,18V9H8.385l.342-3.1H5.8l0-1.552c0-.809.08-1.242,1.287-1.242H8.709V0H6.127c-3.1,0-4.194,1.5-4.194,4.035V5.9H0V9H1.933v9Z" transform="translate(0 0)" fill="#fff"/>
      </g>
    </g>
    <text id="Flytour_2022_Todos_direitos_reservados" data-name="Flytour © 2022 – Todos direitos reservados" transform="translate(5335 3575)" fill="#fff" font-size="16" font-family="Montserrat-Regular, Montserrat"><tspan x="0" y="15">Flytour © 2022 – Todos direitos reservados</tspan></text>
  </g>
</svg>
