<svg id="Grupo_12" data-name="Grupo 12" xmlns="http://www.w3.org/2000/svg" xmlns:xlink="http://www.w3.org/1999/xlink" width="39.999" height="40" viewBox="0 0 39.999 40">
  <defs>
    <clipPath id="clip-path">
      <rect id="Retângulo_4" data-name="Retângulo 4" width="39.999" height="40" fill="#10069f"/>
    </clipPath>
  </defs>
  <g id="Grupo_11" data-name="Grupo 11" clip-path="url(#clip-path)">
    <path id="Subtração_10" data-name="Subtração 10" d="M17.926,40h-.39a.965.965,0,0,1-.422-.319,1.43,1.43,0,0,1-.225-.492c-1.156-4.2-2.345-8.472-3.494-12.6l0-.014,0-.01-.008-.028-.038-.136a1.568,1.568,0,0,1-.074-.514.759.759,0,0,1,.753-.694,1.84,1.84,0,0,1,.479.083l3.344.927.019.005.038.01h.006c2.089.578,4.25,1.176,6.381,1.775a.809.809,0,0,0,.214.038c.136,0,.219-.07.327-.278.2-.391.152-.6-.206-.839a13.1,13.1,0,0,1-1.075-.822h0l-.22-.18a1.791,1.791,0,0,0-1.175-.408h-.476L21,25.5h-.019l-.666,0c-.382,0-.7,0-.986.007h-.057a2.569,2.569,0,0,1-1.734-.634c-.244-.208-.5-.407-.746-.6h0l-.006,0c-.164-.128-.333-.26-.5-.393a2.33,2.33,0,0,1-.8-1.128,2.45,2.45,0,0,1,.024-1.383l.007-.025.006-.02,0-.009c.047-.167.1-.34.159-.5a.886.886,0,0,0-.186-.969,2.2,2.2,0,0,1,.113-3.1c.441-.462.918-.939,1.546-1.545.087-.084.123-.142.123-.2s-.035-.116-.117-.2c-.6-.584-1.182-1.17-1.823-1.821a.938.938,0,0,0-.682-.305c-.029,0-.059,0-.088,0-.094.008-.188.013-.279.013h0a2.58,2.58,0,0,1-1.15-.261,3.064,3.064,0,0,1-.948-.753c-.119-.136-.252-.265-.38-.389l0,0a3.977,3.977,0,0,1-.572-.638,2.988,2.988,0,0,1-.521-1.469,3.13,3.13,0,0,1,.317-1.529c.5-1.063,1.011-2.16,1.464-3.128l0-.009.842-1.8c.032-.069.064-.141.094-.211l0-.006.016-.037,0-.007.031-.07a19.538,19.538,0,0,0-5.466-.807,18.477,18.477,0,0,0-6.492,1.2c-.057.021-.117.046-.165.066a3.063,3.063,0,0,1-.308.114A.984.984,0,0,1,.789,3,.832.832,0,0,1,.34,2.876a.715.715,0,0,1-.285-.347.774.774,0,0,1,.009-.595A.817.817,0,0,1,.52,1.51,19.943,19.943,0,0,1,2.427.837,22.992,22.992,0,0,1,5.358.211,20.363,20.363,0,0,1,8.254,0a19.083,19.083,0,0,1,2.269.135,18.79,18.79,0,0,1,2.241.409,19.308,19.308,0,0,1,2.211.689,20.635,20.635,0,0,1,2.178.975,22.812,22.812,0,0,1,1.977,1.152,20.739,20.739,0,0,1,1.785,1.306,19.416,19.416,0,0,1,1.593,1.459,18.811,18.811,0,0,1,1.4,1.611A18.923,18.923,0,0,1,25.119,9.5a19.755,19.755,0,0,1,1.019,1.91,21.3,21.3,0,0,1,.827,2.057c.243.706.457,1.447.636,2.2a16.158,16.158,0,0,1,.4,2.775c0,.01,0,.02,0,.03,0,.053,0,.107.07.13v.234a1.959,1.959,0,0,0,0,.859v.7a1.958,1.958,0,0,0,0,.859v.312c-.028.255-.05.509-.072.754v0a13.525,13.525,0,0,1-.243,1.819A22.124,22.124,0,0,1,26.527,28c-.1.229-.137.337-.1.411s.163.113.381.172c.182.048.393.105.6.165a1,1,0,0,1,.452.247.789.789,0,0,1,.217.465v.39a.734.734,0,0,1-.22.425,1.632,1.632,0,0,1-.4.266c-.631.323-1.266.654-1.879.974l-.006,0-.02.01h0c-.9.471-1.836.958-2.77,1.426-.166.083-.33.174-.489.262h0c-.112.062-.24.133-.365.2a1.035,1.035,0,0,0-.431.431c-.352.624-.679,1.27-1,1.895v0c-.163.322-.347.686-.533,1.041-.124.237-.253.481-.367.7l-.014.026v0c-.323.609-.656,1.24-.966,1.871a1.535,1.535,0,0,1-.263.4A.74.74,0,0,1,17.926,40ZM15.156,27.079h0L16.689,32.6l.39,1.408.855,3.082.509-.985.009-.018,0,0c.491-.951.954-1.848,1.437-2.751a.362.362,0,0,0-.093-.52c-.514-.5-1.058-1.039-1.714-1.709a1.017,1.017,0,0,1-.315-.612.776.776,0,0,1,.743-.806.98.98,0,0,1,.673.317c.545.532,1.09,1.082,1.617,1.614l.151.152c.072.072.133.134.221.134a.3.3,0,0,0,.137-.04c.959-.507,1.908-1,2.913-1.522l.042-.022.9-.469-5.635-1.562-4.377-1.214Zm6.919-3.138a3.75,3.75,0,0,1,1.228.2,3.432,3.432,0,0,1,1.083.619c.265.222.536.428.824.646h0l0,0c.127.1.259.2.391.3a17.8,17.8,0,0,0,.837-4.176,18.124,18.124,0,0,0-1.635-9.218,18.438,18.438,0,0,0-9.6-9.3.418.418,0,0,0-.156-.045c-.068,0-.118.044-.166.147-.387.835-.784,1.679-1.167,2.5v0l0,0-.009.018,0,0-.006.013c-.417.888-.848,1.806-1.267,2.711a1.35,1.35,0,0,0,.281,1.614c.081.086.169.169.246.243h0a4.541,4.541,0,0,1,.381.394,1.292,1.292,0,0,0,1.068.507c.042,0,.085,0,.128,0s.113-.006.169-.006a2.3,2.3,0,0,1,.966.208,2.761,2.761,0,0,1,.82.593c.482.494.973.982,1.448,1.454l0,0h0c.268.267.6.6.921.919a1.035,1.035,0,0,1,.378.7,1.043,1.043,0,0,1-.38.7c-.346.349-.7.7-1.038,1.04l-.032.031-.009.008h0l-.036.036c-.294.294-.6.6-.9.9-.459.461-.474.752-.062,1.243a2.279,2.279,0,0,1,.5,1,2.383,2.383,0,0,1-.052,1.116c-.049.179-.1.356-.155.528h0l0,.008-.027.091,0,.007a1.062,1.062,0,0,0-.066.581.958.958,0,0,0,.364.435c.146.117.3.236.43.34h0c.25.2.509.4.757.609a1.132,1.132,0,0,0,.77.271h.016c.2,0,.409,0,.658,0h1.167c.336,0,.612,0,.869-.005Z" transform="translate(11.922 0)" fill="#10069f" stroke="rgba(0,0,0,0)" stroke-width="1"/>
    <path id="Caminho_30" data-name="Caminho 30" d="M18.641,191.4a9.251,9.251,0,0,0-1.438-.216,19.706,19.706,0,0,1-15.608-12.3A19.146,19.146,0,0,1,.311,168.755c.086-.683.484-1.046.993-.908a.766.766,0,0,1,.577.856c-.024.4-.087.8-.113,1.2A18.232,18.232,0,0,0,7.9,185.184c.216.2.285.247.448-.082a9.555,9.555,0,0,0,1-5.276c-.025-.258,0-.521-.005-.781a1.347,1.347,0,0,0-1.314-1.377A3.584,3.584,0,0,1,5.4,176.344a2.083,2.083,0,0,1-.424-2.216.506.506,0,0,1,.044-.108,4.89,4.89,0,0,0,.667-2.591,2.417,2.417,0,0,1,2.407-2.346c2.016-.044,4.034-.021,6.051-.013a.784.784,0,0,1,.825.8.8.8,0,0,1-.88.751c-1.887.006-3.774,0-5.661,0-.83,0-1.244.383-1.215,1.2a4.539,4.539,0,0,1-.642,2.564c-.3.5-.222.723.2,1.119a2.2,2.2,0,0,0,1.391.6,2.912,2.912,0,0,1,2.746,2.987c.014,1.041,0,2.082,0,3.123a3.565,3.565,0,0,1-.284,1.325c-.351.879-.69,1.763-1.049,2.639a.275.275,0,0,0,.122.4,18.642,18.642,0,0,0,6.914,2.906.308.308,0,0,0,.357-.139q1.106-1.438,2.235-2.857a.625.625,0,0,0,.142-.425c-.006-.677.008-1.354-.007-2.03a1.161,1.161,0,0,1,.362-.908q1-.985,1.988-1.987a1.065,1.065,0,0,1,.752-.359c.494-.009.99-.021,1.483,0a.776.776,0,0,1,.287,1.506,2.445,2.445,0,0,1-.932.04,1.082,1.082,0,0,0-.983.4c-.441.494-1.1.878-1.336,1.446a4.686,4.686,0,0,0-.047,1.931,1.8,1.8,0,0,1-.453,1.318c-.614.737-1.19,1.506-1.817,2.306a13.428,13.428,0,0,0,1.7.08,19,19,0,0,0,5.886-1.035,1.33,1.33,0,0,1,.607-.116.78.78,0,0,1,.091,1.527c-.681.212-1.352.453-2.05.614a20.706,20.706,0,0,1-3.23.505c-.054,0-.1.012-.117.073H19.812a1.948,1.948,0,0,0-.859,0Z" transform="translate(-0.116 -151.399)" fill="#10069f"/>
    <path id="Caminho_31" data-name="Caminho 31" d="M407.931,193.4a1,1,0,0,1,0-.859Z" transform="translate(-367.932 -173.706)" fill="#10069f"/>
    <path id="Caminho_32" data-name="Caminho 32" d="M407.958,209.365a1.032,1.032,0,0,1,0-.859Z" transform="translate(-367.959 -188.106)" fill="#10069f"/>
    <path id="Subtração_8" data-name="Subtração 8" d="M6.446,16.4a1,1,0,0,1-.742-.472c-.4-.509-.8-1.026-1.2-1.526l-.014-.018c-1.039-1.324-2.113-2.692-3.147-4.057A6.715,6.715,0,0,1,.336,8.434,6.256,6.256,0,0,1,0,6.408,6.151,6.151,0,0,1,.343,4.388a6.466,6.466,0,0,1,1.029-1.87A6.8,6.8,0,0,1,3.581.639,5.8,5.8,0,0,1,6.267,0,7.291,7.291,0,0,1,7.732.155,7.034,7.034,0,0,1,9.474.749a5.84,5.84,0,0,1,1.4.981,6.692,6.692,0,0,1,1.774,3.053A6.054,6.054,0,0,1,12.368,8.9c-.022.053-.041.108-.065.177v0c-.013.036-.027.078-.043.125.354,0,.707,0,1.049,0l1.016,0c.5,0,.911,0,1.294-.01H15.7a3.755,3.755,0,0,1,.8.083,3.065,3.065,0,0,1,.716.252,3.033,3.033,0,0,1,.631.425,3.662,3.662,0,0,1,.547.6c.274.375.565.747.847,1.106l0,.006c.119.152.242.309.362.464a1.066,1.066,0,0,1,.232.484.719.719,0,0,1-.125.519.748.748,0,0,1-.627.36.846.846,0,0,1-.656-.343c-.484-.6-.913-1.155-1.311-1.7a1.61,1.61,0,0,0-1.4-.7h-.037c-.558.008-1.157.012-1.829.012-.787,0-1.58-.006-2.346-.011H11.5a.537.537,0,0,0-.476.237C9.95,12.392,8.85,13.8,7.785,15.165l0,0-.591.757A1.009,1.009,0,0,1,6.446,16.4ZM6.454,1.542l-.241.027H6.207c-.173.019-.352.038-.527.062A4.732,4.732,0,0,0,2,4.488a4.692,4.692,0,0,0,.4,4.6c.762,1.088,1.6,2.145,2.412,3.167.484.609.984,1.24,1.463,1.87.07.092.123.133.173.133s.106-.051.183-.15c1.1-1.421,2.261-2.91,3.548-4.553a5.016,5.016,0,0,0,1.132-3.2A4.907,4.907,0,0,0,6.454,1.542Z" transform="translate(0 0.026)" fill="#10069f" stroke="rgba(0,0,0,0)" stroke-width="1"/>
    <path id="Caminho_34" data-name="Caminho 34" d="M81.354,153.456c-.673,0-1.053-.413-.909-.98.1-.387.412-.583.933-.582s.848.212.939.583c.14.57-.266.982-.962.978" transform="translate(-72.548 -137.033)" fill="#10069f"/>
    <path id="Caminho_35" data-name="Caminho 35" d="M117.3,153.41c-.724,0-1.117-.42-.956-1a.746.746,0,0,1,.714-.556c.422-.04.845-.025,1.084.413a.725.725,0,0,1-.072.836.84.84,0,0,1-.77.3" transform="translate(-104.928 -136.988)" fill="#10069f"/>
    <path id="Caminho_36" data-name="Caminho 36" d="M153.156,153.481a.9.9,0,0,1-.688-.2.766.766,0,0,1,.258-1.291,1.51,1.51,0,0,1,.457-.064c.594-.006.955.291.958.775s-.343.781-.985.784" transform="translate(-137.322 -137.058)" fill="#10069f"/>
    <path id="Caminho_37" data-name="Caminho 37" d="M190.942,187.6c-.005.579-.286.92-.764.928s-.793-.344-.8-.936q-.007-.818.6-.959c.582-.136.972.255.966.967" transform="translate(-170.852 -168.352)" fill="#10069f"/>
    <path id="Caminho_38" data-name="Caminho 38" d="M190.942,223.506c0,.6-.3.944-.794.936-.474-.008-.761-.355-.768-.927q-.01-.82.588-.967c.58-.142.979.25.974.958" transform="translate(-170.852 -200.749)" fill="#10069f"/>
    <path id="Caminho_39" data-name="Caminho 39" d="M197.169,253.048q-.872,0-.959-.686a.756.756,0,0,1,.469-.8,1.178,1.178,0,0,1,1.288.248.77.77,0,0,1,0,.934.857.857,0,0,1-.8.308" transform="translate(-177.008 -226.868)" fill="#10069f"/>
    <path id="Caminho_40" data-name="Caminho 40" d="M233.053,253.128c-.685,0-1.063-.391-.932-.962a.73.73,0,0,1,.687-.585,1,1,0,0,1,1.1.378.728.728,0,0,1-.057.869.872.872,0,0,1-.8.3" transform="translate(-209.388 -226.948)" fill="#10069f"/>
    <path id="Caminho_41" data-name="Caminho 41" d="M189.744,152.791c.005.558-.3.911-.785.912a1.046,1.046,0,0,1-.907-1,.847.847,0,1,1,1.692.089" transform="translate(-169.654 -137.038)" fill="#10069f"/>
    <path id="Caminho_42" data-name="Caminho 42" d="M8.842,139.925a.77.77,0,1,1,.746.782.754.754,0,0,1-.746-.782" transform="translate(-7.977 -125.524)" fill="#10069f"/>
    <path id="Caminho_46" data-name="Caminho 46" d="M327.36,107.578c0,.221.011.442,0,.663a.76.76,0,0,1-1.511.111c-.121-.588-.061-1.19-.129-1.785a14.661,14.661,0,0,0-2.623-6.9c-.142-.2-.3-.4-.431-.6a.78.78,0,1,1,1.263-.906,15.881,15.881,0,0,1,1.434,2.176,16.328,16.328,0,0,1,2,7.248" transform="translate(-290.936 -88.207)" fill="#10069f"/>
    <path id="Caminho_47" data-name="Caminho 47" d="M305.066,78.323a.8.8,0,0,1,.748.792.813.813,0,0,1-.793.758.8.8,0,0,1-.759-.826.757.757,0,0,1,.8-.724" transform="translate(-274.493 -70.659)" fill="#10069f"/>
    <path id="Subtração_7" data-name="Subtração 7" d="M2.957,5.923h0a2.841,2.841,0,0,1-1.143-.241,3.073,3.073,0,0,1-1.585-1.6A2.818,2.818,0,0,1,0,2.946,2.975,2.975,0,0,1,2.958,0h.017A2.926,2.926,0,0,1,5.048.854a2.957,2.957,0,0,1,.877,2.074A2.894,2.894,0,0,1,5.7,4.078a3.008,3.008,0,0,1-1.572,1.6,2.927,2.927,0,0,1-1.156.245Zm.009-4.361H2.955A1.407,1.407,0,0,0,1.561,2.951a1.386,1.386,0,0,0,.414.989,1.409,1.409,0,0,0,.989.421h.019a1.387,1.387,0,0,0,.985-.424,1.408,1.408,0,0,0,.4-1.014,1.383,1.383,0,0,0-1.4-1.36Z" transform="translate(3.478 3.59)" fill="#10069f" stroke="rgba(0,0,0,0)" stroke-width="1"/>
  </g>
</svg>
