<svg id="Grupo_52" data-name="Grupo 52" xmlns="http://www.w3.org/2000/svg" xmlns:xlink="http://www.w3.org/1999/xlink" width="40" height="36.501" viewBox="0 0 40 36.501">
  <defs>
    <clipPath id="clip-path">
      <rect id="Retângulo_24" data-name="Retângulo 24" width="40" height="36.501" fill="#10069f"/>
    </clipPath>
  </defs>
  <g id="Grupo_52-2" data-name="Grupo 52" clip-path="url(#clip-path)">
    <path id="Subtração_49" data-name="Subtração 49" d="M-3198.072,52.035l-.948,0-.948,0h-31.11a3.993,3.993,0,0,1-.426-.018A2.645,2.645,0,0,1-3234,49.877V17.689a2.7,2.7,0,0,1,2.92-2.152l17.077,0,17.077,0a2.9,2.9,0,0,1,2.547,1.18,2.382,2.382,0,0,1,.355,1.01l0,.012c.007.036.013.072.021.108V49.8a2.66,2.66,0,0,1-2.807,2.228C-3197.181,52.032-3197.583,52.035-3198.072,52.035Zm-33.953-29.015a.474.474,0,0,0-.338.082.458.458,0,0,0-.083.337c.01,6.953.009,14.025.009,20.865v4.754c0,.9.374,1.268,1.29,1.268h34.288c.933,0,1.3-.364,1.3-1.3V45.44c0-7.2,0-14.647.008-21.994,0-.326-.057-.428-.414-.428h-.005c-3.967.008-7.851.009-11.457.009h-12.561c-3.817,0-7.916,0-12.028-.008Zm.789-5.781h-.065a1.053,1.053,0,0,0-1.135,1.148c0,.292,0,.589,0,.877v.049c0,.578.006,1.176-.012,1.767a.418.418,0,0,0,.072.311c.065.067.174.08.34.08,4.027-.007,7.99-.008,11.673-.008h23.353l.36,0,.36,0c.19,0,.346,0,.49.007h.028a.222.222,0,0,0,.166-.047.258.258,0,0,0,.049-.191c0-.439,0-.873,0-1.354v-.04c0-.516,0-1.049-.007-1.573a1,1,0,0,0-.906-1,2.505,2.505,0,0,0-.365-.019h-34.4Z" transform="translate(3234 -15.534)" fill="#10069f" stroke="rgba(0,0,0,0)" stroke-width="1"/>
    <path id="Subtração_51" data-name="Subtração 51" d="M-3221.191,29.419h-11.773a2.8,2.8,0,0,1-.371-.018.761.761,0,0,1-.663-.706.762.762,0,0,1,.56-.793,1.237,1.237,0,0,1,.269-.042c.582-.032.582-.032.582-.6V25.347q0-1.914,0-3.828c0-.716.278-1,.986-1,.576,0,1.161,0,1.739,0s1.162,0,1.738,0c.707,0,.982.285.982,1.005v1.155c0,1.581,0,3.215-.008,4.821a.405.405,0,0,0,.072.3.293.293,0,0,0,.22.065l.073,0c.21-.013.422-.02.63-.02s.416.007.619.02l.076,0a.305.305,0,0,0,.23-.068.429.429,0,0,0,.078-.313c-.009-2.841-.009-5.731-.008-8.526V16.7c0-.023,0-.047,0-.07V16.6c0-.081,0-.165,0-.248a.771.771,0,0,1,.814-.808c.619-.005,1.238-.008,1.84-.008.668,0,1.337,0,1.988.01a.764.764,0,0,1,.8.818c.008.24.006.485,0,.722V17.1q0,.16,0,.32v2.256c0,2.559,0,5.206-.006,7.821a.453.453,0,0,0,.073.318.237.237,0,0,0,.176.057.745.745,0,0,0,.1-.008,1.666,1.666,0,0,1,.236-.014c.074,0,.149,0,.222.006l.128,0a.8.8,0,0,1,.871.8.781.781,0,0,1-.859.762C-3219.474,29.417-3220.221,29.419-3221.191,29.419Zm-2.108-12.327a.313.313,0,0,0-.234.067.382.382,0,0,0-.07.281c.01,1.253.008,2.52.007,3.745v.4q0,.422,0,.845,0,.571,0,1.142c0,1.285,0,2.614-.007,3.93a.406.406,0,0,0,.07.291.3.3,0,0,0,.225.066h.041c.252-.01.516-.015.806-.015.269,0,.558,0,.91.013h.025a.264.264,0,0,0,.2-.056.315.315,0,0,0,.059-.232c0-2.772-.008-6.435,0-10.182a.325.325,0,0,0-.062-.238.294.294,0,0,0-.219-.059h-.031c-.33.009-.618.013-.88.013-.285,0-.546,0-.8-.014Zm-7.463,4.984a.277.277,0,0,0-.208.06.337.337,0,0,0-.061.252c.01.618.008,1.24.007,1.842q0,.348,0,.7t0,.709c0,.624,0,1.27-.005,1.908,0,.127.007.211.058.262a.268.268,0,0,0,.2.058h.032c.262-.009.534-.014.833-.014.277,0,.571,0,.924.012h.022a.272.272,0,0,0,.2-.058.311.311,0,0,0,.06-.231c-.009-1.961-.009-3.612,0-5.195a.324.324,0,0,0-.063-.239.3.3,0,0,0-.222-.061h-.03c-.315.007-.6.011-.884.011s-.568,0-.834-.012Z" transform="translate(3237.985 -2.471)" fill="#10069f" stroke="rgba(0,0,0,0)" stroke-width="1"/>
    <path id="Subtração_50" data-name="Subtração 50" d="M-3227.99,27.562h-.031a5.969,5.969,0,0,1-4.248-1.779A6.009,6.009,0,0,1-3234,21.5a6.015,6.015,0,0,1,6.01-5.969h.027a5.973,5.973,0,0,1,4.247,1.789,5.987,5.987,0,0,1,1.744,4.278A6.027,6.027,0,0,1-3227.99,27.562Zm-.943-10.359a.676.676,0,0,0-.19.036,4.308,4.308,0,0,0-3.25,3.606,4.182,4.182,0,0,0,1.872,4.365,4.333,4.333,0,0,0,2.47.814,4.822,4.822,0,0,0,2.313-.642c.127-.069.182-.121.19-.179s-.032-.126-.135-.227c-.475-.464-.958-.948-1.385-1.376s-.9-.9-1.356-1.348a1.126,1.126,0,0,1-.369-.9c.013-.427.01-.861.008-1.281v-.012c0-.18,0-.361,0-.541s0-.386,0-.58v-.012c0-.459-.008-.933.01-1.4a.4.4,0,0,0-.056-.285A.154.154,0,0,0-3228.932,17.2Zm1.728-.007h0c0,1.311,0,2.585,0,3.859a.359.359,0,0,0,.1.281c.767.772,1.547,1.562,2.3,2.325l.021.021.422.427a4.392,4.392,0,0,0,.438-4.327A4.217,4.217,0,0,0-3227.2,17.2Z" transform="translate(3257.502 -5.078)" fill="#10069f" stroke="rgba(0,0,0,0)" stroke-width="1"/>
    <path id="Caminho_293" data-name="Caminho 293" d="M87,285.875H99.767c.117,0,.234,0,.352,0a.787.787,0,0,1,.827.756.8.8,0,0,1-.793.8c-.1.009-.208,0-.312,0h-25.7a1.772,1.772,0,0,1-.58-.053.768.768,0,0,1-.53-.814.756.756,0,0,1,.686-.685,4.268,4.268,0,0,1,.429-.01H87" transform="translate(-65.417 -256.084)" fill="#10069f"/>
    <path id="Caminho_294" data-name="Caminho 294" d="M231.53,245.151c-1.691,0-3.382,0-5.073,0-.565,0-.891-.279-.908-.744a.747.747,0,0,1,.611-.787,1.692,1.692,0,0,1,.348-.028q5.053,0,10.106,0c.641,0,1.039.387.945.9a.787.787,0,0,1-.879.655c-1.392.006-2.783,0-4.175,0h-.975" transform="translate(-202.044 -218.204)" fill="#10069f"/>
    <path id="Caminho_295" data-name="Caminho 295" d="M39.04,285.943a.787.787,0,0,1,.781.792.779.779,0,0,1-1.558-.043.763.763,0,0,1,.776-.749" transform="translate(-34.276 -256.145)" fill="#10069f"/>
    <path id="Caminho_296" data-name="Caminho 296" d="M61.491,31.458a.768.768,0,0,1-.767-.76.807.807,0,0,1,.79-.792.79.79,0,0,1,.767.771.775.775,0,0,1-.789.78" transform="translate(-54.396 -26.79)" fill="#10069f"/>
    <path id="Caminho_297" data-name="Caminho 297" d="M90.843,31.553a.8.8,0,0,1-.785-.8.782.782,0,0,1,.8-.737.769.769,0,0,1-.018,1.538" transform="translate(-80.672 -26.887)" fill="#10069f"/>
    <path id="Caminho_298" data-name="Caminho 298" d="M32.15,30.644a.783.783,0,0,1,.776-.767.777.777,0,1,1-.031,1.554.76.76,0,0,1-.745-.787" transform="translate(-28.799 -26.763)" fill="#10069f"/>
  </g>
</svg>
