<svg id="Grupo_55" data-name="Grupo 55" xmlns="http://www.w3.org/2000/svg" xmlns:xlink="http://www.w3.org/1999/xlink" width="48.401" height="50" viewBox="0 0 48.401 50">
  <defs>
    <clipPath id="clip-path">
      <rect id="Retângulo_16" data-name="Retângulo 16" width="48.401" height="50" fill="#10069f"/>
    </clipPath>
  </defs>
  <g id="Grupo_28" data-name="Grupo 28" clip-path="url(#clip-path)">
    <path id="Subtração_33" data-name="Subtração 33" d="M37.48,41.243H3.6c-.041-.119-.14-.133-.236-.148a.66.66,0,0,1-.09-.018A4.591,4.591,0,0,1,.92,39.5,4.535,4.535,0,0,1,0,36.836c0-.065,0-.131,0-.2v-6.78c0-8.249,0-16.779,0-25.2A5.323,5.323,0,0,1,.216,3.135,4.471,4.471,0,0,1,.833,1.849a4.224,4.224,0,0,1,.979-1A4.6,4.6,0,0,1,3.115.2,4.744,4.744,0,0,1,4.606,0h15.77a1.278,1.278,0,0,1,.954.274,1.306,1.306,0,0,1,.273.963v.295c0,1.712.007,3.482-.006,5.223,0,.306.082.413.374.478a4.126,4.126,0,0,1,2.344,1.4,3.892,3.892,0,0,1,.863,2.52,3.816,3.816,0,0,1-.894,2.47,4.185,4.185,0,0,1-2.347,1.37c-.259.056-.342.157-.339.414.016,1.445.016,2.706,0,3.857a.421.421,0,0,0,.08.312.436.436,0,0,0,.326.084h.014c.892-.006,1.846-.009,3-.009l2.352,0h.407a1.009,1.009,0,0,1,1.136,1.361c-.008.045-.016.091-.024.136a2.746,2.746,0,0,0-.02,1.31,2.05,2.05,0,0,0,1.911,1.5,1.815,1.815,0,0,0,.368-.038,2.021,2.021,0,0,0,1.622-2.305c-.02-.132-.049-.265-.076-.394h0c-.026-.121-.052-.246-.072-.369a1.052,1.052,0,0,1,.21-.863.962.962,0,0,1,.745-.327c1.05-.006,2.121-.009,3.277-.009,1.064,0,2.18,0,3.412.008a.989.989,0,0,1,.71.267,1.012,1.012,0,0,1,.278.718c.022,1.108.022,2.274,0,3.466a1.078,1.078,0,0,1-.289.74.945.945,0,0,1-.684.283h-.039a.917.917,0,0,1-.666-.3,1.12,1.12,0,0,1-.264-.745c-.012-.736-.012-1.459,0-2.148a.358.358,0,0,0-.066-.271A.328.328,0,0,0,39,21.6h-.01c-.618.006-1.35.012-2.1.012-.673,0-1.279,0-1.852-.015h-.016a.32.32,0,0,0-.243.072.326.326,0,0,0-.04.256,1.079,1.079,0,0,1,.006.118,3.913,3.913,0,0,1-.34,1.506A4.007,4.007,0,0,1,32.3,25.6a3.9,3.9,0,0,1-1.512.3h-.022a3.83,3.83,0,0,1-1.483-.308,4.039,4.039,0,0,1-2.09-2.039,3.8,3.8,0,0,1-.34-1.482.546.546,0,0,0-.11-.4.514.514,0,0,0-.361-.089h-.047c-.838.014-1.536.021-2.2.021-.717,0-1.372-.008-2-.025h-.048a.522.522,0,0,0-.389.108.645.645,0,0,0-.105.463c.019,1.253.015,2.522.011,3.75,0,.318,0,.629,0,.937a1.44,1.44,0,0,1-.242.951,1.016,1.016,0,0,1-.826.284c-.085,0-.178,0-.278-.012-.061-.005-.122-.008-.183-.008a2,2,0,0,0-2.036,1.9,1.986,1.986,0,0,0,2.035,2.107h.069c.061,0,.124-.006.184-.011h.011c.074-.006.145-.009.212-.009a1.015,1.015,0,0,1,.8.279,1.328,1.328,0,0,1,.25.9c0,1.188,0,2.4,0,3.564v.033c0,.527,0,1,0,1.481,0,.988,0,.988.977.988H36.545a2.512,2.512,0,0,0,2.765-2.744c0-.3,0-.613,0-.912V35.6c0-.49,0-1,0-1.494.007-.661.354-1.066.93-1.084h.038a.946.946,0,0,1,.689.266,1.085,1.085,0,0,1,.287.792c0,.321,0,.647.01.962a17.441,17.441,0,0,1-.068,2.4,4.08,4.08,0,0,1-.388,1.3,4.509,4.509,0,0,1-1.847,1.947,4.13,4.13,0,0,1-1.281.46.478.478,0,0,1-.053.005c-.06,0-.121.008-.149.085ZM15.274,39.289c1.093,0,2.534,0,3.985.009h.01a.425.425,0,0,0,.313-.081.431.431,0,0,0,.078-.318c-.018-1.511-.018-3.021,0-4.49,0-.3-.087-.405-.388-.471a4.076,4.076,0,0,1-2.316-1.382,3.882,3.882,0,0,1-.869-2.5,4.009,4.009,0,0,1,.231-1.349,3.791,3.791,0,0,1,.65-1.143,4.074,4.074,0,0,1,2.323-1.373c.254-.054.374-.134.369-.44-.019-1.276-.019-2.54,0-3.757a.427.427,0,0,0-.078-.318.413.413,0,0,0-.307-.081h-.019c-.677.007-1.412.011-2.248.011-.737,0-1.487,0-2.192-.006a1.019,1.019,0,0,1-1.159-1.036A1.958,1.958,0,0,0,11.7,18.758h-.035a2,2,0,0,0-2,1.724,1.38,1.38,0,0,1-.37.895,1.412,1.412,0,0,1-.951.225l-1.358,0H6.959l-1.652,0c-1.165,0-2.064,0-2.914-.013H2.374a.46.46,0,0,0-.339.089.524.524,0,0,0-.089.373c.008,3.046.008,6.143.008,9.138V31.4c0,1.72,0,3.5,0,5.246A2.49,2.49,0,0,0,4.62,39.29l2.869,0h7.784ZM17.665,19.64c.563,0,1.062.007,1.525.02h.044a.445.445,0,0,0,.332-.094.561.561,0,0,0,.093-.4c-.015-1.514-.016-3.143,0-4.98a1.2,1.2,0,0,1,.263-.828.978.978,0,0,1,.751-.277,2.032,2.032,0,0,1,.232.014,2.372,2.372,0,0,0,.271.016,2.009,2.009,0,0,0,1.5-3.4,2.077,2.077,0,0,0-1.5-.6c-.046,0-.092,0-.138,0-.085,0-.165.007-.238.007a1.12,1.12,0,0,1-.892-.279,1.445,1.445,0,0,1-.246-.982q0-.585,0-1.2c0-1.384-.007-2.815.013-4.222a.536.536,0,0,0-.1-.4.534.534,0,0,0-.4-.1h-.02c-1.065.008-2.208.012-3.707.012H9.589l-2.124,0c-1.149,0-2.09,0-2.961.007A2.453,2.453,0,0,0,1.957,4.513c0,2.281,0,4.6,0,6.844v.02c0,2.571,0,5.23-.007,7.881a.436.436,0,0,0,.083.318.423.423,0,0,0,.315.081H2.36c.817-.007,1.661-.01,2.51-.01s1.728,0,2.616.01H7.5a.434.434,0,0,0,.481-.327A3.87,3.87,0,0,1,11.665,16.8h.011a3.924,3.924,0,0,1,2.214.666,3.806,3.806,0,0,1,.842.787,4.223,4.223,0,0,1,.6,1.054.461.461,0,0,0,.514.342h.021C16.424,19.648,17.05,19.64,17.665,19.64Z" transform="translate(0 8.756)" fill="#10069f" stroke="rgba(0,0,0,0)" stroke-width="1"/>
    <path id="Subtração_34" data-name="Subtração 34" d="M11.147,25.9A3.943,3.943,0,0,1,7.2,22.091c-.013-.457-.166-.5-.511-.5H6.648c-.756.007-1.58.011-2.595.011l-1.672,0-1.152,0a1.272,1.272,0,0,1-.951-.275,1.312,1.312,0,0,1-.273-.964c0-1.929,0-3.839,0-5.956A1.545,1.545,0,0,1,.247,13.38a1.106,1.106,0,0,1,.9-.284c.074,0,.156,0,.243.007.047,0,.095,0,.141,0a1.974,1.974,0,0,0,1.985-1.488A2.013,2.013,0,0,0,1.577,9.108a1.968,1.968,0,0,0-.292.022A1.9,1.9,0,0,1,1,9.152a.939.939,0,0,1-.737-.287,1.234,1.234,0,0,1-.259-.838c0-1,0-2.024,0-3.01V4.97c0-1.254,0-2.551-.006-3.826A1.14,1.14,0,0,1,.73,0H17.818a.3.3,0,0,0,.3.127h.039A.56.56,0,0,1,18.3.141a4.383,4.383,0,0,1,2.4,1.614,4.735,4.735,0,0,1,.905,2.85c0,3.366,0,6.79,0,10.1v.049c0,1.267,0,2.7,0,4.105q0,.231,0,.463c0,.343,0,.7,0,1.051,0,.878-.342,1.22-1.2,1.221l-.8,0-1.688,0c-.948,0-1.724,0-2.441-.011h-.017c-.3,0-.377.083-.38.4a3.953,3.953,0,0,1-1.137,2.753A3.9,3.9,0,0,1,11.219,25.9ZM5.372,19.637c.956,0,1.916,0,2.812.007A1.14,1.14,0,0,1,9.1,20a1.163,1.163,0,0,1,.175.982c-.009.048-.019.1-.028.145l0,.014c-.033.167-.067.34-.09.513a1.994,1.994,0,0,0,1.978,2.3,2.022,2.022,0,0,0,1.966-1.569,2.772,2.772,0,0,0-.047-1.156l0-.01c-.011-.061-.023-.124-.033-.186a1.249,1.249,0,0,1,.168-1.05,1.234,1.234,0,0,1,.994-.343h.7l1.829,0c.968,0,1.763,0,2.5.012h.027a.354.354,0,0,0,.439-.444c-.01-3.208-.01-6.469-.01-9.623V9.358c0-1.555,0-3.164,0-4.744a2.491,2.491,0,0,0-2.648-2.66l-2.835,0H6.63c-1.251,0-2.737,0-4.262,0-.032,0-.066,0-.1-.005s-.065-.005-.1-.005A.207.207,0,0,0,2.015,2a.323.323,0,0,0-.064.235c.015,1.436.01,2.891.005,4.3v.338c0,.2.041.306.281.358A4.291,4.291,0,0,1,4.625,8.6a3.8,3.8,0,0,1,.9,2.475A3.885,3.885,0,0,1,4.654,13.6a4.2,4.2,0,0,1-2.378,1.4c-.276.061-.324.161-.322.41v.09c.009,1.2.019,2.445-.006,3.668a.512.512,0,0,0,.09.381.492.492,0,0,0,.365.1h.022C3.318,19.641,4.282,19.637,5.372,19.637Z" transform="translate(26.79 0)" fill="#10069f" stroke="rgba(0,0,0,0)" stroke-width="1"/>
    <path id="Caminho_158" data-name="Caminho 158" d="M301.826,283.549a.943.943,0,0,1,.99-.962.977.977,0,0,1,.951.968,1.012,1.012,0,0,1-1,.977.974.974,0,0,1-.936-.982" transform="translate(-262.51 -245.777)" fill="#10069f"/>
  </g>
</svg>
