<svg xmlns="http://www.w3.org/2000/svg" xmlns:xlink="http://www.w3.org/1999/xlink" width="50" height="48.551" viewBox="0 0 50 48.551">
  <defs>
    <clipPath id="clip-path">
      <rect id="Retângulo_25" data-name="Retângulo 25" width="50" height="48.551" fill="#10069f"/>
    </clipPath>
  </defs>
  <g id="Grupo_53" data-name="Grupo 53" transform="translate(0 -0.001)">
    <g id="Grupo_53-2" data-name="Grupo 53" transform="translate(0 0.001)" clip-path="url(#clip-path)">
      <path id="Subtração_56" data-name="Subtração 56" d="M28.892,48.551a20.01,20.01,0,0,1-7.112-1.313,21.106,21.106,0,0,1-3.235-1.555,21.5,21.5,0,0,1-5.469-4.615,21.266,21.266,0,0,1-2.091-2.945,20.483,20.483,0,0,1-2.537-6.874,23.76,23.76,0,0,0-1.4-4.481h0v0l0,0v0c-.286-.738-.582-1.5-.835-2.273-.059-.181-.2-.231-.342-.284h0l-.053-.02h0l-1.279-.494-.021-.008-.086-.033-.009,0h0l-.054-.021h0C3.225,23.181,2.063,22.731.9,22.3a1.5,1.5,0,0,1-.9-.752v-.586a28.472,28.472,0,0,1,2.089-2.176h0l.007-.007,0,0,0,0,.017-.017c.273-.265.555-.538.835-.82a.809.809,0,0,1,.613-.233,2.812,2.812,0,0,1,.449.048c.6.1,1.226.21,1.92.341a2.538,2.538,0,0,0,.468.046,1.83,1.83,0,0,0,1.426-.66c1.553-1.735,3.361-3.753,5.162-5.73.092-.1.131-.181.122-.245s-.092-.123-.176-.171h0c-.028-.016-.06-.035-.09-.055L6.552,6.9,4,5.121l-.051-.035-.015-.011,0,0h0l0,0h0c-.083-.057-.186-.129-.277-.2a1.061,1.061,0,0,1-.415-.74.944.944,0,0,1,.289-.71C4.3,2.6,5.105,1.8,5.931.993A.855.855,0,0,1,6.554.735a1.636,1.636,0,0,1,.559.116c2.154.783,4.134,1.5,6.7,2.428l.037.014.449.162.33.119.111.04.088.032.235.085.061.022.269.1.775.279.017.006.116.042.045.016.045.016h0l.044.016c.666.239,1.42.51,2.153.787a.669.669,0,0,0,.234.051.45.45,0,0,0,.344-.192c.756-.862,1.526-1.714,2.271-2.538h0l.007-.007.006-.007.007-.007.035-.039.106-.118.24-.265A5.493,5.493,0,0,1,26.089,0c.115,0,.238,0,.365.01.353.018.718.028,1.01.037H27.5l.089,0h.123l.154,0h0A2.609,2.609,0,0,1,29.628.8a2.521,2.521,0,0,1,.744,1.743c.007.258.022.537.034.741v.023a7.412,7.412,0,0,1-.132,2.442c-.051.183-.105.359-.167.554l-.005.016,0,.009-.009.028,0,.015-.017.055-.011.036-.007.021-.016.052-.043.137a21.939,21.939,0,0,1,3.121.406,25.262,25.262,0,0,1,2.539.706A22.581,22.581,0,0,1,38,8.721a20.783,20.783,0,0,1,2.166,1.171,19.933,19.933,0,0,1,3.776,3.035,21.021,21.021,0,0,1,1.61,1.862A24.274,24.274,0,0,1,48.225,19.2a17.292,17.292,0,0,1,1.22,3.639,1.26,1.26,0,0,1-.131.96.866.866,0,0,1-.555.39,1.183,1.183,0,0,1-.25.028c-.473,0-.812-.33-.956-.929A19.41,19.41,0,0,0,43.085,14.8a1.262,1.262,0,0,0-1.022-.492H42.01c-.519.015-1.073.022-1.741.022l-.906,0h-.134c-.263,0-.655,0-1.028,0H37.86a1.285,1.285,0,0,0-1.435,1.447c0,.246,0,.5,0,.781a1.29,1.29,0,0,0,1.382,1.462,3.892,3.892,0,0,1,2.281.881,3.843,3.843,0,0,1,1.273,2.076l0,.008v0l0,.006v0l0,.011,0,.009v0h0a.44.44,0,0,1,.02.1l.006.14a32.252,32.252,0,0,1-.057,5.318,4.933,4.933,0,0,1-.562,1.75A6.429,6.429,0,0,1,39.662,29.8l-.559.561-.55.552-.009.009-.012.012-.005.005-.021.021h0l-.02.02c-1.27,1.274-2.709,2.718-4.108,4.1a2.143,2.143,0,0,0-.7,1.691c.03.836.017,1.7.006,2.465v.006l0,.116a1.793,1.793,0,0,0,.551,1.358l.129.129.135.135.062.061.125.124.108.107.149.149.007.007,0,0h0l0,0,.01.01c.891.887,1.811,1.8,2.713,2.731a.407.407,0,0,0,.287.155.6.6,0,0,0,.285-.105A19.179,19.179,0,0,0,47.556,31.91c.01-.038.02-.081.03-.126v-.008h0c.017-.075.037-.16.063-.242a1.076,1.076,0,0,1,.363-.525.921.921,0,0,1,.564-.194.936.936,0,0,1,.2.023.979.979,0,0,1,.594.386.955.955,0,0,1,.155.707,12.085,12.085,0,0,1-.721,2.625,27.284,27.284,0,0,1-1.25,2.735,23.7,23.7,0,0,1-1.487,2.454,20.961,20.961,0,0,1-1.726,2.168,19.671,19.671,0,0,1-1.964,1.877,19.319,19.319,0,0,1-2.2,1.581,20.076,20.076,0,0,1-2.445,1.28,22.087,22.087,0,0,1-2.687.974,25.289,25.289,0,0,1-2.93.663A19.764,19.764,0,0,1,28.892,48.551ZM23.357,30.176h0a2.667,2.667,0,0,1,1.856.81c.653.642,1.311,1.3,1.891,1.889l.008.008a3.03,3.03,0,0,1,.631.907,2.445,2.445,0,0,1,.213.981,2.416,2.416,0,0,1-.205.979,2.964,2.964,0,0,1-.624.9l-.189.191c-.917.924-1.866,1.88-2.817,2.808a1.146,1.146,0,0,0-.369.9c.014,1.663.013,3.305,0,4.881,0,.324.09.447.4.527a19.518,19.518,0,0,0,4.889.636,19.142,19.142,0,0,0,5.457-.807l.2-.059.013,0,.006,0,.007,0h0a5.091,5.091,0,0,0,1.268-.495l-.746-.745-.252-.252-2.108-2.1a3.967,3.967,0,0,1-.875-1.276,3.792,3.792,0,0,1-.281-1.524c.013-.869.022-1.721,0-2.587A3.935,3.935,0,0,1,33,33.7c.825-.811,1.653-1.642,2.453-2.446l.012-.012.009-.009L35.5,31.2l0,0c.852-.855,1.732-1.739,2.608-2.6a4.368,4.368,0,0,0,1.39-3.358c-.013-.675-.01-1.36-.007-2.022v-.054c0-.36,0-.731,0-1.1a1.858,1.858,0,0,0-1.947-2.112,3.4,3.4,0,0,1-2.034-.831,3.132,3.132,0,0,1-1.008-1.9,6.85,6.85,0,0,1-.041-1.138v-.029c0-.1,0-.224,0-.343a3.679,3.679,0,0,1,.246-1.35,3.046,3.046,0,0,1,1.745-1.741,3.743,3.743,0,0,1,1.357-.25l.943,0h1.6a18.983,18.983,0,0,0-11.1-3.761c-.146,0-.291,0-.433.006a.805.805,0,0,0-.563.225h0l0,0c-.808.74-1.725,1.579-2.65,2.372a.567.567,0,0,0-.173.738c.6,1.722,1.177,3.418,1.739,5.057h0l.042.124c.637,1.857,1.3,3.778,1.953,5.672a1.336,1.336,0,0,1-.366,1.618c-.45.406-.882.848-1.3,1.275h0l0,0-.008.008c-.163.166-.365.374-.561.569a1.489,1.489,0,0,1-.979.554c-.33,0-.642-.233-.983-.734L23.93,24.557l-.07-.1,0-.007c-1.534-2.252-3.12-4.581-4.679-6.891-.092-.137-.168-.222-.26-.222-.068,0-.146.045-.266.154-1.687,1.534-3.485,3.153-5.659,5.094a1.911,1.911,0,0,0-.639,1.928c.079.4.145.805.209,1.2v0c.044.269.094.574.146.867a1.174,1.174,0,0,1-.034.6,1.248,1.248,0,0,1-.333.5c-.161.155-.316.32-.466.479l-.009.009h0a7.391,7.391,0,0,1-.882.841,1.7,1.7,0,0,0-.645,1.976l.058.241,0,.017,0,.011h0a21.665,21.665,0,0,0,1,3.354c.187-.188.373-.372.533-.53l.012-.012h0c.4-.4.775-.768,1.143-1.16a2.782,2.782,0,0,1,2.138-.9h.043l.316,0c.329,0,.664,0,.987-.01h.07c.33-.005.671-.01,1.008-.01.552,0,1,.014,1.424.045.1.007.2.011.295.011a2.773,2.773,0,0,0,2.206-1.036,2.534,2.534,0,0,1,.837-.625A2.262,2.262,0,0,1,23.357,30.176Zm-8.04,3.78a1.187,1.187,0,0,0-.922.4c-.613.644-1.229,1.258-1.829,1.826a.468.468,0,0,0-.109.691,19.085,19.085,0,0,0,4.4,5.291,18.51,18.51,0,0,0,4.946,3c0-.432,0-.864,0-1.281v-.16c0-1.126,0-2.19,0-3.271a2.76,2.76,0,0,1,.862-2.094c.892-.868,1.781-1.765,2.642-2.632l.086-.087.345-.348a.774.774,0,0,0,.28-.5.723.723,0,0,0-.263-.5c-.384-.391-.78-.784-1.162-1.165l-.009-.009c-.225-.224-.479-.477-.725-.724a.684.684,0,0,0-.471-.239.661.661,0,0,0-.458.23c-.081.082-.165.163-.246.242-.148.144-.3.293-.443.447a2.713,2.713,0,0,1-2.106.9h-.065c-.482-.008-.995-.012-1.662-.012H16.534c-.462,0-.842,0-1.2-.005h-.02ZM4,19.747a.281.281,0,0,0-.206.083c-.242.23-.484.449-.741.682l-.018.017-.017.015,0,0-.085.077-.172.156L2.74,20.8l-.08.073c.4.153.785.3,1.145.445l.033.013.1.038.005,0,.007,0,.005,0,.008,0,.029.011c.985.384,1.915.747,2.866,1.092a1.641,1.641,0,0,1,1.089,1.069c.358.994.741,1.968,1.11,2.909l0,0v0l0,.005.009.022.007.019.007.019.023.058c.112.287.266.679.41,1.051,1.072-.662,1.384-1.433.98-2.425a.641.641,0,0,1-.034-.176v0h0a.894.894,0,0,0-.015-.1,3.9,3.9,0,0,1,1.411-3.957c1.745-1.541,3.523-3.146,5.092-4.561l0,0h0l.032-.029.023-.02.1-.089.088-.08.007-.007.248-.224.1-.092,1.5-1.347,2.227-2,.111-.1.192-.172.029-.026.033-.03.226-.2c1.626-1.463,3.47-3.121,5.278-4.74a3.7,3.7,0,0,0,1.32-2.473,9.854,9.854,0,0,0-.021-1.608v0h0v0c-.016-.235-.029-.429-.037-.626-.013-.309-.239-.5-.6-.514-.133,0-.263-.008-.43-.012h-.03c-.234,0-.556-.011-.857-.034-.116-.01-.238-.014-.362-.014a3.81,3.81,0,0,0-2.969,1.386c-2.037,2.286-4.171,4.656-5.885,6.56l-.013.015-.027.029,0,0-.083.092L15.5,11.863l-.4.443L13.96,13.575l-.34.377-.3.334-.7.783-.088.1-.2.226L9.292,18.766a4.1,4.1,0,0,1-1.3.992,3.581,3.581,0,0,1-1.528.33,4.646,4.646,0,0,1-.816-.076c-.253-.046-.5-.086-.747-.125H4.891l-.016,0h0l-.047-.007H4.8c-.2-.031-.427-.068-.647-.107h-.01A.868.868,0,0,0,4,19.747Zm19.718-6.8-.71.64-.125.113,0,0-.008.007c-.741.67-1.441,1.3-2.173,1.936-.259.224-.242.357-.063.618,1.1,1.608,2.217,3.247,3.2,4.694l.013.019.074.11.044.064.178.262.035.052.262.386.129.19.943,1.387c.134.2.278.388.417.574l0,0h0l0,.007h0v0l.008.011,0,0,.018.024.009.012c.052.07.107.142.159.214.08-.076.16-.153.233-.225l0,0h0a6.6,6.6,0,0,1,.547-.5c.3-.23.287-.456.169-.792-.478-1.355-.945-2.729-1.4-4.058l0-.011-.006-.018,0-.012c-.181-.532-.39-1.149-.592-1.738-.312-.911-.625-1.818-.927-2.694l-.014-.042,0-.012-.074-.216-.084-.242-.135-.39-.116-.336ZM14.26,9.882a.321.321,0,0,0,.2.12.269.269,0,0,0,.19-.113c.653-.738,1.314-1.473,1.954-2.183l.046-.051.006-.007.038-.043.009-.01.015-.017.747-.83a.4.4,0,0,0-.279-.179h0c-.027-.007-.053-.015-.079-.024-.887-.323-1.82-.656-2.569-.924L14.475,5.6l-.014,0-.088-.032h-.006l-.007,0h0l-.014,0h0C12.31,4.824,10.207,4.072,8.16,3.274A2.968,2.968,0,0,0,7.1,3.026a1.423,1.423,0,0,0-1.3.962l.323.226.013.009.677.473.062.043.017.012.1.066.044.031.077.054.055.038.036.025.568.395.128.089.011.008.017.012.082.057.169.118.048.033C10.168,7.03,12.18,8.429,14.177,9.81a.677.677,0,0,1,.082.071h0Z" transform="translate(0 0)" fill="#10069f" stroke="rgba(0,0,0,0)" stroke-width="1"/>
      <path id="Caminho_304" data-name="Caminho 304" d="M370.851,205.705c-.208.306-.409.618-.821.68a.985.985,0,0,1-1.071-.649.963.963,0,0,1,.407-1.138.925.925,0,0,1,1.2.151,4.457,4.457,0,0,1,.289.371Z" transform="translate(-320.851 -177.814)" fill="#10069f"/>
    </g>
  </g>
</svg>
