<svg id="Grupo_45" data-name="Grupo 45" xmlns="http://www.w3.org/2000/svg" xmlns:xlink="http://www.w3.org/1999/xlink" width="58.161" height="50" viewBox="0 0 58.161 50">
  <defs>
    <clipPath id="clip-path">
      <rect id="Retângulo_19" data-name="Retângulo 19" width="58.161" height="50" fill="#10069f"/>
    </clipPath>
  </defs>
  <g id="Grupo_34" data-name="Grupo 34" clip-path="url(#clip-path)">
    <path id="Subtração_41" data-name="Subtração 41" d="M51.208,50H7.22a4.9,4.9,0,0,1-1.63-.252A3.038,3.038,0,0,1,3.659,47.8a4.988,4.988,0,0,1-.251-1.64v-.542q0-.661,0-1.322v-.132c0-2.4,0-4.872.005-7.317,0-.313-.017-.467-.421-.523a3.457,3.457,0,0,1-1.728-.71A3.559,3.559,0,0,1,.189,34.071a.567.567,0,0,1-.023-.093c-.018-.1-.038-.2-.166-.223V29.892c.127-.028.146-.126.164-.22a.559.559,0,0,1,.025-.1A3.4,3.4,0,0,1,3.556,27.28l2.676,0H10.8a6.475,6.475,0,0,1-.5-1.5,4.483,4.483,0,0,1-.052-1.427,4,4,0,0,1,.427-1.339,5,5,0,0,1,.937-1.236,4.8,4.8,0,0,1,1.458-1,4,4,0,0,1,1.588-.324,5.663,5.663,0,0,1,2.384.589c0-.388,0-.77,0-1.194,0-1.251,0-2.433.006-3.654,0-.231-.089-.255-.294-.288a3.7,3.7,0,0,1-2.317-1.186,3.712,3.712,0,0,1-.8-2.475c0-.187,0-.346,0-.485V11.71c0-.477,0-.969,0-1.455a3.47,3.47,0,0,1,1-2.43,3.417,3.417,0,0,1,2.428-.99c1.354,0,2.794-.007,4.534-.007h6.932a4.688,4.688,0,0,1,.52-5.259,4.488,4.488,0,0,1,1.982-1.3A4.7,4.7,0,0,1,32.559,0a4.443,4.443,0,0,1,3,1.233c.142.127.239.2.341.2a.511.511,0,0,0,.322-.18A4.628,4.628,0,0,1,37.682.322,4.428,4.428,0,0,1,39.31.013a4.5,4.5,0,0,1,2.641.862,4.567,4.567,0,0,1,1.1,1.12,4.458,4.458,0,0,1,.635,1.379,4.516,4.516,0,0,1,.139,1.519,4.737,4.737,0,0,1-.389,1.541l-.073.165-.013.029-.017.038-.039.088-.034.077h11.17a4.921,4.921,0,0,1,1.3.155,3.024,3.024,0,0,1,1.017.481,3.085,3.085,0,0,1,.769.831,5.149,5.149,0,0,1,.555,1.207c.005.017.031.027.055.037a.3.3,0,0,1,.034.015v3.749c-.128.028-.148.127-.167.223h0a.581.581,0,0,1-.023.091A3.556,3.556,0,0,1,56.9,15.17a3.448,3.448,0,0,1-1.729.709c-.4.055-.421.209-.42.524,0,1.5,0,3.061,0,4.44v.035c0,1.388,0,2.961,0,4.5a1.587,1.587,0,0,1-.14.717,1.085,1.085,0,0,1-.517.5,1.127,1.127,0,0,1-.5.122,1.054,1.054,0,0,1-.778-.346,1.32,1.32,0,0,1-.335-.9c-.008-1.128-.006-2.265,0-3.364v-.036c0-.508,0-.966,0-1.427,0-.388,0-.8,0-1.1v-.064c0-.976-.008-1.985.014-2.981a.665.665,0,0,0-.1-.478.611.611,0,0,0-.452-.117h-.011c-2.424.012-4.831.017-7.155.017-2.42,0-4.827-.006-7.155-.019H37.6a.635.635,0,0,0-.47.122.7.7,0,0,0-.11.5c.022,1.235.018,2.488.013,3.7v.109c0,.37,0,.7,0,1.017a1.564,1.564,0,0,1-.308,1,1.028,1.028,0,0,1-.822.371h-.029a1.04,1.04,0,0,1-.812-.376,1.546,1.546,0,0,1-.3-.988c0-.34,0-.695,0-1v-.012c0-1.307-.007-2.659.011-3.989a.5.5,0,0,0-.09-.367.5.5,0,0,0-.371-.094H34.3c-2.412.006-4.845.009-7.231.009-2.472,0-4.93,0-7.306-.01h-.006a.369.369,0,0,0-.457.465c.016,1.122.013,2.212.011,3.367v.031c0,.372,0,.811,0,1.254a5.833,5.833,0,0,1,2.394-.576,4.008,4.008,0,0,1,1.754.4,4.949,4.949,0,0,1,1.563,1.229,4.427,4.427,0,0,1,.519,5.2h4.575l2.639,0a3.415,3.415,0,0,1,3.6,3.6v.032c0,.641,0,1.3,0,1.955a3.841,3.841,0,0,1-.222,1.28,3.337,3.337,0,0,1-.611,1.05,3.416,3.416,0,0,1-2.179,1.138.462.462,0,0,0-.339.145.571.571,0,0,0-.062.337c.006,2.011.006,4.056.006,6.034V42.9c0,.955,0,1.98,0,3q0,.078,0,.155a4.889,4.889,0,0,1-.192,1.672H50.976a1.607,1.607,0,0,0,1.177-.323,1.561,1.561,0,0,0,.328-1.163c0-1.046,0-2.171,0-3.439v-.247c0-2.157,0-4.388,0-6.592a1.422,1.422,0,0,1,.328-.942,1.03,1.03,0,0,1,.781-.362,1.145,1.145,0,0,1,.5.121,1.094,1.094,0,0,1,.655,1.043c0,.9,0,1.807,0,2.734v.108c.006,2.66.011,5.411-.02,8.118A3.16,3.16,0,0,1,53.763,49a3.476,3.476,0,0,1-1.022.7,3.381,3.381,0,0,1-1.228.294C51.4,50,51.292,50,51.208,50ZM18.151,47.727h6.058l5.126,0a1.371,1.371,0,0,0,1-.324,1.322,1.322,0,0,0,.33-.989c0-.989,0-2,0-2.971V43.01c0-2.027,0-4.123.01-6.19a.5.5,0,0,0-.092-.368.493.493,0,0,0-.366-.093h-.009c-1.715.007-3.468.011-5.21.011s-3.51,0-5.236-.011h-.009a.492.492,0,0,0-.367.094.5.5,0,0,0-.09.368c.018,1.356.014,2.729.011,4.056h0c0,.311,0,.61,0,.938a1.546,1.546,0,0,1-.3.988,1.041,1.041,0,0,1-.812.376h-.029a1.028,1.028,0,0,1-.822-.371,1.561,1.561,0,0,1-.307-1c0-.379,0-.764,0-1.158v-.031c0-1.228-.009-2.5.015-3.75a.549.549,0,0,0-.1-.409.579.579,0,0,0-.421-.1h-.016c-1.831.009-3.524.013-5.175.013-1.779,0-3.514-.005-5.157-.015H6.171a.548.548,0,0,0-.4.1.6.6,0,0,0-.1.428c.014,2.321.012,4.682.011,6.965V43.9c0,.979,0,1.684,0,2.356A1.557,1.557,0,0,0,6,47.4a1.516,1.516,0,0,0,1.135.327H18.151ZM19.7,29.544a.429.429,0,0,0-.318.084.435.435,0,0,0-.079.326c.021,1.445.02,2.617,0,3.69a.491.491,0,0,0,.088.367.483.483,0,0,0,.363.094h.017c.93-.008,1.924-.011,3.224-.011h6.954c1.1,0,2,0,2.822,0a1.157,1.157,0,0,0,1.309-1.281c.007-.659.007-1.328,0-1.987a1.14,1.14,0,0,0-1.259-1.272c-1.7,0-3.41,0-5.067,0h-.005c-2.635,0-5.36,0-8.04-.007ZM6.33,29.55l-2.75,0a1.156,1.156,0,0,0-1.306,1.282c-.007.684-.007,1.353,0,1.987a1.14,1.14,0,0,0,1.261,1.271c1.574,0,3.178,0,4.729,0h.579c2.557,0,5.2,0,7.806.008h0a.425.425,0,0,0,.316-.084.438.438,0,0,0,.079-.328c-.021-1.5-.02-2.634,0-3.69a.365.365,0,0,0-.453-.458h-.017c-.93.007-1.941.01-3.277.01H6.33Zm15.249-6.823a2.307,2.307,0,0,0-2.17,1.64,3.548,3.548,0,0,0-.1,1.154v.006c0,.129.007.276,0,.417,0,.11-.011.223-.021.344h0a1.352,1.352,0,0,0,.1.907.479.479,0,0,0,.391.136,2.744,2.744,0,0,0,.346-.03h.012a2.55,2.55,0,0,1,.312-.028.706.706,0,0,1,.077,0c.149,0,.285,0,.416,0h.035l.326,0c.156,0,.285,0,.405-.01a2.274,2.274,0,0,0,.229-4.513A2.129,2.129,0,0,0,21.578,22.727Zm-5.323,4.545c.146,0,.265,0,.376.012.033,0,.063,0,.092,0a.328.328,0,0,0,.249-.077.427.427,0,0,0,.075-.321c-.014-.339-.011-.68-.008-1.009V25.87c0-.316.006-.642-.007-.964a2.259,2.259,0,0,0-2.271-2.171h-.041a2.271,2.271,0,0,0-.074,4.539c.112.006.232.009.378.009.109,0,.221,0,.319,0h0c.093,0,.209,0,.321,0v0h.009c.1,0,.2,0,.285,0S16.155,27.272,16.256,27.272ZM37.461,9.1a.5.5,0,0,0-.357.087.454.454,0,0,0-.081.34c.027,1.231.027,2.434,0,3.576-.006.239.024.369.1.449a.566.566,0,0,0,.422.112h.019c1.225-.011,2.533-.015,4.24-.015h8.823l3.912,0c.928,0,1.344-.419,1.349-1.356v-.024c0-.624.007-1.27,0-1.906a1.152,1.152,0,0,0-1.276-1.255l-5.752,0H48.5c-3.6,0-7.332,0-11.035-.008h-.005Zm-7.771,4.55c1.272,0,2.949,0,4.64.01h.012c.186,0,.286-.025.347-.087a.464.464,0,0,0,.082-.345c-.024-1.171-.024-2.378,0-3.69,0-.19-.021-.293-.082-.356a.424.424,0,0,0-.313-.085h-.036c-.458.01-.956.015-1.568.015l-.888,0h-.155l-.909,0H17.306c-1.006,0-1.4.4-1.4,1.416,0,.565,0,1.138,0,1.7a1.5,1.5,0,0,0,.324,1.093,1.422,1.422,0,0,0,1.07.331H29.69ZM33.421,6.83c.122,0,.256.012.387.024h.008c.131.012.267.024.393.024a.675.675,0,0,0,.45-.117c.2-.17.159-.48.121-.779a1.761,1.761,0,0,1-.023-.416c0-.141,0-.27,0-.394V5.156c0-.258.006-.481-.006-.71a2.273,2.273,0,0,0-2.273-2.159H32.43a2.271,2.271,0,0,0-.051,4.539c.135.007.277.01.447.01.139,0,.283,0,.4,0h.019l.156,0h.021Zm4.237,0c.167,0,.338,0,.489,0h.013c.169,0,.334,0,.5,0,.343,0,.607-.008.854-.025a2.259,2.259,0,0,0,2.056-2.36,2.292,2.292,0,0,0-2.262-2.167H39.3a2.266,2.266,0,0,0-2.267,2.151c-.012.234-.009.47-.005.7v.024c0,.087,0,.2,0,.3h0c0,.088,0,.178,0,.27v.05c0,.248,0,.5-.005.758a.311.311,0,0,0,.055.237.275.275,0,0,0,.207.062h.017C37.421,6.834,37.536,6.833,37.658,6.833Z" transform="translate(0 0)" fill="#10069f" stroke="rgba(0,0,0,0)" stroke-width="1"/>
    <path id="Caminho_191" data-name="Caminho 191" d="M464.087,261.183a1.134,1.134,0,1,1-1.1-1.139,1.148,1.148,0,0,1,1.1,1.139" transform="translate(-409.337 -230.491)" fill="#10069f"/>
  </g>
</svg>
