<svg id="Grupo_44" data-name="Grupo 44" xmlns="http://www.w3.org/2000/svg" xmlns:xlink="http://www.w3.org/1999/xlink" width="50.002" height="50" viewBox="0 0 50.002 50">
  <defs>
    <clipPath id="clip-path">
      <rect id="Retângulo_18" data-name="Retângulo 18" width="50.002" height="50" fill="#10069f"/>
    </clipPath>
  </defs>
  <g id="Grupo_32" data-name="Grupo 32" clip-path="url(#clip-path)">
    <path id="Subtração_37" data-name="Subtração 37" d="M40.22,38.6a2.725,2.725,0,0,1-1.786-.659c-.618-.529-1.2-1.12-1.764-1.691l-.007-.007c-.21-.213-.428-.433-.644-.647l-.2-.2-.09-.089c-.757-.749-1.541-1.524-2.292-2.306a.528.528,0,0,0-.38-.207.719.719,0,0,0-.315.093,12.015,12.015,0,0,1-2.412.9,10.126,10.126,0,0,1-2.445.305,9.875,9.875,0,0,1-1.929-.192,10.82,10.82,0,0,1-1.937-.585,12.06,12.06,0,0,1-2.562-1.4,10.023,10.023,0,0,1-1.974-1.887,10.232,10.232,0,0,1-1.389-2.359,12.693,12.693,0,0,1-.807-2.818,9.8,9.8,0,0,1-.086-2.287,9.943,9.943,0,0,1,.407-2.247H1.368a1.481,1.481,0,0,1-1.084-.281A1.457,1.457,0,0,1,0,18.954v-.827c0-1.1,0-2.46,0-3.762a1.345,1.345,0,0,1,.289-.983,1.3,1.3,0,0,1,.971-.295l.643,0h0c.481,0,.978,0,1.466,0,.75,0,1.367,0,1.941.013h.025a.428.428,0,0,0,.319-.086.468.468,0,0,0,.085-.346c-.016-1.288-.012-2.591-.009-3.851q0-.345,0-.689a1.35,1.35,0,0,1,.293-1,1.37,1.37,0,0,1,1-.29l1.045,0h.011l1.5,0c.929,0,1.684,0,2.375.012h.029a.461.461,0,0,0,.343-.087.484.484,0,0,0,.086-.357C12.4,5.041,12.4,3.658,12.4,2.32h0V2.245c0-.318,0-.647,0-.97A1.321,1.321,0,0,1,12.7.3a1.317,1.317,0,0,1,.976-.3l3.051,0,3.051,0c.9,0,1.257.359,1.26,1.276q0,.229,0,.458v.048c0,1.306.009,2.657-.008,3.985a.548.548,0,0,0,.092.4.475.475,0,0,0,.351.1H21.5c.675-.011,1.41-.016,2.313-.016l1.507,0h.021l1.09,0a1.347,1.347,0,0,1,1,.3,1.357,1.357,0,0,1,.3,1c0,.33,0,.664,0,1.006v0c0,1.142.007,2.322-.011,3.483-.006.417.069.56.526.587a12.779,12.779,0,0,1,3.045.539,10.14,10.14,0,0,1,2.593,1.227,9.945,9.945,0,0,1,2.126,1.917,12.182,12.182,0,0,1,1.641,2.608,10.724,10.724,0,0,1,.777,2.252,9.756,9.756,0,0,1,.23,2.266,10.2,10.2,0,0,1-.3,2.266,12.053,12.053,0,0,1-.809,2.252.791.791,0,0,0,.19,1.1c.812.783,1.62,1.595,2.4,2.38l.011.011c.592.594,1.2,1.209,1.813,1.807a4.432,4.432,0,0,1,1.2,1.9v1.172a4.833,4.833,0,0,0-.265.5,3.118,3.118,0,0,1-.473.78A2.99,2.99,0,0,1,40.22,38.6Zm-4.075-8.312c-.066,0-.132.042-.216.137a11.661,11.661,0,0,1-.967.963c-.085.076-.124.135-.126.193s.049.132.131.214c.916.909,1.844,1.837,2.742,2.735l.037.037.029.029c.541.54,1.1,1.1,1.65,1.648a1.08,1.08,0,0,0,.75.38h.032a.907.907,0,0,0,.913-.577,1,1,0,0,0-.319-1.187l-1.288-1.287L39.5,33.56c-1.023-1.022-2.081-2.078-3.117-3.122C36.292,30.345,36.22,30.288,36.145,30.288ZM27.9,14.554h0a8.783,8.783,0,0,0,0,17.566h.012a8.783,8.783,0,0,0,0-17.566H27.9ZM16.225,18.332h0c.389,0,.73.014,1.043.041.109.01.213.015.308.015a1.281,1.281,0,0,0,1.381-.958A.75.75,0,0,1,19.1,17.2c.024-.028.05-.06.074-.092a11.643,11.643,0,0,1,1.265-1.469,10.37,10.37,0,0,1,3.1-2.1,11.364,11.364,0,0,1,1.835-.622c.317-.079.413-.2.408-.514-.019-1.2-.019-2.447,0-3.806a.442.442,0,0,0-.079-.33.384.384,0,0,0-.285-.08h-.033c-.337.008-.694.012-1.156.012l-.658,0h-.024l-.647,0h-.353c-.14,0-.3-.014-.447-.028h0c-.152-.014-.309-.028-.452-.028a.733.733,0,0,0-.5.133c-.22.2-.176.586-.134.961a3.8,3.8,0,0,1,.035.488c-.008.347-.006.7,0,1.041v.008c0,.423,0,.86-.011,1.293a1.073,1.073,0,0,1-.276.715.931.931,0,0,1-.651.287h-.043a.887.887,0,0,1-.646-.27,1.174,1.174,0,0,1-.314-.711,3.346,3.346,0,0,1-.012-.383c0-.037,0-.071,0-.1q0-.686,0-1.373V9.776c0-2.418,0-4.919.007-7.392a.475.475,0,0,0-.087-.352.425.425,0,0,0-.313-.086h-.025c-.666.011-1.329.017-1.969.017s-1.3-.006-1.933-.017h-.026a.414.414,0,0,0-.305.084.5.5,0,0,0-.084.356c.01,1.972.009,3.977.008,5.916v.011c0,.507,0,1.174,0,1.831s0,1.339,0,1.92c0,1.913,0,3.892-.012,5.838a.517.517,0,0,0,.094.377.435.435,0,0,0,.326.089h.064l.22-.007h.017C15.446,18.346,15.839,18.332,16.225,18.332ZM8.073,8.78a.418.418,0,0,0-.31.085.491.491,0,0,0-.084.355c.012,1.062.01,2.142.008,3.186,0,.338,0,.758,0,1.157,0,.337,0,.681,0,1.013V14.7c0,1.082,0,2.2-.007,3.308a.4.4,0,0,0,.069.29.349.349,0,0,0,.258.071h.014c.676-.008,1.36-.012,2.031-.012s1.351,0,2.018.012h.014a.346.346,0,0,0,.255-.07.4.4,0,0,0,.07-.289c-.007-2.411-.013-5.594,0-8.833a.427.427,0,0,0-.081-.312.414.414,0,0,0-.308-.079H12c-.746.009-1.405.013-2.015.013C9.313,8.8,8.7,8.791,8.1,8.78ZM2.242,15.035a.311.311,0,0,0-.232.063.315.315,0,0,0-.061.234c.013.908.012,1.828,0,2.733a.322.322,0,0,0,.06.24.278.278,0,0,0,.208.059h.031c.192-.006.4-.009.655-.009l.45,0h0l.453,0h.924c.268,0,.486,0,.686.006h.028a.306.306,0,0,0,.229-.063.309.309,0,0,0,.062-.228c-.013-.831-.013-1.725,0-2.733a.247.247,0,0,0-.3-.3H5.427c-.527.005-1.058.008-1.578.008s-1.07,0-1.594-.008Z" transform="translate(6.839 5.67)" fill="#10069f" stroke="rgba(0,0,0,0)" stroke-width="1"/>
    <path id="Caminho_172" data-name="Caminho 172" d="M2.348,50a9.378,9.378,0,0,1-.983-.484,2.86,2.86,0,0,1-1.357-2.5c-.016-.96,0-1.921,0-2.881V3.363A3.009,3.009,0,0,1,3.376,0q17.4,0,34.81,0a2.963,2.963,0,0,1,3.081,2.12,3.39,3.39,0,0,1,.134.963q0,4.126,0,8.252a1.889,1.889,0,0,1-.061.48.914.914,0,0,1-.97.712.938.938,0,0,1-.9-.813,3.5,3.5,0,0,1-.02-.536q0-3.955,0-7.91c0-.977-.343-1.317-1.326-1.317H3.264c-.976,0-1.307.337-1.307,1.33q0,21.7,0,43.408c0,1.028.319,1.353,1.333,1.353H38.1c1.018,0,1.347-.328,1.348-1.344,0-1.318-.006-2.637,0-3.955a.948.948,0,0,1,.756-1,.915.915,0,0,1,1.039.452,1.093,1.093,0,0,1,.153.607c0,1.416.026,2.833-.008,4.248a2.866,2.866,0,0,1-2.471,2.877c-.022,0-.035.047-.052.072h-.2a1,1,0,0,0-.526-.048q-17.491,0-34.982,0A1,1,0,0,0,2.641,50Z" transform="translate(0.001 0)" fill="#10069f"/>
    <path id="Caminho_173" data-name="Caminho 173" d="M21.584,407.813c.122-.165.3-.1.452-.1q17.54,0,35.08,0c.168,0,.361-.078.5.094Z" transform="translate(-18.943 -357.814)" fill="#10069f"/>
    <path id="Caminho_174" data-name="Caminho 174" d="M57.612,351.48H44.534c-.881,0-1.359-.341-1.365-.971s.469-.982,1.35-.982H70.772c.888,0,1.359.334,1.367.966s-.475.987-1.351.987H57.612" transform="translate(-37.886 -306.757)" fill="#10069f"/>
    <path id="Caminho_175" data-name="Caminho 175" d="M49.388,245.646a1.007,1.007,0,0,1-.862,1.139.9.9,0,0,1-1.056-.836A1.182,1.182,0,0,0,46,244.909a.929.929,0,0,0-.022,1.856c.413.084.839.073,1.249.2a2.989,2.989,0,0,1,2.154,2.617,2.865,2.865,0,0,1-1.77,2.777.684.684,0,0,0-.443.5.945.945,0,0,1-1.806-.009.674.674,0,0,0-.447-.5,2.815,2.815,0,0,1-1.759-2.49.964.964,0,0,1,1.268-1.039.934.934,0,0,1,.664.877,1.156,1.156,0,0,0,1.523.953,1.047,1.047,0,0,0,.824-.913,1.03,1.03,0,0,0-.863-.923c-.4-.075-.809-.1-1.2-.2a2.938,2.938,0,0,1-2.22-2.6,2.892,2.892,0,0,1,1.836-2.835.549.549,0,0,0,.371-.391.881.881,0,0,1,.909-.672.857.857,0,0,1,.886.632.662.662,0,0,0,.438.456,2.882,2.882,0,0,1,1.792,2.442" transform="translate(-37.868 -212.49)" fill="#10069f"/>
    <path id="Caminho_176" data-name="Caminho 176" d="M115.806,260.143c.942,0,1.883,0,2.825,0,.7,0,1.158.408,1.148.986a1.016,1.016,0,0,1-1.126.963q-2.874.012-5.748,0a1.007,1.007,0,0,1-1.12-.965c-.007-.585.446-.98,1.148-.984.958-.006,1.916,0,2.874,0" transform="translate(-98.106 -228.309)" fill="#10069f"/>
    <path id="Caminho_177" data-name="Caminho 177" d="M115.8,304.84c.942,0,1.883,0,2.825,0,.7,0,1.159.4,1.152.981s-.466.967-1.171.969q-2.825.008-5.65,0c-.71,0-1.163-.383-1.174-.963-.011-.6.449-.985,1.192-.987.942,0,1.883,0,2.825,0" transform="translate(-98.103 -267.537)" fill="#10069f"/>
    <path id="Caminho_178" data-name="Caminho 178" d="M323.411,120.094a.971.971,0,1,1,.02-1.942.971.971,0,0,1-.02,1.942" transform="translate(-282.989 -103.694)" fill="#10069f"/>
    <path id="Caminho_179" data-name="Caminho 179" d="M190.6,305.825a.974.974,0,0,1,.961-.955.972.972,0,1,1-.961.955" transform="translate(-167.277 -267.565)" fill="#10069f"/>
    <path id="Subtração_39" data-name="Subtração 39" d="M2.9,5.839a2.837,2.837,0,0,1-1.12-.229A2.952,2.952,0,0,1,.231,4.053,2.916,2.916,0,0,1,2.909,0h.019A2.944,2.944,0,0,1,5.849,2.9a2.778,2.778,0,0,1-.217,1.121,2.935,2.935,0,0,1-.622.931,2.991,2.991,0,0,1-.927.64,2.913,2.913,0,0,1-1.133.249Zm.018-3.88a.959.959,0,1,0,0,1.918h.023a.993.993,0,0,0,.951-.969.984.984,0,0,0-.97-.949Z" transform="translate(28.411 22.327)" fill="#10069f" stroke="rgba(0,0,0,0)" stroke-width="1"/>
    <path id="Subtração_38" data-name="Subtração 38" d="M2.928,5.842H2.9A2.921,2.921,0,0,1,2.908,0h.01A2.938,2.938,0,0,1,5.847,2.9a2.768,2.768,0,0,1-.22,1.123A3.027,3.027,0,0,1,4.063,5.6,2.815,2.815,0,0,1,2.928,5.842ZM2.915,1.958a.948.948,0,0,0-.958.946.967.967,0,0,0,.937.975h.022A.98.98,0,0,0,3.6,3.585a.963.963,0,0,0,.284-.68.981.981,0,0,0-.97-.947Z" transform="translate(35.233 29.853)" fill="#10069f" stroke="rgba(0,0,0,0)" stroke-width="1"/>
    <path id="Caminho_187" data-name="Caminho 187" d="M257.113,196.342a1.774,1.774,0,0,1-.217.593q-2.532,4.488-5.063,8.977a1.023,1.023,0,0,1-1.052.634.952.952,0,0,1-.809-.685,1.037,1.037,0,0,1,.142-.882q2.552-4.533,5.113-9.06a.989.989,0,0,1,1.172-.562,1.016,1.016,0,0,1,.713.986" transform="translate(-219.343 -171.418)" fill="#10069f"/>
  </g>
</svg>
