<svg id="Grupo_23" data-name="Grupo 23" xmlns="http://www.w3.org/2000/svg" xmlns:xlink="http://www.w3.org/1999/xlink" width="38.534" height="40" viewBox="0 0 38.534 40">
  <defs>
    <clipPath id="clip-path">
      <rect id="Retângulo_13" data-name="Retângulo 13" width="38.534" height="40" fill="#10069f"/>
    </clipPath>
  </defs>
  <g id="Grupo_23-2" data-name="Grupo 23" clip-path="url(#clip-path)">
    <path id="Subtração_29" data-name="Subtração 29" d="M33.072,25.643H9.944a.963.963,0,0,1-.445-.429,1.313,1.313,0,0,1-.113-.624c.015-.627.013-1.264.011-1.88h0c0-.47,0-.956,0-1.439a.354.354,0,0,0-.063-.262.28.28,0,0,0-.21-.061H9.081c-.185.008-.382.012-.62.012-.178,0-.358,0-.532,0H7.865l-.19,0a.793.793,0,0,1-.9-.773c-.049-.327-.087-.661-.124-.984v0h0v-.01c-.019-.166-.038-.339-.06-.511a.921.921,0,0,0-.905-.911,1.281,1.281,0,0,0-.473.1c-.236.094-.475.193-.705.29h0l-.015.006h0l-.007,0c-.22.092-.448.187-.674.277a1.237,1.237,0,0,1-.455.1.636.636,0,0,1-.381-.12,1.145,1.145,0,0,1-.313-.37C1.763,16.5.942,15.077.152,13.7a.873.873,0,0,1-.137-.628A.932.932,0,0,1,.4,12.544c.194-.146.391-.29.582-.43.231-.169.469-.343.7-.522a.983.983,0,0,0,.427-.777.97.97,0,0,0-.424-.765c-.223-.169-.453-.336-.675-.5L1.01,9.546h0C.823,9.409.629,9.268.436,9.124A.8.8,0,0,1,.171,7.913C.981,6.5,1.819,5.044,2.66,3.593a.782.782,0,0,1,.687-.486,1.268,1.268,0,0,1,.462.1c.234.093.473.191.683.278h0l.008,0c.245.1.5.205.75.3a1.266,1.266,0,0,0,.463.1A.9.9,0,0,0,6.593,3c.03-.251.06-.514.087-.746L6.685,2.2l0-.025L6.7,2.07c.019-.166.036-.316.054-.466A1.079,1.079,0,0,1,7.031.892,1.054,1.054,0,0,1,7.765.7h2.445l2.4,0c.638,0,.872.2.961.822.04.275.072.554.1.823V2.35c.027.235.055.478.088.717a.883.883,0,0,0,.871.838,1.133,1.133,0,0,0,.408-.081c.282-.109.565-.227.837-.341h0c.219-.092.446-.186.674-.277a1.207,1.207,0,0,1,.443-.1.774.774,0,0,1,.679.47C18.5,5,19.348,6.469,20.183,7.93a.9.9,0,0,1,.146.644.969.969,0,0,1-.4.538c-.2.153-.411.306-.612.454l0,0,0,0h0c-.217.159-.442.324-.66.49a.895.895,0,0,0-.005,1.51c.219.167.444.332.663.491h0c.213.156.434.317.651.482a.783.783,0,0,1,.233,1.157c-.823,1.439-1.667,2.9-2.508,4.354a.786.786,0,0,1-.692.476,1.167,1.167,0,0,1-.43-.095c-.221-.088-.445-.181-.661-.272h0l-.008,0h0c-.263-.11-.535-.224-.806-.329a1.146,1.146,0,0,0-.415-.082.91.91,0,0,0-.9.851c-.036.252-.067.51-.1.758v.008c-.034.28-.069.57-.111.859a.763.763,0,0,1-.819.719c-.3.005-.544.008-.774.008-.269,0-.514,0-.749-.011h-.026A.241.241,0,0,0,11,21a.286.286,0,0,0-.052.211c.01.811.018,1.675,0,2.538a.359.359,0,0,0,.063.268c.047.049.126.068.273.068h.007c1.712-.006,3.4-.007,4.815-.007h8.507c2.092,0,4.567,0,7.066.009h.007c.173,0,.266-.023.321-.079a.428.428,0,0,0,.075-.319c-.017-1.022-.013-2.06-.01-3.064v-.133c0-.232,0-.5,0-.748a1.741,1.741,0,0,1,.052-.464.69.69,0,0,1,.169-.308.677.677,0,0,1,.3-.171,1.681,1.681,0,0,1,.459-.054l.751,0h.072c.347,0,.705,0,1.059,0,.6,0,1.1.005,1.554.017h.037a.4.4,0,0,0,.295-.08c.068-.069.082-.182.081-.355C36.9,13.134,36.9,7.866,36.9,2.772V.946c0-.6.285-.946.782-.946h.008a.782.782,0,0,1,.517.193.773.773,0,0,1,.249.493,2.278,2.278,0,0,1,.008.287v0h0v0c0,.03,0,.064,0,.1q0,1.546,0,3.093v.572c0,4.5,0,9.606.006,14.495a1.336,1.336,0,0,1-.364.981c-1.346,1.475-2.7,2.985-4.007,4.445h0l-.1.117-.012.014-.022.025-.322.359a2.955,2.955,0,0,1-.565.465Zm.782-5.333a.241.241,0,0,0-.177.045.189.189,0,0,0-.042.139c0,.55,0,1.107,0,1.646v.035c0,.144,0,.363,0,.564.026-.006.047-.009.064-.012h0c.026,0,.042-.006.05-.015.638-.7,1.272-1.406,1.944-2.151l.226-.25H33.854ZM11.09,19.392c.091,0,.191.009.289.017h0c.1.008.2.017.293.017a.559.559,0,0,0,.356-.089c.162-.128.162-.392.163-.647a2.7,2.7,0,0,1,.013-.316,2.537,2.537,0,0,1,2.417-2.189h.06a3.81,3.81,0,0,1,1.566.452l.043.019a.543.543,0,0,0,.218.059c.129,0,.209-.1.289-.24.5-.895,1.028-1.814,1.575-2.732a.447.447,0,0,0,.091-.275c-.01-.079-.067-.146-.183-.218a6.7,6.7,0,0,1-.721-.532,2.434,2.434,0,0,1-.667-.859,2.472,2.472,0,0,1-.02-2.035,2.424,2.424,0,0,1,.648-.868,7.628,7.628,0,0,1,.781-.583c.1-.066.15-.12.166-.181A.329.329,0,0,0,18.4,7.95c-.621-1.042-1.155-1.969-1.634-2.833-.076-.137-.148-.2-.241-.2a.513.513,0,0,0-.208.061,9.027,9.027,0,0,1-.9.359,2.424,2.424,0,0,1-.772.127,2.47,2.47,0,0,1-2.164-1.3,2.423,2.423,0,0,1-.271-.877c-.008-.075-.018-.15-.028-.224-.022-.168-.045-.342-.05-.513-.007-.223-.091-.3-.319-.3H11.8c-.36.005-.756.007-1.246.007H9.063c-.819,0-.819,0-.907.829a2.741,2.741,0,0,1-.8,1.73,2.27,2.27,0,0,1-.738.472,2.416,2.416,0,0,1-.889.165A3,3,0,0,1,4.6,5.22L4.06,5h0L4.039,4.99l-.253-.1H3.768c-.078,0-.105.067-.132.132a.527.527,0,0,1-.03.066c-.376.645-.755,1.3-1.121,1.94l0,.006-.141.246c-.051.089-.117.181-.181.269a1.04,1.04,0,0,0-.28.605c.022.214.256.348.482.479a2.581,2.581,0,0,1,.278.175,2.714,2.714,0,0,1,.783.931,2.387,2.387,0,0,1,0,2.172,2.717,2.717,0,0,1-.786.931l-.03.023c-.2.156-.414.317-.631.46-.149.1-.137.186-.063.313.575.986,1.138,1.952,1.693,2.934.065.115.124.162.2.162a.4.4,0,0,0,.165-.048c.277-.132.573-.243.829-.336A2.5,2.5,0,0,1,7.29,16.8a2.483,2.483,0,0,1,.849,1.569c.007.054.015.108.023.161v0a3.934,3.934,0,0,1,.055.57.313.313,0,0,0,.065.23.326.326,0,0,0,.243.065h.021c.309,0,.641-.007,1.075-.007H11.09Z" transform="translate(0.061 14.357)" fill="#10069f" stroke="rgba(0,0,0,0)" stroke-width="1"/>
    <path id="Caminho_125" data-name="Caminho 125" d="M149.4,0a1.035,1.035,0,0,1,.557,1.054c-.018,2.3-.012,4.607-.005,6.911a.815.815,0,0,1-.492.849.78.78,0,0,1-1.071-.8c-.008-1.158,0-2.317,0-3.475,0-.885-.007-1.77,0-2.655,0-.237-.036-.33-.309-.329q-12.671.013-25.343,0c-.284,0-.3.108-.3.335q.011,2.831,0,5.662a.816.816,0,0,1-.559.881.78.78,0,0,1-1-.82c-.006-1.419,0-2.837,0-4.256,0-.768.022-1.537-.008-2.3A1.008,1.008,0,0,1,121.426,0Z" transform="translate(-111.421)" fill="#10069f"/>
    <path id="Caminho_126" data-name="Caminho 126" d="M16.99,145.058A12.819,12.819,0,0,0,12,143.352a13.377,13.377,0,0,0-10.61,3.186.8.8,0,0,1-1.205-.021.781.781,0,0,1,.189-1.16,14.877,14.877,0,0,1,11.453-3.594,14.5,14.5,0,0,1,6.016,1.979c.056.033.112.065.17.093a.29.29,0,0,0,.089.006c-.039-.338-.084-.672-.114-1.008a.786.786,0,1,1,1.556-.157q.147,1.278.292,2.557c.079.688-.146.992-.831,1.1-.86.134-1.721.266-2.584.383a.77.77,0,0,1-.978-.644c-.067-.458.219-.8.763-.9.229-.042.461-.068.786-.116" transform="translate(-0.001 -130.612)" fill="#10069f"/>
    <path id="Caminho_127" data-name="Caminho 127" d="M205.844,81.825h7.613c.13,0,.261-.005.39.008a.774.774,0,0,1,.206,1.488,1.271,1.271,0,0,1-.5.067h-15.5a1.7,1.7,0,0,1-.311-.016.79.79,0,0,1-.661-.8.772.772,0,0,1,.757-.742c.221-.012.442,0,.663,0h7.339" transform="translate(-181.682 -75.429)" fill="#10069f"/>
    <path id="Caminho_128" data-name="Caminho 128" d="M292.053,233.61q-2.185,0-4.369,0a.766.766,0,0,1-.775-.478.728.728,0,0,1,.122-.8.814.814,0,0,1,.657-.285q4.369,0,8.739,0a.783.783,0,1,1,0,1.558c-1.456,0-2.913,0-4.369,0" transform="translate(-264.424 -213.913)" fill="#10069f"/>
    <path id="Caminho_129" data-name="Caminho 129" d="M292.183,158.51c-1.469,0-2.939,0-4.408,0a.781.781,0,0,1-.151-1.554,1.442,1.442,0,0,1,.195-.006q4.33,0,8.661,0a.785.785,0,1,1,.034,1.56c-1.443.005-2.887,0-4.33,0" transform="translate(-264.515 -144.682)" fill="#10069f"/>
    <path id="Caminho_130" data-name="Caminho 130" d="M292.16,308.8h-4.135a3.082,3.082,0,0,1-.428-.018.767.767,0,0,1-.085-1.5,2.151,2.151,0,0,1,.5-.044q4.154,0,8.308,0a2.434,2.434,0,0,1,.388.019.771.771,0,0,1,.676.779.764.764,0,0,1-.742.754c-.3.019-.6.009-.9.009H292.16" transform="translate(-264.523 -283.224)" fill="#10069f"/>
    <path id="Caminho_131" data-name="Caminho 131" d="M292.191,382.522c1.43,0,2.86,0,4.291,0a.821.821,0,0,1,.8.384.761.761,0,0,1-.442,1.128,2.082,2.082,0,0,1-.54.051q-4.135,0-8.269,0a2.729,2.729,0,0,1-.35-.012.77.77,0,0,1-.725-.811.751.751,0,0,1,.794-.736c.949-.011,1.9,0,2.847,0h1.6" transform="translate(-264.524 -352.626)" fill="#10069f"/>
    <path id="Caminho_132" data-name="Caminho 132" d="M473.776,139.693a.777.777,0,0,1-.76-.774.779.779,0,1,1,1.557.04.775.775,0,0,1-.8.734" transform="translate(-436.05 -127.341)" fill="#10069f"/>
    <path id="Subtração_30" data-name="Subtração 30" d="M4.36,8.728H4.346a4.312,4.312,0,0,1-1.694-.349A4.394,4.394,0,0,1,.337,6.047,4.329,4.329,0,0,1,.35,2.665,4.442,4.442,0,0,1,2.672.345,4.243,4.243,0,0,1,4.35,0h.037a4.349,4.349,0,0,1,1.7.358A4.427,4.427,0,0,1,8.4,2.7a4.269,4.269,0,0,1,.334,1.691A4.372,4.372,0,0,1,4.36,8.728Zm.024-7.166H4.351a2.8,2.8,0,0,0,.021,5.6h.012A2.809,2.809,0,0,0,7.175,4.352a2.841,2.841,0,0,0-2.791-2.79Z" transform="translate(5.866 20.809)" fill="#10069f" stroke="rgba(0,0,0,0)" stroke-width="1"/>
  </g>
</svg>
