<svg xmlns="http://www.w3.org/2000/svg" xmlns:xlink="http://www.w3.org/1999/xlink" width="50" height="50" viewBox="0 0 50 50">
  <defs>
    <clipPath id="clip-path">
      <rect id="Retângulo_22" data-name="Retângulo 22" width="50" height="50" fill="#10069f"/>
    </clipPath>
  </defs>
  <g id="Grupo_41" data-name="Grupo 41" transform="translate(0 -0.022)">
    <g id="Grupo_40" data-name="Grupo 40" transform="translate(0 0.022)" clip-path="url(#clip-path)">
      <path id="Subtração_46" data-name="Subtração 46" d="M.733,18.031c-.37,0-.61-.21-.733-.641V12.5c.114-.028.12-.114.126-.2h0a.429.429,0,0,1,.011-.083,6.781,6.781,0,0,1,.692-1.64A5,5,0,0,1,3.243,8.493a6.818,6.818,0,0,1,1.72-.453l.127-.017H5.1l.044-.006c.071-.072.035-.129,0-.18v0a4.714,4.714,0,0,1-.706-2.1A7.359,7.359,0,0,1,4.59,3.54a4.326,4.326,0,0,1,.573-1.431A4.51,4.51,0,0,1,8.946,0c.14,0,.281.007.42.021a4.694,4.694,0,0,1,1.6.449,4.5,4.5,0,0,1,2.166,2.262A4.606,4.606,0,0,1,13.5,4.339a8.847,8.847,0,0,1-.062,1.87,4.132,4.132,0,0,1-.709,1.766l.372.068h0c.258.046.5.09.74.146a5.206,5.206,0,0,1,1.591.662A5.325,5.325,0,0,1,16.717,10c.11.135.189.224.28.224.075,0,.157-.06.265-.2a5.437,5.437,0,0,1,.821-.83,5.085,5.085,0,0,1,.944-.605,6.119,6.119,0,0,1,2.239-.586,4.956,4.956,0,0,1-.791-2.232,7.431,7.431,0,0,1,.155-2.316,4.092,4.092,0,0,1,.573-1.39A4.432,4.432,0,0,1,22.209.976,4.578,4.578,0,0,1,25,0c.108,0,.218,0,.326.012a4.579,4.579,0,0,1,2.876,1.314,4.451,4.451,0,0,1,1.315,2.846,8.771,8.771,0,0,1-.038,1.966,4.314,4.314,0,0,1-.743,1.866,5.679,5.679,0,0,1,3.581,1.51,1.9,1.9,0,0,1,.245.308c.141.2.275.4.465.4h.022c.157-.012.294-.2.439-.4a2.349,2.349,0,0,1,.254-.31,5.46,5.46,0,0,1,1.349-.947,5.212,5.212,0,0,1,1.579-.479c.127-.018.251-.039.381-.061h.008l.183-.031a5.975,5.975,0,0,1-.4-5.145A4.037,4.037,0,0,1,37.5,1.682a4.451,4.451,0,0,1,.98-.9A4.506,4.506,0,0,1,40.976,0,3.946,3.946,0,0,1,41.6.05a5.1,5.1,0,0,1,1.541.5,4.543,4.543,0,0,1,1.22.917,4.318,4.318,0,0,1,.825,1.254,4.487,4.487,0,0,1,.356,1.514A8.9,8.9,0,0,1,45.5,6.155a4.218,4.218,0,0,1-.721,1.821c.142.027.279.05.412.072h0a6.152,6.152,0,0,1,.8.167,6.589,6.589,0,0,1,1.491.653,5.109,5.109,0,0,1,1.159.953,5.049,5.049,0,0,1,.822,1.255,6.409,6.409,0,0,1,.481,1.56.37.37,0,0,0,.048.111h0v0c.009.016.019.033.027.05V17.39c-.126.431-.365.641-.731.641a1.091,1.091,0,0,1-.123-.007H.859A1.1,1.1,0,0,1,.733,18.031ZM25.109,9.955c-1.212,0-2.447.009-3.775.026A3.408,3.408,0,0,0,18.057,12.8a8.662,8.662,0,0,0-.079,1.749h0v0c.008.368.017.748-.006,1.12a.349.349,0,0,0,.429.456h.018c.94-.008,1.946-.012,3.26-.012h6.536c.936,0,2.171,0,3.43.008h.012c.172,0,.265-.024.322-.083a.415.415,0,0,0,.073-.311c-.015-.454-.013-.915-.01-1.36v0c0-.321,0-.654,0-.98a3.45,3.45,0,0,0-3.337-3.4C27.552,9.964,26.343,9.955,25.109,9.955Zm16.034,0c-1.214,0-2.462.009-3.815.029a3.4,3.4,0,0,0-3.25,2.789,8.563,8.563,0,0,0-.084,1.8c.009.367.018.747,0,1.12a.446.446,0,0,0,.07.342.44.44,0,0,0,.334.09h.015c.95-.008,1.966-.011,3.3-.011h6.448c.967,0,2.243,0,3.533.008H47.7A.418.418,0,0,0,48,16.047a.387.387,0,0,0,.068-.29c-.014-.437-.012-.882-.009-1.312v0c0-.352,0-.717,0-1.076a3.442,3.442,0,0,0-3.311-3.38C43.6,9.965,42.386,9.954,41.143,9.954Zm-28.905,6.16c1.37,0,2.416,0,3.391.009h.012a.418.418,0,0,0,.313-.083.424.424,0,0,0,.074-.319c-.012-.412-.01-.828-.008-1.231,0-.365,0-.742,0-1.112a3.43,3.43,0,0,0-3.348-3.4c-1.154-.018-2.358-.027-3.578-.027S6.6,9.964,5.3,9.982a3.409,3.409,0,0,0-3.26,2.778,8.439,8.439,0,0,0-.086,1.828c.01.375.02.762,0,1.142a.4.4,0,0,0,.067.309c.057.06.151.084.326.084h.013c1.259-.007,2.495-.008,3.431-.008h6.455ZM8.978,1.962A2.573,2.573,0,0,0,6.413,4.5a9.7,9.7,0,0,0,.014,1.171A2.583,2.583,0,0,0,8.674,8a2.639,2.639,0,0,0,.295.017,2.6,2.6,0,0,0,2.47-1.792,3.431,3.431,0,0,0,.118-1.067v0c0-.061,0-.124,0-.186,0-.045,0-.089,0-.138v0c0-.1,0-.2,0-.3A2.582,2.582,0,0,0,8.984,1.962Zm32.04,0a2.586,2.586,0,0,0-2.254,1.348,3.211,3.211,0,0,0-.3,1.749c0,.028,0,.065,0,.1h0c0,.1,0,.248,0,.39A2.549,2.549,0,0,0,41,8.013h.023a2.551,2.551,0,0,0,2.572-2.391,9.19,9.19,0,0,0,0-1.316,2.516,2.516,0,0,0-2.063-2.287A2.446,2.446,0,0,0,41.018,1.966ZM24.965,1.959a2.513,2.513,0,0,0-1.88.88,2.624,2.624,0,0,0-.64,2.093c0,.073,0,.142,0,.209v.008h0c0,.141,0,.274,0,.4a2.568,2.568,0,0,0,2.485,2.457h.057A2.532,2.532,0,0,0,27.569,5.67a8.314,8.314,0,0,0,0-1.365A2.524,2.524,0,0,0,25.79,2.085,2.932,2.932,0,0,0,24.965,1.959Z" transform="translate(0 31.926)" fill="#10069f" stroke="rgba(0,0,0,0)" stroke-width="1"/>
      <path id="Subtração_47" data-name="Subtração 47" d="M21.062,28.225c-1.194,0-2.5,0-3.981,0-.7,0-1.153-.386-1.155-.981a.909.909,0,0,1,.25-.663,1.235,1.235,0,0,1,.9-.308l1.276,0h.031l2,0c1.25,0,2.265,0,3.193.014h.019a.489.489,0,0,0,.358-.1.546.546,0,0,0,.093-.393c-.011-1.345-.01-2.707-.009-4.025,0-.727,0-1.478,0-2.228a3.318,3.318,0,0,0-3.489-3.495,3.949,3.949,0,0,1-.417-.033h0a3.936,3.936,0,0,0-.429-.033.66.66,0,0,0-.473.141c-.2.188-.16.539-.12.879a3.439,3.439,0,0,1,.033.432c-.014.956-.008,1.925,0,2.862v.118a1.434,1.434,0,0,1-.127.66.926.926,0,0,1-.5.444.971.971,0,0,1-.369.078,1.167,1.167,0,0,1-.812-.41c-.767-.743-1.53-1.476-2.338-2.251l-.026-.025-.985-.946c0,.289,0,.568,0,.839v.391c0,.382,0,.753,0,1.123,0,.058,0,.118,0,.17,0,.137,0,.278-.005.416a1.08,1.08,0,0,1-.3.7.938.938,0,0,1-.667.277h-.037a.955.955,0,0,1-.66-.3,1.027,1.027,0,0,1-.276-.7c-.009-.66-.007-1.311-.005-2,0-.265,0-.6,0-.92l-.722.691-.083.08L9.778,20.1l-.28.267,0,0c-.244.232-.5.471-.736.714a1.313,1.313,0,0,1-.906.506.978.978,0,0,1-.382-.084.913.913,0,0,1-.514-.495A1.83,1.83,0,0,1,6.85,20.3c.005-.579,0-1.168,0-1.737v-.03c0-.686,0-1.395.007-2.092A.46.46,0,0,0,6.78,16.1a.322.322,0,0,0-.241-.074l-.079,0c-.135.01-.281.015-.473.015H5.525a4.843,4.843,0,0,0-.77.049,3.266,3.266,0,0,0-2.8,3.254c0,.958,0,1.928,0,2.866,0,1.185,0,2.409-.007,3.63a.468.468,0,0,0,.084.346.442.442,0,0,0,.327.085h.014c1.14-.009,2.264-.01,3.214-.01H9.017a.945.945,0,0,1,.978.649.888.888,0,0,1,.039.552,1.087,1.087,0,0,1-.287.472.953.953,0,0,1-.709.278l-1.111,0c-1.063,0-2.162,0-3.256,0-1.389,0-2.547,0-3.643-.009A.977.977,0,0,1,0,27.106c0-3.076,0-5.426,0-7.62a5.734,5.734,0,0,1,.4-2.137,5.1,5.1,0,0,1,2.805-2.831,5.778,5.778,0,0,1,2.139-.428c.333,0,.687-.007,1.115-.007l.932,0H7.4l.927,0c.04-.133-.033-.2-.1-.26a.537.537,0,0,1-.065-.064,6.614,6.614,0,0,1-1.053-1.829,6.033,6.033,0,0,1-.372-2.076c-.005-1.215-.01-2.406,0-3.615a6.381,6.381,0,0,1,.408-2.21A6.165,6.165,0,0,1,9.927.815,6.439,6.439,0,0,1,12.058.086l.018,0c.058-.008.112-.016.137-.083h1.465a7.48,7.48,0,0,1,2.694,1,7.41,7.41,0,0,1,1.2,1.008,6.087,6.087,0,0,1,.883,1.185,5.9,5.9,0,0,1,.56,1.364,6.841,6.841,0,0,1,.228,1.547c.018.494.012,1,.007,1.484v0c-.006.505-.011,1.028.009,1.54a7.26,7.26,0,0,1-.339,2.621,6.3,6.3,0,0,1-.546,1.2,7,7,0,0,1-.832,1.13h.048c.332,0,.657,0,.971,0s.633,0,.945,0c.436,0,.8,0,1.133.013a6.485,6.485,0,0,1,1.576.225,5.013,5.013,0,0,1,1.343.593,4.914,4.914,0,0,1,1.1.966,6.191,6.191,0,0,1,.859,1.346,4.911,4.911,0,0,1,.461,2.126c0,2.437,0,4.961,0,7.718a1.2,1.2,0,0,1-.283.863,1.151,1.151,0,0,1-.852.291C23.657,28.223,22.419,28.225,21.062,28.225ZM14.79,16.039l1.941,1.866.2.193.243.234c0-.219,0-.425,0-.623v-.02c0-.473,0-.881.008-1.3a.38.38,0,0,0-.069-.286.337.337,0,0,0-.252-.074h-.033c-.237.007-.486.01-.809.01l-.563,0-.665,0Zm-5.7,0a.322.322,0,0,0-.231.058.259.259,0,0,0-.055.192c.008.457.006.923,0,1.372v0c0,.161,0,.361,0,.551l.141.075.866-.969L10,17.11l.957-1.071H9.969l-.857,0ZM9.039,8.5a.389.389,0,0,0-.3.081.374.374,0,0,0-.058.29c.018.216.015.438.013.652,0,.137,0,.28,0,.421a4.314,4.314,0,0,0,4.3,4.152,4.09,4.09,0,0,0,1.768-.4A4.309,4.309,0,0,0,17.3,9.213c0-.048,0-.1,0-.155h0a2.548,2.548,0,0,1,.009-.429.7.7,0,0,0-.443-.8A16.691,16.691,0,0,1,15.3,6.919a.645.645,0,0,0-.346-.133.557.557,0,0,0-.363.176A6.352,6.352,0,0,1,12.07,8.285a7.459,7.459,0,0,1-2.061.233c-.228,0-.458,0-.68-.008H9.311l-.245,0Zm.638-1.949c.054,0,.1,0,.139,0,.112.006.221.008.325.008a4.957,4.957,0,0,0,3.85-1.722.931.931,0,0,1,.7-.366,1.266,1.266,0,0,1,.615.192c.436.246.864.5,1.318.763l.005,0,.01.006.611.357A4.3,4.3,0,0,0,13,1.958H13A4.335,4.335,0,0,0,8.711,5.73c-.054.414-.081.622.01.725s.3.1.7.1h.251Z" transform="translate(5.273 -0.022)" fill="#10069f" stroke="rgba(0,0,0,0)" stroke-width="1"/>
      <path id="Subtração_48" data-name="Subtração 48" d="M.9,16.03c-.579,0-.9-.449-.9-1.263,0-1.157,0-2.336,0-3.477v-.321c0-2.827,0-5.75,0-8.643A2.159,2.159,0,0,1,1.426.116L1.448.107h0c.052-.02.1-.039.112-.107h.293a.4.4,0,0,0,.224.057c.034,0,.069,0,.1,0s.068,0,.1,0l7.192,0,7.192,0c.033,0,.067,0,.1,0h0c.034,0,.068,0,.1,0A.4.4,0,0,0,17.093,0h.1A1.973,1.973,0,0,1,18.43.553,1.575,1.575,0,0,1,18.9,1.822v.237c0,3.314,0,6.742,0,10.137,0,.044,0,.088,0,.131v0a.972.972,0,0,1-.036.4,1.839,1.839,0,0,1-.676,1.177,1.941,1.941,0,0,1-1.119.474c-.242.008-.46.014-.682.014H11.349c-2.459,0-4.35,0-6.133-.006H5.21a2.049,2.049,0,0,0-.926.211c-.65.315-1.315.625-1.958.925l-.018.008-.618.289A1.91,1.91,0,0,1,.9,16.03ZM2.483,1.947a.578.578,0,0,0-.429.109.587.587,0,0,0-.107.431c.014,2.687.013,5.42.011,8.062v.006c0,.724,0,1.625,0,2.479v.494c.16-.073.316-.141.468-.207h0a9.2,9.2,0,0,0,.934-.445,3.732,3.732,0,0,1,1.97-.443h.042c1.986.01,4,.01,5.951.01,1.7,0,3.45,0,5.18.007h.008a.522.522,0,0,0,.385-.1.529.529,0,0,0,.1-.39c-.017-3.428-.017-6.526,0-9.473a.585.585,0,0,0-.107-.43.581.581,0,0,0-.43-.109h-.008c-2.313.008-4.662.012-6.982.012s-4.669,0-6.982-.012Z" transform="translate(31.067 -0.021)" fill="#10069f" stroke="rgba(0,0,0,0)" stroke-width="1"/>
      <path id="Caminho_239" data-name="Caminho 239" d="M5.041,383.166l15.035,0,33.488,0c.049,0,.1,0,.146.007a.061.061,0,0,1-.01.093H5.052a.059.059,0,0,1-.028-.059c0-.022.01-.034.017-.034" transform="translate(-4.368 -333.259)" fill="#10069f"/>
      <path id="Caminho_240" data-name="Caminho 240" d="M267.913,0c-.142.166-.334.094-.5.095q-7.116.006-14.232,0c-.169,0-.361.071-.5-.095Z" transform="translate(-219.753 -0.022)" fill="#10069f"/>
      <path id="Caminho_241" data-name="Caminho 241" d="M383.15,23.588q-.007-4.295-.013-8.59c0-.829,0-1.659.006-2.488.035-.034.066-.029.092.011v11.04a.083.083,0,0,1-.084.027" transform="translate(-333.219 -10.882)" fill="#10069f"/>
      <path id="Caminho_242" data-name="Caminho 242" d="M134.658,202.577a.974.974,0,1,1-1.948.048.974.974,0,0,1,1.948-.048" transform="translate(-115.419 -175.386)" fill="#10069f"/>
      <path id="Caminho_254" data-name="Caminho 254" d="M273.567,31.994q2.146,0,4.293,0a3.486,3.486,0,0,1,.535.026.961.961,0,0,1,.148,1.854,2,2,0,0,1-.577.07q-4.415.006-8.83,0a1.2,1.2,0,0,1-.867-.249.971.971,0,0,1,.663-1.7q2.317-.005,4.634,0Z" transform="translate(-233.021 -27.847)" fill="#10069f"/>
      <path id="Caminho_255" data-name="Caminho 255" d="M272.058,63.956c-1.024,0-2.047.013-3.071,0A.982.982,0,0,1,268,62.542a.915.915,0,0,1,.863-.533c2.144,0,4.289-.01,6.433,0a.931.931,0,0,1,.965.948.97.97,0,0,1-1.036.99c-1.056.017-2.112,0-3.168.005" transform="translate(-232.986 -53.948)" fill="#10069f"/>
    </g>
  </g>
</svg>
