<svg id="Grupo_21" data-name="Grupo 21" xmlns="http://www.w3.org/2000/svg" xmlns:xlink="http://www.w3.org/1999/xlink" width="40" height="40" viewBox="0 0 40 40">
  <defs>
    <clipPath id="clip-path">
      <rect id="Retângulo_11" data-name="Retângulo 11" width="40" height="40.001" fill="#10069f"/>
    </clipPath>
  </defs>
  <g id="Grupo_20" data-name="Grupo 20" clip-path="url(#clip-path)">
    <path id="Caminho_107" data-name="Caminho 107" d="M18.516,40.361a10.052,10.052,0,0,0-1.521-.222A19.756,19.756,0,0,1,4.422,32.9a.762.762,0,0,1,.049-1.168.78.78,0,0,1,1.209.2,18.372,18.372,0,0,0,32.2-7.365,19.4,19.4,0,0,0,.434-3.007c.019-.3-.039-.366-.336-.365-3.111.011-6.222.007-9.333.007H20.322c-.9,0-1.139-.237-1.139-1.125q0-8.787.007-17.574c0-.344-.059-.462-.439-.434A18.086,18.086,0,0,0,6.69,7.73a17.817,17.817,0,0,0-4.872,9.909,18.128,18.128,0,0,0,.727,8.549c.21.631.074,1.018-.4,1.2A.745.745,0,0,1,1.1,26.91a20.046,20.046,0,0,1-.953-4.17A2.835,2.835,0,0,0,0,21.767v-.391a9.543,9.543,0,0,0,0-1.953v-.391c.1-.719.069-1.448.2-2.165A19.964,19.964,0,0,1,5.139,6.887a19.743,19.743,0,0,1,8.172-5.433A16.161,16.161,0,0,1,18.419.431C18.939.422,19.459.4,19.979.4a.848.848,0,0,1,.91.86c.014.182.007.364.007.547q0,8.417,0,16.834c0,.1,0,.208,0,.313.006.48.03.507.511.508q3.613,0,7.226,0H38.671a1.922,1.922,0,0,1,.733.08.777.777,0,0,1,.556.727c0,.243,0,.486,0,.729a18.328,18.328,0,0,1-2.178,8.649,19.526,19.526,0,0,1-4.162,5.468,19.8,19.8,0,0,1-8.342,4.639,13.719,13.719,0,0,1-3.766.566.157.157,0,0,0-.105.04Z" transform="translate(0 -0.36)" fill="#10069f"/>
    <path id="Subtração_23" data-name="Subtração 23" d="M-3883.059,115.572a3.922,3.922,0,0,1-.7-.057c-.713-.129-.908-.357-.906-1.06q0-1.821.01-3.643v-.119c.01-3.54.02-7.2.017-10.8,0-.69.129-1.21.756-1.505h1.172l.479.052a16.686,16.686,0,0,1,1.9.275,16.492,16.492,0,0,1,6.64,3.157,16.041,16.041,0,0,1,5.832,8.947,10.615,10.615,0,0,1,.34,2.543c0,.01,0,.019,0,.029a.2.2,0,0,0,.04.155v.312a1.747,1.747,0,0,0-.041.57,1.9,1.9,0,0,1-.03.535.782.782,0,0,1-.872.552l-1.689,0h-7.173c-1.707,0-3.021,0-4.26-.006h-.021c-.25,0-.5.016-.747.032h-.013C-3882.564,115.556-3882.813,115.572-3883.059,115.572Zm.3-15.509c-.219,0-.282.09-.282.4,0,3.871-.019,8.027-.05,13.08a.44.44,0,0,0,.075.315.4.4,0,0,0,.293.077h.009c1.283-.009,2.554-.01,3.519-.01h6.3c.934,0,2.166,0,3.419.011h.013a.378.378,0,0,0,.29-.079.414.414,0,0,0,.048-.316,13.385,13.385,0,0,0-1.076-4.328,14.905,14.905,0,0,0-12.391-9.14A1.35,1.35,0,0,0-3882.757,100.063Z" transform="translate(3907.478 -98.388)" fill="#10069f" stroke="rgba(0,0,0,0)" stroke-width="1"/>
    <path id="Caminho_109" data-name="Caminho 109" d="M0,182.931c.174.176.083.4.066.585-.041.456.131.922-.066,1.368Z" transform="translate(0 -163.868)" fill="#10069f"/>
    <path id="Caminho_110" data-name="Caminho 110" d="M383,149.548c.05-.366-.115-.746.07-1.1v1.094a.258.258,0,0,0-.07.01" transform="translate(-343.074 -132.975)" fill="#10069f"/>
    <path id="Caminho_111" data-name="Caminho 111" d="M383.279,191.918l-.033.005-.033,0q0-.394,0-.787a.176.176,0,0,1,.066,0Z" transform="translate(-343.279 -171.215)" fill="#10069f"/>
    <path id="Caminho_112" data-name="Caminho 112" d="M22.713,274.468a.82.82,0,0,1-.8-.79.8.8,0,0,1,.8-.78.785.785,0,1,1,0,1.57" transform="translate(-19.629 -244.46)" fill="#10069f"/>
  </g>
</svg>
