<svg id="Grupo_22" data-name="Grupo 22" xmlns="http://www.w3.org/2000/svg" xmlns:xlink="http://www.w3.org/1999/xlink" width="40" height="34.501" viewBox="0 0 40 34.501">
  <defs>
    <clipPath id="clip-path">
      <rect id="Retângulo_12" data-name="Retângulo 12" width="40" height="34.501" fill="#10069f"/>
    </clipPath>
  </defs>
  <g id="Grupo_22-2" data-name="Grupo 22" clip-path="url(#clip-path)">
    <path id="Subtração_25" data-name="Subtração 25" d="M16.389,34.5H2.681a2.825,2.825,0,0,1-1.623-.378,2.827,2.827,0,0,1-.979-1.349.135.135,0,0,0-.05-.049A.34.34,0,0,1,0,32.7V1.92a3.589,3.589,0,0,1,.377-.869,2.11,2.11,0,0,1,.54-.6A2.13,2.13,0,0,1,1.649.111,3.668,3.668,0,0,1,2.6,0H37.511a2.484,2.484,0,0,1,.548.044,3.376,3.376,0,0,1,.729.247,2.254,2.254,0,0,1,.579.4,1.976,1.976,0,0,1,.41.563A2.514,2.514,0,0,1,40,2V32.7a.238.238,0,0,0-.13.2.6.6,0,0,1-.025.091,2.419,2.419,0,0,1-.856,1.092,2.3,2.3,0,0,1-1.318.411c-2.037,0-4.24,0-6.733,0l-7.329,0a.918.918,0,0,1-.663-.248.739.739,0,0,1-.209-.542.727.727,0,0,1,.248-.557.968.968,0,0,1,.645-.212H37.378c.822,0,1.059-.242,1.059-1.076q0-1.842,0-3.684v-.246c0-6.928,0-14.092.009-21.147,0-.181-.023-.279-.081-.337s-.153-.081-.337-.081h0c-5.978,0-12.042.007-18.026.007s-12.048,0-18.026-.007h0c-.184,0-.278.023-.337.081s-.082.156-.081.337c.009,7.022.009,14.157.009,21.057q0,2.01,0,4.02a1.168,1.168,0,0,0,.221.852,1.122,1.122,0,0,0,.838.225H16.386a1.538,1.538,0,0,1,.179.009.8.8,0,0,1,.5.254.774.774,0,0,1,.2.51.784.784,0,0,1-.678.783A1.4,1.4,0,0,1,16.389,34.5ZM28.286,1.68c-6.1.006-12.3.006-18.3.007H2.439a.79.79,0,0,0-.875.865c0,.224,0,.451,0,.67,0,.395.008.8-.013,1.2a.41.41,0,0,0,.066.311.452.452,0,0,0,.334.081H1.96c2.8-.007,5.594-.008,7.96-.008H19.99c2.465,0,5.373,0,8.247.007h0a.412.412,0,0,0,.3-.072.376.376,0,0,0,.064-.282c-.026-.861-.016-1.726,0-2.459,0-.138-.015-.213-.06-.259a.34.34,0,0,0-.252-.066Zm7.964,3.13c.76,0,1.343,0,1.89.007h.014c.125,0,.194-.017.235-.06a.312.312,0,0,0,.055-.235c-.012-.4-.01-.8-.008-1.184,0-.263,0-.536,0-.806a.78.78,0,0,0-.855-.844c-.889,0-1.794,0-2.668,0-1.466,0-2.981,0-4.471-.007h-.005a.312.312,0,0,0-.229.06.342.342,0,0,0-.055.248c.015.988.014,1.794,0,2.536a.317.317,0,0,0,.056.234.322.322,0,0,0,.235.059h.015c.543,0,1.122-.007,1.877-.007H36.25Z" transform="translate(0 0)" fill="#10069f" stroke="rgba(0,0,0,0)" stroke-width="1"/>
    <path id="Subtração_24" data-name="Subtração 24" d="M21.679,8.594H1.056C.247,8.594,0,8.351,0,7.554,0,4.9,0,2.872,0,.994,0,.27.267,0,.984,0H29.647A1.025,1.025,0,0,1,30.4.222a.985.985,0,0,1,.227.738c0,2.011,0,4.121,0,6.639,0,.725-.267.994-.984.994ZM15.215,7.032c4.5,0,9.055,0,13.535.005h0a.345.345,0,0,0,.256-.065.342.342,0,0,0,.063-.255c-.01-1.305-.019-3.027,0-4.765,0-.171-.02-.263-.075-.32s-.148-.079-.319-.079h-.006c-2.847.008-5.691.009-8.1.009H10.207c-2.473,0-5.393,0-8.293-.008h0c-.154,0-.237.021-.287.071s-.07.134-.068.289c.015,1.464.015,3.036,0,4.8a.344.344,0,0,0,.063.253.346.346,0,0,0,.256.064h0C6.317,7.034,10.8,7.032,15.215,7.032Z" transform="translate(4.687 9.499)" fill="#10069f" stroke="rgba(0,0,0,0)" stroke-width="1"/>
    <path id="Subtração_27" data-name="Subtração 27" d="M10.479,8.594H1.019a1.081,1.081,0,0,1-.792-.222A1.028,1.028,0,0,1,0,7.6C0,5.492,0,3.272,0,1A1.063,1.063,0,0,1,.221.226,1.015,1.015,0,0,1,.979,0H12.77a1.018,1.018,0,0,1,.759.226A1.059,1.059,0,0,1,13.75,1c0,2.484,0,4.642,0,6.6a1.031,1.031,0,0,1-.227.777,1.08,1.08,0,0,1-.792.222ZM1.872,1.557a.341.341,0,0,0-.253.064.342.342,0,0,0-.063.255c.012,1.607.012,3.236,0,4.843a.347.347,0,0,0,.063.255.335.335,0,0,0,.247.064h.01C2.6,7.032,3.385,7.03,4.408,7.03H9.343c1.023,0,1.8,0,2.532.008h.01a.335.335,0,0,0,.247-.064.348.348,0,0,0,.063-.255c-.012-1.607-.012-3.236,0-4.843a.347.347,0,0,0-.063-.254.34.34,0,0,0-.253-.064h0c-1.656,0-3.333.007-4.985.007s-3.352,0-5.014-.007Z" transform="translate(4.687 21.217)" fill="#10069f" stroke="rgba(0,0,0,0)" stroke-width="1"/>
    <path id="Subtração_26" data-name="Subtração 26" d="M10.248,8.594H.978a1.025,1.025,0,0,1-.751-.222A.985.985,0,0,1,0,7.633C0,5.374,0,3.128,0,.957A1,1,0,0,1,.223.227.969.969,0,0,1,.943,0H12.811a.975.975,0,0,1,.711.222.935.935,0,0,1,.227.7c0,2.405,0,4.614,0,6.754a.927.927,0,0,1-.228.7.983.983,0,0,1-.713.222ZM1.872,1.557a.34.34,0,0,0-.253.064.346.346,0,0,0-.063.254c.012,1.6.012,3.227,0,4.843a.344.344,0,0,0,.063.256.334.334,0,0,0,.246.064h.01C2.6,7.032,3.378,7.03,4.4,7.03H9.3c.7,0,1.629,0,2.575.007h.01a.336.336,0,0,0,.247-.064.346.346,0,0,0,.063-.255c-.012-1.6-.012-3.227,0-4.843a.343.343,0,0,0-.063-.255.34.34,0,0,0-.253-.064h0c-1.661,0-3.348.007-5.014.007s-3.328,0-4.985-.007Z" transform="translate(21.562 21.217)" fill="#10069f" stroke="rgba(0,0,0,0)" stroke-width="1"/>
    <path id="Caminho_118" data-name="Caminho 118" d="M185.984,316.845a.794.794,0,0,1-.8.778.78.78,0,0,1,.043-1.559.793.793,0,0,1,.76.781" transform="translate(-165.208 -283.128)" fill="#10069f"/>
  </g>
</svg>
