<svg id="Grupo_16" data-name="Grupo 16" xmlns="http://www.w3.org/2000/svg" xmlns:xlink="http://www.w3.org/1999/xlink" width="41.718" height="40" viewBox="0 0 41.718 40">
  <defs>
    <clipPath id="clip-path">
      <rect id="Retângulo_7" data-name="Retângulo 7" width="41.718" height="40" fill="#10069f"/>
    </clipPath>
  </defs>
  <g id="Grupo_16-2" data-name="Grupo 16" clip-path="url(#clip-path)">
    <path id="Caminho_76" data-name="Caminho 76" d="M41.718,16.574a5.536,5.536,0,0,1-1.8,2.526c-2.013,1.941-4,3.912-6.016,5.848a1.97,1.97,0,0,0-.606,1.942q.839,4.7,1.613,9.417a2.968,2.968,0,0,1-1.2,3.012,2.9,2.9,0,0,1-3.218.345c-2.045-1.022-4.058-2.11-6.084-3.171-.875-.458-1.758-.9-2.621-1.383a1.789,1.789,0,0,0-1.848.007q-4.231,2.247-8.482,4.458a3.143,3.143,0,0,1-4.565-1.9,4.645,4.645,0,0,1,.058-2.133q.751-4.388,1.515-8.774a1.738,1.738,0,0,0-.558-1.728c-.275-.242-.535-.5-.788-.767a.837.837,0,0,1-.082-1.2.822.822,0,0,1,1.2.02c.389.358.772.726,1.126,1.119a3.487,3.487,0,0,1,.656,3.173C9.48,30.4,8.982,33.422,8.455,36.44a1.524,1.524,0,0,0,.592,1.617,1.5,1.5,0,0,0,1.687.066l4.994-2.628c1.174-.617,2.354-1.223,3.522-1.851a3.247,3.247,0,0,1,3.256.008q4.216,2.232,8.447,4.436a1.526,1.526,0,0,0,2.2-.569,1.568,1.568,0,0,0,.14-1.027q-.825-4.788-1.649-9.576a3.237,3.237,0,0,1,1.013-3.027c2.272-2.2,4.53-4.416,6.8-6.622a1.639,1.639,0,0,0,.618-1.393,1.441,1.441,0,0,0-1.226-1.334c-1.081-.192-2.171-.332-3.257-.491q-3.26-.477-6.52-.95a3.217,3.217,0,0,1-2.553-1.907c-1.035-2.114-2.083-4.222-3.126-6.333-.359-.728-.72-1.455-1.075-2.186a1.549,1.549,0,0,0-2.911-.008c-1.385,2.817-2.79,5.624-4.157,8.449a3.444,3.444,0,0,1-2.825,2.036c-3.075.426-6.147.879-9.219,1.326a1.549,1.549,0,0,0-1.528,1.278,1.466,1.466,0,0,0,.472,1.4c.392.4.8.773,1.188,1.173a.768.768,0,0,1,.2.86.812.812,0,0,1-1.333.293c-.473-.448-.955-.89-1.387-1.376a2.966,2.966,0,0,1-.623-3.108,2.976,2.976,0,0,1,2.49-2.075c3.19-.485,6.384-.942,9.579-1.395a1.83,1.83,0,0,0,1.5-1.084q2.083-4.268,4.195-8.522A3.152,3.152,0,0,1,22.808.684,3.616,3.616,0,0,1,23.8,2c1.375,2.791,2.769,5.574,4.128,8.373a1.94,1.94,0,0,0,1.627,1.157c2.914.4,5.824.838,8.735,1.265a7.385,7.385,0,0,1,1.237.228,3.063,3.063,0,0,1,2.1,2.283c.018.072-.02.17.086.206Z" transform="translate(0 0)" fill="#10069f"/>
    <path id="Caminho_77" data-name="Caminho 77" d="M44.048,200.7a.825.825,0,0,1,.8.8.81.81,0,1,1-1.62-.019.831.831,0,0,1,.82-.786" transform="translate(-38.816 -180.211)" fill="#10069f"/>
  </g>
</svg>
