<svg id="Grupo_27" data-name="Grupo 27" xmlns="http://www.w3.org/2000/svg" xmlns:xlink="http://www.w3.org/1999/xlink" width="47.323" height="50" viewBox="0 0 47.323 50">
  <defs>
    <clipPath id="clip-path">
      <rect id="Retângulo_15" data-name="Retângulo 15" width="47.323" height="50" fill="#10069f"/>
    </clipPath>
  </defs>
  <g id="Grupo_26" data-name="Grupo 26" clip-path="url(#clip-path)">
    <path id="Subtração_32" data-name="Subtração 32" d="M46.607,35.665H.71l-.057-.036h0a1.18,1.18,0,0,1-.617-.675.961.961,0,0,1,.147-.832,1.079,1.079,0,0,1,.855-.4c.295-.009.612-.018.933-.018.3,0,.571.008.824.024l.08,0a.372.372,0,0,0,.275-.081.545.545,0,0,0,.089-.386c-.005-.976,0-1.968,0-2.927v-.015c.007-1.659.014-3.375-.027-5.065a3.265,3.265,0,0,1,.195-1.227A2.67,2.67,0,0,1,4,23.086a2.829,2.829,0,0,1,2.052-.822c.055,0,.11,0,.165,0,.467.023.967.033,1.573.033.413,0,.834,0,1.241-.01h0c.4,0,.816-.009,1.223-.009h.109a3.616,3.616,0,0,1,1.215.195,2.372,2.372,0,0,1,1.476,1.463,3.564,3.564,0,0,1,.2,1.214c.011,3.008.009,5.643-.006,8.056a.585.585,0,0,0,.1.419.484.484,0,0,0,.355.1h.037c.709-.015,1.452-.022,2.208-.022.727,0,1.5.007,2.284.021h.031a.47.47,0,0,0,.344-.092.545.545,0,0,0,.094-.389c-.013-5.681-.01-11.4-.007-16.308a2.644,2.644,0,0,1,2.1-2.787,3.469,3.469,0,0,1,.727-.064c.926,0,1.755-.005,2.533-.005.652,0,1.261,0,1.861,0a2.641,2.641,0,0,1,2.828,2.841v1.093c0,4.987.005,10.144-.011,15.215a.548.548,0,0,0,.1.4.5.5,0,0,0,.367.094h.042c.843-.014,1.594-.021,2.3-.021.763,0,1.465.008,2.146.025h.046a.5.5,0,0,0,.369-.1c.085-.085.1-.227.1-.444-.006-5.582-.007-11.258-.009-16.748v-.153c0-4.138,0-8.827-.005-13.323a3.935,3.935,0,0,1,.138-1.131,2.384,2.384,0,0,1,.559-.983A2.829,2.829,0,0,1,35.646.25a2.1,2.1,0,0,1,.936-.23l.269,0C37.721.009,38.62,0,39.506,0c.852,0,1.6.008,2.3.025a2.37,2.37,0,0,1,1.606.7,2.586,2.586,0,0,1,.762,1.6c.023.253.034.524.034.828V5.346c0,9.108,0,18.526-.01,27.788a.716.716,0,0,0,.116.5.4.4,0,0,0,.3.094,1.355,1.355,0,0,0,.154-.01,4.225,4.225,0,0,1,.491-.025c.132,0,.267,0,.4.007s.254.007.381.007a1.72,1.72,0,0,1,.841.177.83.83,0,0,1,.4.53c.136.515-.053.864-.674,1.246ZM39.427,1.947H37.152c-.412,0-.681.031-.833.185s-.182.426-.182.843c0,3.945,0,7.938,0,11.8v3.236q0,1.156,0,2.313v.76c0,3.985,0,8.105-.009,12.158a.526.526,0,0,0,.094.386.476.476,0,0,0,.352.093H36.6c.763-.01,1.583-.015,2.5-.015.948,0,1.887.005,2.767.01h.02a.451.451,0,0,0,.283-.057c.062-.05.09-.142.09-.3-.008-7.331-.008-14.726-.009-21.878,0-2.784,0-5.756,0-8.632,0-.7-.2-.9-.9-.9ZM23.712,33.706c.882,0,1.765,0,2.625.014h.027a.474.474,0,0,0,.343-.086.488.488,0,0,0,.087-.357c-.015-2.072-.013-4.168-.011-6.195v-.15c0-.593,0-1.206,0-1.808q0-1.108,0-2.216V22.77c0-1.917,0-3.9,0-5.848a.94.94,0,0,0-.2-.686.92.92,0,0,0-.679-.2l-2.025,0-2.271,0a1.038,1.038,0,0,0-.761.2,1,1,0,0,0-.2.752c0,1.46,0,2.945,0,4.381,0,3.909,0,7.951-.009,11.926a.468.468,0,0,0,.085.341.437.437,0,0,0,.325.084h.019C21.955,33.711,22.846,33.706,23.712,33.706ZM8.231,24.233l-2.147,0c-.687,0-.9.212-.9.9,0,.942,0,1.9,0,2.827V28q0,.594,0,1.187c0,.334,0,.674,0,1v.084c0,1,0,2.041-.008,3.062a.427.427,0,0,0,.072.308.385.385,0,0,0,.283.075h.013c.855-.008,1.728-.012,2.671-.012.856,0,1.754,0,2.746.01h.01a.366.366,0,0,0,.27-.07.38.38,0,0,0,.071-.279c-.006-1.585-.006-3.2-.006-4.753,0-1.079,0-2.3,0-3.495a.92.92,0,0,0-.2-.7,1.024,1.024,0,0,0-.724-.188Z" transform="translate(0 14.335)" fill="#10069f" stroke="rgba(0,0,0,0)" stroke-width="1"/>
    <path id="Caminho_151" data-name="Caminho 151" d="M100.979,1.954c-1.172,0-2.241,0-3.309,0a2.433,2.433,0,0,1-.579-.053A.949.949,0,0,1,97.1.052,2.245,2.245,0,0,1,97.633,0q2.685,0,5.37,0c.962,0,1.306.327,1.31,1.272.008,1.725-.011,3.45.007,5.175a1,1,0,0,1-1.361,1.073,1.055,1.055,0,0,1-.6-1.079c0-.83,0-1.66,0-2.49V3.442c-.222.04-.31.21-.427.326Q97.116,8.579,92.3,13.4c-.753.753-1.183.756-1.926.015-1-1-2.02-1.986-2.994-3.012-.323-.34-.48-.277-.775.019Q78.56,18.492,70.492,26.545a4.627,4.627,0,0,1-.425.4.977.977,0,0,1-1.291-.035.964.964,0,0,1-.085-1.282,2.97,2.97,0,0,1,.322-.364Q77.52,16.754,86.029,8.244c.753-.753,1.182-.754,1.932-.006C89,9.273,90.038,10.3,91.064,11.35c.194.2.3.243.52.017,3.1-3.117,6.206-6.221,9.4-9.412" transform="translate(-60.108 -0.001)" fill="#10069f"/>
    <path id="Caminho_152" data-name="Caminho 152" d="M42.546,236.056a.954.954,0,0,1-.978-.931.98.98,0,0,1,.967-1,1,1,0,0,1,.96.966.971.971,0,0,1-.948.966" transform="translate(-36.481 -205.477)" fill="#10069f"/>
  </g>
</svg>
