<svg id="Grupo_15" data-name="Grupo 15" xmlns="http://www.w3.org/2000/svg" xmlns:xlink="http://www.w3.org/1999/xlink" width="40" height="40" viewBox="0 0 40 40">
  <defs>
    <clipPath id="clip-path">
      <rect id="Retângulo_6" data-name="Retângulo 6" width="40" height="40" fill="#10069f"/>
    </clipPath>
  </defs>
  <g id="Grupo_15-2" data-name="Grupo 15" clip-path="url(#clip-path)">
    <path id="Caminho_66" data-name="Caminho 66" d="M21.484,0a2.95,2.95,0,0,0,.894.141.806.806,0,0,1,.739.881.807.807,0,0,1-.94.673A18.1,18.1,0,0,0,6.5,7.477,17.393,17.393,0,0,0,1.719,17.715,17.979,17.979,0,0,0,7.512,33.53a17.586,17.586,0,0,0,10.249,4.759,18.334,18.334,0,0,0,19.8-12.754,17.99,17.99,0,0,0-2.5-16.162c-.068-.1-.112-.231-.287-.293,0,.261.008.5,0,.743a.776.776,0,1,1-1.552.013c-.02-.637-.006-1.276-.007-1.914,0-.325-.007-.651,0-.976a.787.787,0,0,1,.853-.853q1.406-.01,2.812,0a.771.771,0,0,1,.859.8.779.779,0,0,1-.857.763c-.351.007-.7,0-1.054.008-.008,0-.015.017-.043.052a23.2,23.2,0,0,1,1.583,2.377,19.867,19.867,0,0,1,2.558,8.229c.006.071-.028.161.073.2v3.047a19.888,19.888,0,0,1-.354,2.731,19.8,19.8,0,0,1-4.2,8.565,20.4,20.4,0,0,1-5.19,4.442,19.681,19.681,0,0,1-7.423,2.6c-.447.062-.9.024-1.348.1H18.437a19.841,19.841,0,0,1-2.731-.354A20.24,20.24,0,0,1,2.168,29.3,19.373,19.373,0,0,1,.09,22.756c-.05-.4-.021-.8-.09-1.194v-3.2c.1-.769.122-1.544.28-2.309A20.267,20.267,0,0,1,10.8,2.113,19.3,19.3,0,0,1,17.205.1c.408-.052.825-.021,1.232-.1Z" fill="#10069f"/>
    <path id="Caminho_67" data-name="Caminho 67" d="M63.621,50.408A13.244,13.244,0,0,0,56.9,52.252c-.135.078-.264.167-.4.237a.777.777,0,1,1-.749-1.362,14.235,14.235,0,0,1,3.869-1.707,14.853,14.853,0,0,1,16.4,6.048A14.426,14.426,0,0,1,78.5,64.819,14.9,14.9,0,0,1,49.2,67.47a14.689,14.689,0,0,1,1.763-11.548.8.8,0,0,1,.827-.464.747.747,0,0,1,.647.548.846.846,0,0,1-.144.739,12.191,12.191,0,0,0-1.8,4.858c-.707,5.354.99,9.8,5.372,12.987a13.192,13.192,0,0,0,17.576-1.763A12.771,12.771,0,0,0,76.933,64.8a13.323,13.323,0,0,0-9.579-13.866,12.552,12.552,0,0,0-3.733-.53" transform="translate(-43.642 -43.777)" fill="#10069f"/>
    <path id="Subtração_13" data-name="Subtração 13" d="M5.249,10.619H5.235A2.667,2.667,0,0,1,2.747,6.983a.441.441,0,0,0-.115-.568C2,5.807,1.378,5.177.772,4.569L.735,4.531.279,4.073a.914.914,0,0,1-.264-.449A.752.752,0,0,1,.1,3.114.768.768,0,0,1,.379,2.8a.753.753,0,0,1,.395-.1,1.082,1.082,0,0,1,.136.009.965.965,0,0,1,.554.34l.711.712.017.017c.512.512,1.042,1.042,1.561,1.568a.416.416,0,0,0,.3.159.523.523,0,0,0,.2-.049,2.522,2.522,0,0,1,.993-.208,2.553,2.553,0,0,1,.982.2.567.567,0,0,0,.214.051.447.447,0,0,0,.318-.17c1.254-1.263,2.53-2.538,3.763-3.771l.106-.105L11.672.407,11.728.35A1.088,1.088,0,0,1,12.1.068.926.926,0,0,1,12.43,0a.718.718,0,0,1,.554.266.775.775,0,0,1,.2.435.753.753,0,0,1-.117.466,1.987,1.987,0,0,1-.312.367l-.016.016-.485.486C10.833,3.462,9.362,4.936,7.9,6.379a.493.493,0,0,0-.151.628,2.634,2.634,0,0,1,.155,1.3,2.671,2.671,0,0,1-2.66,2.313Zm0-3.8a1.108,1.108,0,0,0-1.118,1.1A1.11,1.11,0,0,0,5.248,9.058h.008a1.119,1.119,0,0,0,0-2.238Z" transform="translate(14.752 12.062)" fill="#10069f" stroke="rgba(0,0,0,0)" stroke-width="1"/>
    <path id="Caminho_69" data-name="Caminho 69" d="M283.12,185.993c-.156,0-.312.006-.467,0a.774.774,0,0,1-.1-1.541,6.443,6.443,0,0,1,1.167,0,.745.745,0,0,1,.667.816.755.755,0,0,1-.765.724c-.168.008-.338,0-.506,0" transform="translate(-252.51 -165.206)" fill="#10069f"/>
    <path id="Caminho_70" data-name="Caminho 70" d="M184.349,283.15c0-.169-.007-.338,0-.506a.774.774,0,0,1,1.542-.072,6.429,6.429,0,0,1,0,1.128.775.775,0,0,1-1.546-.082c-.007-.155,0-.312,0-.467" transform="translate(-165.136 -252.513)" fill="#10069f"/>
    <path id="Caminho_71" data-name="Caminho 71" d="M185.984,79.13c0,.169.007.338,0,.506a.774.774,0,0,1-1.542.084,6.191,6.191,0,0,1,0-1.166.773.773,0,0,1,1.538.07c.011.168,0,.337,0,.506h0" transform="translate(-165.197 -69.775)" fill="#10069f"/>
    <path id="Caminho_72" data-name="Caminho 72" d="M79.166,184.359c.156,0,.312-.006.467,0a.764.764,0,0,1,.763.729.756.756,0,0,1-.677.812,6.309,6.309,0,0,1-1.166,0,.746.746,0,0,1-.663-.82.755.755,0,0,1,.769-.719c.169-.007.338,0,.506,0" transform="translate(-69.773 -165.145)" fill="#10069f"/>
    <path id="Caminho_73" data-name="Caminho 73" d="M237.864,8.23a.777.777,0,0,1-.784.789.8.8,0,0,1-.771-.775.787.787,0,0,1,.8-.781.762.762,0,0,1,.759.768" transform="translate(-211.684 -6.685)" fill="#10069f"/>
    <path id="Caminho_74" data-name="Caminho 74" d="M89.3,88.534a.787.787,0,0,1,.793.744.772.772,0,0,1-.757.812.783.783,0,0,1-.8-.776.8.8,0,0,1,.764-.779" transform="translate(-79.308 -79.308)" fill="#10069f"/>
  </g>
</svg>
