<svg id="Grupo_10" data-name="Grupo 10" xmlns="http://www.w3.org/2000/svg" xmlns:xlink="http://www.w3.org/1999/xlink" width="53.139" height="40" viewBox="0 0 53.139 40">
  <defs>
    <clipPath id="clip-path">
      <rect id="Retângulo_3" data-name="Retângulo 3" width="53.139" height="40" fill="#10069f"/>
    </clipPath>
  </defs>
  <g id="Grupo_9" data-name="Grupo 9" clip-path="url(#clip-path)">
    <path id="Subtração_6" data-name="Subtração 6" d="M-3207.8,988a5.8,5.8,0,0,1-3-.828,5.811,5.811,0,0,1-2.117-2.242l-.01-.018-.006-.01-.01-.018a.6.6,0,0,1-.066-.141,1.243,1.243,0,0,0-1.331-1.063,2.808,2.808,0,0,0-.315.019,8.149,8.149,0,0,1-.9.044c-.306,0-.629-.012-.887-.021h-.007l-.383-.013a1.278,1.278,0,0,1-.761-.2,1.306,1.306,0,0,1-.408-.67v-5.708a.931.931,0,0,1,.87-.873.438.438,0,0,0,.419-.491c0-.187.005-.408.005-.622v-7.591c0-6.085,0-11.238,0-16.218a3.384,3.384,0,0,1,.645-2.031,3.263,3.263,0,0,1,1.726-1.186,3.671,3.671,0,0,1,1.035-.1h.3l4.119,0h2.653c2.24,0,4.557,0,6.834,0,5.1,0,9.037-.008,12.749-.026h.017a3.5,3.5,0,0,1,1.3.248,3.444,3.444,0,0,1,1.093.695,3.366,3.366,0,0,1,1.054,2.426c.007.509.006,1.025.006,1.524v.037c0,.524,0,.922,0,1.291,0,.311.02.464.1.547s.233.1.555.1l2.133,0c.709,0,1.781.005,2.78.005,1.534,0,2.775-.007,3.905-.023h.049a1.844,1.844,0,0,1,1.886,1.283c.933,2.108,1.915,4.219,2.865,6.262l.008.017.006.015,0,.007.049.1c.36.773.731,1.573,1.094,2.36.114.246.229.5.34.74l.051.112.006.014c.3.663.644,1.413,1,2.144a2.375,2.375,0,0,1,.186,1.061v.882q0,.441,0,.868v.051c0,1.5,0,3.105-.007,4.683,0,.43.043.791.63.86.473.056.609.492.671.814v5.708a1.3,1.3,0,0,1-.418.679,1.371,1.371,0,0,1-.8.192c-.463.008-.919.013-1.355.013-.463,0-.933,0-1.4-.013h-.03a.716.716,0,0,0-.75.517,6.212,6.212,0,0,1-1.6,2.344,5.6,5.6,0,0,1-2.522,1.265,6.532,6.532,0,0,1-1.431.162,5.762,5.762,0,0,1-3.193-.943,5.651,5.651,0,0,1-1.25-1.133,6.145,6.145,0,0,1-.915-1.532.984.984,0,0,0-1.086-.685h-.008c-3.349.009-6.632.013-9.756.013-3.262,0-6.579-.005-9.858-.015h-.009a1.039,1.039,0,0,0-1.116.725,6.071,6.071,0,0,1-1.561,2.177,5.659,5.659,0,0,1-2.385,1.21A6.291,6.291,0,0,1-3207.8,988Zm32.676-9.557a3.66,3.66,0,0,0-3.65,3.586,3.649,3.649,0,0,0,3.612,3.751h.059a3.7,3.7,0,0,0,3.682-3.637,3.691,3.691,0,0,0-3.626-3.7h-.077Zm-32.643,0a3.7,3.7,0,0,0-3.67,3.657,3.625,3.625,0,0,0,1.069,2.591,3.663,3.663,0,0,0,2.614,1.09h.014a3.646,3.646,0,0,0,2.6-1.082,3.664,3.664,0,0,0,1.058-2.625,3.664,3.664,0,0,0-3.654-3.631Zm37.113,0a10.737,10.737,0,0,1,.927,1.6,1.931,1.931,0,0,1,.135.6c.041.348.079.675.376.8a1.5,1.5,0,0,0,.606.1c.162,0,.329-.013.514-.029h.018c.164-.013.333-.027.495-.027h.007l.079,0h.073l.075,0a.989.989,0,0,1,.135.008.707.707,0,0,0,.071,0,.2.2,0,0,0,.152-.05.343.343,0,0,0,.06-.25c-.012-.925-.007-1.863,0-2.488a.317.317,0,0,0-.055-.223.261.261,0,0,0-.19-.055h-.006c-.494,0-1,.005-1.638.005h-1.832Zm-32.662,0a5.472,5.472,0,0,1,1.19,2.557c.057.394.194.508.615.508h.005c4.781-.01,9.515-.011,12.66-.011h7.47l.094,0,.1,0a1.1,1.1,0,0,1,.116.005l.051,0c.13,0,.2-.068.218-.229a5.573,5.573,0,0,1,.419-1.454,6.5,6.5,0,0,1,.778-1.308.565.565,0,0,0-.3-.076c-.041,0-.083,0-.118.005s-.083,0-.115,0c-1.276,0-2.567,0-3.815,0h-2.389a3.6,3.6,0,0,1-.539-.027,1.03,1.03,0,0,1-.906-1.03,1.015,1.015,0,0,1,.27-.673,1.042,1.042,0,0,1,.668-.324c.212-.021.4-.031.589-.031.14,0,.273.006.4.017.04,0,.071,0,.1,0a.341.341,0,0,0,.257-.08.532.532,0,0,0,.1-.391c-.006-4.751-.007-9.572-.008-14.235v-2.8q0-1.908,0-3.769v-.182q0-1.72,0-3.4a1.329,1.329,0,0,0-.315-.985,1.333,1.333,0,0,0-.987-.314c-4.358,0-8.714,0-12.948,0-4.518,0-9.082,0-13.563,0-.88,0-1.273.389-1.276,1.26,0,1.108,0,2.229,0,3.313v.55c0,1.166,0,2.371-.006,3.556a.456.456,0,0,0,.079.329.42.42,0,0,0,.308.081h.005c1.815-.007,3.571-.01,5.218-.01,1.753,0,3.524,0,5.262.011h.006a.425.425,0,0,0,.312-.081.438.438,0,0,0,.074-.325c-.013-.708-.012-1.4-.009-2.172,0-.292,0-.593,0-.888a1.023,1.023,0,0,1,.566-.977,1.028,1.028,0,0,1,.48-.126,1.086,1.086,0,0,1,.678.264c.1.079.205.161.3.233l.008.006.266.208,1.51,1.194.65.514.081.064,1.306,1.033.365.289c1.757,1.39,3.574,2.828,5.356,4.242a1.311,1.311,0,0,1,.589.977,1.1,1.1,0,0,1-.48.84c-2.247,1.789-4.536,3.6-6.749,5.348l-.062.049-.087.069c-.939.742-2,1.582-3.018,2.388a1.153,1.153,0,0,1-.713.28,1.035,1.035,0,0,1-.491-.131,1.052,1.052,0,0,1-.554-1.035c0-.338,0-.7,0-1.1V970.4c0-.585-.005-1.189.013-1.786a.475.475,0,0,0-.083-.35.509.509,0,0,0-.369-.092h-.01c-1.858.007-3.6.01-5.173.01-1.821,0-3.554,0-5.152-.012h-.012a.514.514,0,0,0-.379.1.524.524,0,0,0-.094.385c.023,2.752.022,5.026,0,7.159a.606.606,0,0,0,.11.447.642.642,0,0,0,.462.112h.007c3.966-.01,7.76-.011,10.269-.011h7.29c.091,0,.188,0,.288.01a1.045,1.045,0,0,1,1.018,1.034,1.045,1.045,0,0,1-.984,1.016,3.432,3.432,0,0,1-.38.016h-6.871Zm-12.354-.005a.272.272,0,0,0-.2.058.363.363,0,0,0-.054.261c.006.983.005,1.734,0,2.436a.351.351,0,0,0,.056.254.261.261,0,0,0,.194.057h.019c.259-.007.543-.01.868-.01.284,0,.573,0,.853,0h.015l.181,0h.014c.172,0,.271-.038.3-.24a5.864,5.864,0,0,1,1.235-2.816h-1.828c-.66,0-1.166,0-1.638-.008Zm32.745-21.339a.451.451,0,0,0-.334.089c-.068.068-.094.181-.093.39.013,2.331.013,4.722.011,6.971v.01c0,.692,0,1.428,0,2.15,0,.675,0,1.363,0,2.028v.455c0,2.2,0,4.465-.011,6.7a.531.531,0,0,0,.094.39.517.517,0,0,0,.381.1h.007c2.37-.007,4.764-.01,7.116-.01,2.173,0,4.445,0,6.945.008h.006a.5.5,0,0,0,.372-.1.486.486,0,0,0,.093-.358c-.02-1.753-.02-3.551,0-5.344a.485.485,0,0,0-.093-.363.477.477,0,0,0-.357-.094h-.016c-.949.007-1.933.011-3.008.011-.8,0-1.7,0-3.01-.007a5.424,5.424,0,0,1-1.185-.1,3.664,3.664,0,0,1-2.135-1.337,4.064,4.064,0,0,1-.8-2.486v-.037c-.009-2.46-.02-5.521.012-8.471a.663.663,0,0,0-.119-.49.551.551,0,0,0-.413-.112l-.085,0h-.009c-.517.018-1.04.027-1.6.027s-1.108-.008-1.723-.025Zm-24.862,9.012h5.341c.9,0,1.257.352,1.26,1.251,0,.485,0,.969,0,1.481v.019q0,.331,0,.679l.071-.048.039-.026,0,0c.049-.033.081-.055.112-.079l.52-.412,1.194-.946c1.667-1.32,3.389-2.686,5.117-4.036.131-.1.189-.18.189-.25,0-.086-.089-.157-.212-.254l-.012-.01c-1.126-.886-2.335-1.841-3.8-3l-.021-.016-.57-.451-.236-.186c-.689-.545-1.387-1.1-2.078-1.641-.014-.012-.028-.026-.043-.041l-.012-.012a.237.237,0,0,0-.168-.1.217.217,0,0,0-.089.022v1.965a1.483,1.483,0,0,1-.289,1.075,1.433,1.433,0,0,1-1.062.293l-2.283,0h-3.044c-2.36,0-4.219,0-6.027-.014h-.021a.692.692,0,0,0-.5.125.641.641,0,0,0-.11.481c.04,1.071.041,2.241,0,3.577a.6.6,0,0,0,.1.455.6.6,0,0,0,.45.115h.014C-3212.11,966.108-3210.149,966.1-3207.787,966.1Zm31.221-9.006a.322.322,0,0,0-.238.067.342.342,0,0,0-.068.256c0,.945,0,1.918,0,2.834v.657c0,1.795,0,3.651.014,5.48a1.62,1.62,0,0,0,1.649,1.647c.182.009.382.013.647.013l.422,0,.414,0h4.976l-.28-.607-.011-.025q-.3-.648-.6-1.292l-.7-1.513-.051-.11c-1.135-2.464-2.209-4.8-3.312-7.193a.332.332,0,0,0-.355-.206h-.01c-.368,0-.852.007-1.324.007-.44,0-.821,0-1.165-.009Z" transform="translate(3218 -948)" fill="#10069f" stroke="rgba(0,0,0,0)" stroke-width="1"/>
    <path id="Caminho_28" data-name="Caminho 28" d="M185.6,204.957a1.012,1.012,0,0,1,1.018,1.009,1.032,1.032,0,0,1-1.042,1.045,1.043,1.043,0,0,1-1.025-1.017,1.028,1.028,0,0,1,1.049-1.037" transform="translate(-159.003 -176.585)" fill="#10069f"/>
  </g>
</svg>
